<?xml version="1.0" encoding="UTF-8"?>
<svg xmlns="http://www.w3.org/2000/svg" xmlns:xlink="http://www.w3.org/1999/xlink" width="375" height="374.999991" viewBox="0 0 375 374.999991">
<defs>
<g>
<g id="glyph-0-0">
<path d="M 75.25 0 C 63.914062 0 54.207031 -2.332031 46.125 -7 C 38.039062 -11.664062 31.75 -18.039062 27.25 -26.125 C 22.75 -34.207031 20 -43.25 19 -53.25 L 7.5 -175 L 49.25 -175 L 60.75 -53.25 C 61.082031 -48.914062 62.582031 -45.289062 65.25 -42.375 C 67.914062 -39.457031 71.25 -38 75.25 -38 L 167.75 -38 C 171.75 -38 175.082031 -39.457031 177.75 -42.375 C 180.414062 -45.289062 181.914062 -48.914062 182.25 -53.25 L 193.75 -175 L 235.5 -175 L 224 -53.25 C 223.164062 -43.25 220.457031 -34.207031 215.875 -26.125 C 211.289062 -18.039062 204.957031 -11.664062 196.875 -7 C 188.789062 -2.332031 179.082031 0 167.75 0 Z M 75.25 0 "/>
</g>
</g>
</defs>
<rect x="-37.5" y="-37.499999" width="450" height="449.999989" fill="rgb(100%, 100%, 100%)" fill-opacity="1"/>
<rect x="-37.5" y="-37.499999" width="450" height="449.999989" fill="rgb(0%, 0%, 0%)" fill-opacity="1"/>
<g fill="rgb(100%, 100%, 100%)" fill-opacity="1">
<use xlink:href="#glyph-0-0" x="66.035159" y="281.696634"/>
</g>
</svg>
