0
SECTION
2
HEADER
9
$INSUNITS
70
4
0
ENDSEC
0
SECTION
2
TABLES
0
TABLE
2
LAYER
70
3
0
LAYER
2
CHAPA
70
0
62
5
6
CONTINUOUS
0
LAYER
2
PECAS
70
0
62
7
6
CONTINUOUS
0
LAYER
2
TEXTO
70
0
62
3
6
CONTINUOUS
0
ENDTAB
0
ENDSEC
0
SECTION
2
ENTITIES
0
POLYLINE
8
CHAPA
66
1
70
1
0
VERTEX
8
CHAPA
10
0.00
20
0.00
30
0.0
0
VERTEX
8
CHAPA
10
1850.00
20
0.00
30
0.0
0
VERTEX
8
CHAPA
10
1850.00
20
2750.00
30
0.0
0
VERTEX
8
CHAPA
10
0.00
20
2750.00
30
0.0
0
SEQEND
0
POLYLINE
8
PECAS
66
1
70
1
0
VERTEX
8
PECAS
10
7.00
20
7.00
30
0.0
0
VERTEX
8
PECAS
10
557.00
20
7.00
30
0.0
0
VERTEX
8
PECAS
10
557.00
20
2237.00
30
0.0
0
VERTEX
8
PECAS
10
7.00
20
2237.00
30
0.0
0
SEQEND
0
TEXT
8
TEXTO
10
22.00
20
1122.00
30
0.0
40
26.00
1
TV_TAMPO 550x2230
0
POLYLINE
8
PECAS
66
1
70
1
0
VERTEX
8
PECAS
10
564.00
20
7.00
30
0.0
0
VERTEX
8
PECAS
10
1114.00
20
7.00
30
0.0
0
VERTEX
8
PECAS
10
1114.00
20
2237.00
30
0.0
0
VERTEX
8
PECAS
10
564.00
20
2237.00
30
0.0
0
SEQEND
0
TEXT
8
TEXTO
10
579.00
20
1122.00
30
0.0
40
26.00
1
TV_BASE 550x2230
0
POLYLINE
8
PECAS
66
1
70
1
0
VERTEX
8
PECAS
10
7.00
20
2244.00
30
0.0
0
VERTEX
8
PECAS
10
1097.00
20
2244.00
30
0.0
0
VERTEX
8
PECAS
10
1097.00
20
2644.00
30
0.0
0
VERTEX
8
PECAS
10
7.00
20
2644.00
30
0.0
0
SEQEND
0
TEXT
8
TEXTO
10
22.00
20
2444.00
30
0.0
40
26.00
1
ESP_TAMPO 1090x400
0
POLYLINE
8
PECAS
66
1
70
1
0
VERTEX
8
PECAS
10
1121.00
20
7.00
30
0.0
0
VERTEX
8
PECAS
10
1521.00
20
7.00
30
0.0
0
VERTEX
8
PECAS
10
1521.00
20
1097.00
30
0.0
0
VERTEX
8
PECAS
10
1121.00
20
1097.00
30
0.0
0
SEQEND
0
TEXT
8
TEXTO
10
1136.00
20
552.00
30
0.0
40
26.00
1
ESP_BASE 400x1090
0
POLYLINE
8
PECAS
66
1
70
1
0
VERTEX
8
PECAS
10
1121.00
20
1104.00
30
0.0
0
VERTEX
8
PECAS
10
1671.00
20
1104.00
30
0.0
0
VERTEX
8
PECAS
10
1671.00
20
1524.00
30
0.0
0
VERTEX
8
PECAS
10
1121.00
20
1524.00
30
0.0
0
SEQEND
0
TEXT
8
TEXTO
10
1136.00
20
1314.00
30
0.0
40
26.00
1
TV_LATERAL_1 550x420
0
POLYLINE
8
PECAS
66
1
70
1
0
VERTEX
8
PECAS
10
1121.00
20
1531.00
30
0.0
0
VERTEX
8
PECAS
10
1671.00
20
1531.00
30
0.0
0
VERTEX
8
PECAS
10
1671.00
20
1951.00
30
0.0
0
VERTEX
8
PECAS
10
1121.00
20
1951.00
30
0.0
0
SEQEND
0
TEXT
8
TEXTO
10
1136.00
20
1741.00
30
0.0
40
26.00
1
TV_LATERAL_2 550x420
0
POLYLINE
8
PECAS
66
1
70
1
0
VERTEX
8
PECAS
10
1104.00
20
2244.00
30
0.0
0
VERTEX
8
PECAS
10
1524.00
20
2244.00
30
0.0
0
VERTEX
8
PECAS
10
1524.00
20
2644.00
30
0.0
0
VERTEX
8
PECAS
10
1104.00
20
2644.00
30
0.0
0
SEQEND
0
TEXT
8
TEXTO
10
1119.00
20
2444.00
30
0.0
40
26.00
1
ESP_LATERAL_1 420x400
0
ENDSEC
0
EOF
