0
SECTION
2
HEADER
9
$INSUNITS
70
4
0
ENDSEC
0
SECTION
2
TABLES
0
TABLE
2
LAYER
70
3
0
LAYER
2
PERIMETRO
70
0
62
7
6
CONTINUOUS
0
LAYER
2
RANHURAS
70
0
62
1
6
CONTINUOUS
0
LAYER
2
TEXTO
70
0
62
3
6
CONTINUOUS
0
ENDTAB
0
ENDSEC
0
SECTION
2
ENTITIES
0
LINE
8
PERIMETRO
10
0.0000
20
420.0000
30
0.0
11
942.4778
21
420.0000
31
0.0
0
LINE
8
PERIMETRO
10
942.4778
20
420.0000
30
0.0
11
942.4778
21
1020.0000
31
0.0
0
LINE
8
PERIMETRO
10
942.4778
20
1020.0000
30
0.0
11
0.0000
21
1020.0000
31
0.0
0
LINE
8
PERIMETRO
10
0.0000
20
1020.0000
30
0.0
11
0.0000
21
420.0000
31
0.0
0
TEXT
8
TEXTO
10
10.0000
20
1045.0000
30
0.0
40
22.0000
1
CINTA 942 x 600 (vincos p/ Ø300, pele 1mm)
0
POLYLINE
8
RANHURAS
66
1
70
0
0
VERTEX
8
RANHURAS
10
3.2389
20
1030.0000
30
0.0
0
VERTEX
8
RANHURAS
10
3.2389
20
410.0000
30
0.0
0
VERTEX
8
RANHURAS
10
15.2389
20
410.0000
30
0.0
0
VERTEX
8
RANHURAS
10
15.2389
20
1030.0000
30
0.0
0
VERTEX
8
RANHURAS
10
27.2389
20
1030.0000
30
0.0
0
VERTEX
8
RANHURAS
10
27.2389
20
410.0000
30
0.0
0
VERTEX
8
RANHURAS
10
39.2389
20
410.0000
30
0.0
0
VERTEX
8
RANHURAS
10
39.2389
20
1030.0000
30
0.0
0
VERTEX
8
RANHURAS
10
51.2389
20
1030.0000
30
0.0
0
VERTEX
8
RANHURAS
10
51.2389
20
410.0000
30
0.0
0
VERTEX
8
RANHURAS
10
63.2389
20
410.0000
30
0.0
0
VERTEX
8
RANHURAS
10
63.2389
20
1030.0000
30
0.0
0
VERTEX
8
RANHURAS
10
75.2389
20
1030.0000
30
0.0
0
VERTEX
8
RANHURAS
10
75.2389
20
410.0000
30
0.0
0
VERTEX
8
RANHURAS
10
87.2389
20
410.0000
30
0.0
0
VERTEX
8
RANHURAS
10
87.2389
20
1030.0000
30
0.0
0
VERTEX
8
RANHURAS
10
99.2389
20
1030.0000
30
0.0
0
VERTEX
8
RANHURAS
10
99.2389
20
410.0000
30
0.0
0
VERTEX
8
RANHURAS
10
111.2389
20
410.0000
30
0.0
0
VERTEX
8
RANHURAS
10
111.2389
20
1030.0000
30
0.0
0
VERTEX
8
RANHURAS
10
123.2389
20
1030.0000
30
0.0
0
VERTEX
8
RANHURAS
10
123.2389
20
410.0000
30
0.0
0
VERTEX
8
RANHURAS
10
135.2389
20
410.0000
30
0.0
0
VERTEX
8
RANHURAS
10
135.2389
20
1030.0000
30
0.0
0
VERTEX
8
RANHURAS
10
147.2389
20
1030.0000
30
0.0
0
VERTEX
8
RANHURAS
10
147.2389
20
410.0000
30
0.0
0
VERTEX
8
RANHURAS
10
159.2389
20
410.0000
30
0.0
0
VERTEX
8
RANHURAS
10
159.2389
20
1030.0000
30
0.0
0
VERTEX
8
RANHURAS
10
171.2389
20
1030.0000
30
0.0
0
VERTEX
8
RANHURAS
10
171.2389
20
410.0000
30
0.0
0
VERTEX
8
RANHURAS
10
183.2389
20
410.0000
30
0.0
0
VERTEX
8
RANHURAS
10
183.2389
20
1030.0000
30
0.0
0
VERTEX
8
RANHURAS
10
195.2389
20
1030.0000
30
0.0
0
VERTEX
8
RANHURAS
10
195.2389
20
410.0000
30
0.0
0
VERTEX
8
RANHURAS
10
207.2389
20
410.0000
30
0.0
0
VERTEX
8
RANHURAS
10
207.2389
20
1030.0000
30
0.0
0
VERTEX
8
RANHURAS
10
219.2389
20
1030.0000
30
0.0
0
VERTEX
8
RANHURAS
10
219.2389
20
410.0000
30
0.0
0
VERTEX
8
RANHURAS
10
231.2389
20
410.0000
30
0.0
0
VERTEX
8
RANHURAS
10
231.2389
20
1030.0000
30
0.0
0
VERTEX
8
RANHURAS
10
243.2389
20
1030.0000
30
0.0
0
VERTEX
8
RANHURAS
10
243.2389
20
410.0000
30
0.0
0
VERTEX
8
RANHURAS
10
255.2389
20
410.0000
30
0.0
0
VERTEX
8
RANHURAS
10
255.2389
20
1030.0000
30
0.0
0
VERTEX
8
RANHURAS
10
267.2389
20
1030.0000
30
0.0
0
VERTEX
8
RANHURAS
10
267.2389
20
410.0000
30
0.0
0
VERTEX
8
RANHURAS
10
279.2389
20
410.0000
30
0.0
0
VERTEX
8
RANHURAS
10
279.2389
20
1030.0000
30
0.0
0
VERTEX
8
RANHURAS
10
291.2389
20
1030.0000
30
0.0
0
VERTEX
8
RANHURAS
10
291.2389
20
410.0000
30
0.0
0
VERTEX
8
RANHURAS
10
303.2389
20
410.0000
30
0.0
0
VERTEX
8
RANHURAS
10
303.2389
20
1030.0000
30
0.0
0
VERTEX
8
RANHURAS
10
315.2389
20
1030.0000
30
0.0
0
VERTEX
8
RANHURAS
10
315.2389
20
410.0000
30
0.0
0
VERTEX
8
RANHURAS
10
327.2389
20
410.0000
30
0.0
0
VERTEX
8
RANHURAS
10
327.2389
20
1030.0000
30
0.0
0
VERTEX
8
RANHURAS
10
339.2389
20
1030.0000
30
0.0
0
VERTEX
8
RANHURAS
10
339.2389
20
410.0000
30
0.0
0
VERTEX
8
RANHURAS
10
351.2389
20
410.0000
30
0.0
0
VERTEX
8
RANHURAS
10
351.2389
20
1030.0000
30
0.0
0
VERTEX
8
RANHURAS
10
363.2389
20
1030.0000
30
0.0
0
VERTEX
8
RANHURAS
10
363.2389
20
410.0000
30
0.0
0
VERTEX
8
RANHURAS
10
375.2389
20
410.0000
30
0.0
0
VERTEX
8
RANHURAS
10
375.2389
20
1030.0000
30
0.0
0
VERTEX
8
RANHURAS
10
387.2389
20
1030.0000
30
0.0
0
VERTEX
8
RANHURAS
10
387.2389
20
410.0000
30
0.0
0
VERTEX
8
RANHURAS
10
399.2389
20
410.0000
30
0.0
0
VERTEX
8
RANHURAS
10
399.2389
20
1030.0000
30
0.0
0
VERTEX
8
RANHURAS
10
411.2389
20
1030.0000
30
0.0
0
VERTEX
8
RANHURAS
10
411.2389
20
410.0000
30
0.0
0
VERTEX
8
RANHURAS
10
423.2389
20
410.0000
30
0.0
0
VERTEX
8
RANHURAS
10
423.2389
20
1030.0000
30
0.0
0
VERTEX
8
RANHURAS
10
435.2389
20
1030.0000
30
0.0
0
VERTEX
8
RANHURAS
10
435.2389
20
410.0000
30
0.0
0
VERTEX
8
RANHURAS
10
447.2389
20
410.0000
30
0.0
0
VERTEX
8
RANHURAS
10
447.2389
20
1030.0000
30
0.0
0
VERTEX
8
RANHURAS
10
459.2389
20
1030.0000
30
0.0
0
VERTEX
8
RANHURAS
10
459.2389
20
410.0000
30
0.0
0
VERTEX
8
RANHURAS
10
471.2389
20
410.0000
30
0.0
0
VERTEX
8
RANHURAS
10
471.2389
20
1030.0000
30
0.0
0
VERTEX
8
RANHURAS
10
483.2389
20
1030.0000
30
0.0
0
VERTEX
8
RANHURAS
10
483.2389
20
410.0000
30
0.0
0
VERTEX
8
RANHURAS
10
495.2389
20
410.0000
30
0.0
0
VERTEX
8
RANHURAS
10
495.2389
20
1030.0000
30
0.0
0
VERTEX
8
RANHURAS
10
507.2389
20
1030.0000
30
0.0
0
VERTEX
8
RANHURAS
10
507.2389
20
410.0000
30
0.0
0
VERTEX
8
RANHURAS
10
519.2389
20
410.0000
30
0.0
0
VERTEX
8
RANHURAS
10
519.2389
20
1030.0000
30
0.0
0
VERTEX
8
RANHURAS
10
531.2389
20
1030.0000
30
0.0
0
VERTEX
8
RANHURAS
10
531.2389
20
410.0000
30
0.0
0
VERTEX
8
RANHURAS
10
543.2389
20
410.0000
30
0.0
0
VERTEX
8
RANHURAS
10
543.2389
20
1030.0000
30
0.0
0
VERTEX
8
RANHURAS
10
555.2389
20
1030.0000
30
0.0
0
VERTEX
8
RANHURAS
10
555.2389
20
410.0000
30
0.0
0
VERTEX
8
RANHURAS
10
567.2389
20
410.0000
30
0.0
0
VERTEX
8
RANHURAS
10
567.2389
20
1030.0000
30
0.0
0
VERTEX
8
RANHURAS
10
579.2389
20
1030.0000
30
0.0
0
VERTEX
8
RANHURAS
10
579.2389
20
410.0000
30
0.0
0
VERTEX
8
RANHURAS
10
591.2389
20
410.0000
30
0.0
0
VERTEX
8
RANHURAS
10
591.2389
20
1030.0000
30
0.0
0
VERTEX
8
RANHURAS
10
603.2389
20
1030.0000
30
0.0
0
VERTEX
8
RANHURAS
10
603.2389
20
410.0000
30
0.0
0
VERTEX
8
RANHURAS
10
615.2389
20
410.0000
30
0.0
0
VERTEX
8
RANHURAS
10
615.2389
20
1030.0000
30
0.0
0
VERTEX
8
RANHURAS
10
627.2389
20
1030.0000
30
0.0
0
VERTEX
8
RANHURAS
10
627.2389
20
410.0000
30
0.0
0
VERTEX
8
RANHURAS
10
639.2389
20
410.0000
30
0.0
0
VERTEX
8
RANHURAS
10
639.2389
20
1030.0000
30
0.0
0
VERTEX
8
RANHURAS
10
651.2389
20
1030.0000
30
0.0
0
VERTEX
8
RANHURAS
10
651.2389
20
410.0000
30
0.0
0
VERTEX
8
RANHURAS
10
663.2389
20
410.0000
30
0.0
0
VERTEX
8
RANHURAS
10
663.2389
20
1030.0000
30
0.0
0
VERTEX
8
RANHURAS
10
675.2389
20
1030.0000
30
0.0
0
VERTEX
8
RANHURAS
10
675.2389
20
410.0000
30
0.0
0
VERTEX
8
RANHURAS
10
687.2389
20
410.0000
30
0.0
0
VERTEX
8
RANHURAS
10
687.2389
20
1030.0000
30
0.0
0
VERTEX
8
RANHURAS
10
699.2389
20
1030.0000
30
0.0
0
VERTEX
8
RANHURAS
10
699.2389
20
410.0000
30
0.0
0
VERTEX
8
RANHURAS
10
711.2389
20
410.0000
30
0.0
0
VERTEX
8
RANHURAS
10
711.2389
20
1030.0000
30
0.0
0
VERTEX
8
RANHURAS
10
723.2389
20
1030.0000
30
0.0
0
VERTEX
8
RANHURAS
10
723.2389
20
410.0000
30
0.0
0
VERTEX
8
RANHURAS
10
735.2389
20
410.0000
30
0.0
0
VERTEX
8
RANHURAS
10
735.2389
20
1030.0000
30
0.0
0
VERTEX
8
RANHURAS
10
747.2389
20
1030.0000
30
0.0
0
VERTEX
8
RANHURAS
10
747.2389
20
410.0000
30
0.0
0
VERTEX
8
RANHURAS
10
759.2389
20
410.0000
30
0.0
0
VERTEX
8
RANHURAS
10
759.2389
20
1030.0000
30
0.0
0
VERTEX
8
RANHURAS
10
771.2389
20
1030.0000
30
0.0
0
VERTEX
8
RANHURAS
10
771.2389
20
410.0000
30
0.0
0
VERTEX
8
RANHURAS
10
783.2389
20
410.0000
30
0.0
0
VERTEX
8
RANHURAS
10
783.2389
20
1030.0000
30
0.0
0
VERTEX
8
RANHURAS
10
795.2389
20
1030.0000
30
0.0
0
VERTEX
8
RANHURAS
10
795.2389
20
410.0000
30
0.0
0
VERTEX
8
RANHURAS
10
807.2389
20
410.0000
30
0.0
0
VERTEX
8
RANHURAS
10
807.2389
20
1030.0000
30
0.0
0
VERTEX
8
RANHURAS
10
819.2389
20
1030.0000
30
0.0
0
VERTEX
8
RANHURAS
10
819.2389
20
410.0000
30
0.0
0
VERTEX
8
RANHURAS
10
831.2389
20
410.0000
30
0.0
0
VERTEX
8
RANHURAS
10
831.2389
20
1030.0000
30
0.0
0
VERTEX
8
RANHURAS
10
843.2389
20
1030.0000
30
0.0
0
VERTEX
8
RANHURAS
10
843.2389
20
410.0000
30
0.0
0
VERTEX
8
RANHURAS
10
855.2389
20
410.0000
30
0.0
0
VERTEX
8
RANHURAS
10
855.2389
20
1030.0000
30
0.0
0
VERTEX
8
RANHURAS
10
867.2389
20
1030.0000
30
0.0
0
VERTEX
8
RANHURAS
10
867.2389
20
410.0000
30
0.0
0
VERTEX
8
RANHURAS
10
879.2389
20
410.0000
30
0.0
0
VERTEX
8
RANHURAS
10
879.2389
20
1030.0000
30
0.0
0
VERTEX
8
RANHURAS
10
891.2389
20
1030.0000
30
0.0
0
VERTEX
8
RANHURAS
10
891.2389
20
410.0000
30
0.0
0
VERTEX
8
RANHURAS
10
903.2389
20
410.0000
30
0.0
0
VERTEX
8
RANHURAS
10
903.2389
20
1030.0000
30
0.0
0
VERTEX
8
RANHURAS
10
915.2389
20
1030.0000
30
0.0
0
VERTEX
8
RANHURAS
10
915.2389
20
410.0000
30
0.0
0
VERTEX
8
RANHURAS
10
927.2389
20
410.0000
30
0.0
0
VERTEX
8
RANHURAS
10
927.2389
20
1030.0000
30
0.0
0
VERTEX
8
RANHURAS
10
939.2389
20
1030.0000
30
0.0
0
VERTEX
8
RANHURAS
10
939.2389
20
410.0000
30
0.0
0
SEQEND
0
CIRCLE
8
PERIMETRO
10
150.0000
20
150.0000
30
0.0
40
150.0000
0
TEXT
8
TEXTO
10
95.0000
20
150.0000
30
0.0
40
22.0000
1
TAMPO Ø300
0
CIRCLE
8
PERIMETRO
10
520.0000
20
150.0000
30
0.0
40
150.0000
0
TEXT
8
TEXTO
10
465.0000
20
150.0000
30
0.0
40
22.0000
1
BASE Ø300
0
ENDSEC
0
EOF
