0
SECTION
2
HEADER
9
$INSUNITS
70
4
0
ENDSEC
0
SECTION
2
TABLES
0
TABLE
2
LAYER
70
3
0
LAYER
2
PERIMETRO
70
0
62
7
6
CONTINUOUS
0
LAYER
2
ENCAIXE
70
0
62
3
6
CONTINUOUS
0
LAYER
2
RANHURAS
70
0
62
1
6
CONTINUOUS
0
ENDTAB
0
ENDSEC
0
SECTION
2
ENTITIES
0
CIRCLE
8
PERIMETRO
10
207.0000
20
207.0000
30
0.0
40
200.0000
0
LINE
8
ENCAIXE
10
262.0000
20
199.5000
30
0.0
11
292.0000
21
199.5000
31
0.0
0
LINE
8
ENCAIXE
10
292.0000
20
199.5000
30
0.0
11
292.0000
21
214.5000
31
0.0
0
LINE
8
ENCAIXE
10
292.0000
20
214.5000
30
0.0
11
262.0000
21
214.5000
31
0.0
0
LINE
8
ENCAIXE
10
262.0000
20
214.5000
30
0.0
11
262.0000
21
199.5000
31
0.0
0
LINE
8
ENCAIXE
10
122.0000
20
199.5000
30
0.0
11
152.0000
21
199.5000
31
0.0
0
LINE
8
ENCAIXE
10
152.0000
20
199.5000
30
0.0
11
152.0000
21
214.5000
31
0.0
0
LINE
8
ENCAIXE
10
152.0000
20
214.5000
30
0.0
11
122.0000
21
214.5000
31
0.0
0
LINE
8
ENCAIXE
10
122.0000
20
214.5000
30
0.0
11
122.0000
21
199.5000
31
0.0
0
LINE
8
ENCAIXE
10
199.5000
20
262.0000
30
0.0
11
214.5000
21
262.0000
31
0.0
0
LINE
8
ENCAIXE
10
214.5000
20
262.0000
30
0.0
11
214.5000
21
292.0000
31
0.0
0
LINE
8
ENCAIXE
10
214.5000
20
292.0000
30
0.0
11
199.5000
21
292.0000
31
0.0
0
LINE
8
ENCAIXE
10
199.5000
20
292.0000
30
0.0
11
199.5000
21
262.0000
31
0.0
0
LINE
8
ENCAIXE
10
199.5000
20
122.0000
30
0.0
11
214.5000
21
122.0000
31
0.0
0
LINE
8
ENCAIXE
10
214.5000
20
122.0000
30
0.0
11
214.5000
21
152.0000
31
0.0
0
LINE
8
ENCAIXE
10
214.5000
20
152.0000
30
0.0
11
199.5000
21
152.0000
31
0.0
0
LINE
8
ENCAIXE
10
199.5000
20
152.0000
30
0.0
11
199.5000
21
122.0000
31
0.0
0
CIRCLE
8
PERIMETRO
10
614.0000
20
207.0000
30
0.0
40
200.0000
0
LINE
8
ENCAIXE
10
669.0000
20
199.5000
30
0.0
11
699.0000
21
199.5000
31
0.0
0
LINE
8
ENCAIXE
10
699.0000
20
199.5000
30
0.0
11
699.0000
21
214.5000
31
0.0
0
LINE
8
ENCAIXE
10
699.0000
20
214.5000
30
0.0
11
669.0000
21
214.5000
31
0.0
0
LINE
8
ENCAIXE
10
669.0000
20
214.5000
30
0.0
11
669.0000
21
199.5000
31
0.0
0
LINE
8
ENCAIXE
10
529.0000
20
199.5000
30
0.0
11
559.0000
21
199.5000
31
0.0
0
LINE
8
ENCAIXE
10
559.0000
20
199.5000
30
0.0
11
559.0000
21
214.5000
31
0.0
0
LINE
8
ENCAIXE
10
559.0000
20
214.5000
30
0.0
11
529.0000
21
214.5000
31
0.0
0
LINE
8
ENCAIXE
10
529.0000
20
214.5000
30
0.0
11
529.0000
21
199.5000
31
0.0
0
LINE
8
ENCAIXE
10
606.5000
20
262.0000
30
0.0
11
621.5000
21
262.0000
31
0.0
0
LINE
8
ENCAIXE
10
621.5000
20
262.0000
30
0.0
11
621.5000
21
292.0000
31
0.0
0
LINE
8
ENCAIXE
10
621.5000
20
292.0000
30
0.0
11
606.5000
21
292.0000
31
0.0
0
LINE
8
ENCAIXE
10
606.5000
20
292.0000
30
0.0
11
606.5000
21
262.0000
31
0.0
0
LINE
8
ENCAIXE
10
606.5000
20
122.0000
30
0.0
11
621.5000
21
122.0000
31
0.0
0
LINE
8
ENCAIXE
10
621.5000
20
122.0000
30
0.0
11
621.5000
21
152.0000
31
0.0
0
LINE
8
ENCAIXE
10
621.5000
20
152.0000
30
0.0
11
606.5000
21
152.0000
31
0.0
0
LINE
8
ENCAIXE
10
606.5000
20
152.0000
30
0.0
11
606.5000
21
122.0000
31
0.0
0
LINE
8
PERIMETRO
10
821.0000
20
22.0000
30
0.0
11
831.0000
21
22.0000
31
0.0
0
LINE
8
PERIMETRO
10
831.0000
20
22.0000
30
0.0
11
831.0000
21
7.0000
31
0.0
0
LINE
8
PERIMETRO
10
831.0000
20
7.0000
30
0.0
11
861.0000
21
7.0000
31
0.0
0
LINE
8
PERIMETRO
10
861.0000
20
7.0000
30
0.0
11
861.0000
21
22.0000
31
0.0
0
LINE
8
PERIMETRO
10
861.0000
20
22.0000
30
0.0
11
871.0000
21
22.0000
31
0.0
0
LINE
8
PERIMETRO
10
871.0000
20
22.0000
30
0.0
11
871.0000
21
492.0000
31
0.0
0
LINE
8
PERIMETRO
10
871.0000
20
492.0000
30
0.0
11
861.0000
21
492.0000
31
0.0
0
LINE
8
PERIMETRO
10
861.0000
20
492.0000
30
0.0
11
861.0000
21
507.0000
31
0.0
0
LINE
8
PERIMETRO
10
861.0000
20
507.0000
30
0.0
11
831.0000
21
507.0000
31
0.0
0
LINE
8
PERIMETRO
10
831.0000
20
507.0000
30
0.0
11
831.0000
21
492.0000
31
0.0
0
LINE
8
PERIMETRO
10
831.0000
20
492.0000
30
0.0
11
821.0000
21
492.0000
31
0.0
0
LINE
8
PERIMETRO
10
821.0000
20
492.0000
30
0.0
11
821.0000
21
22.0000
31
0.0
0
CIRCLE
8
PERIMETRO
10
831.0000
20
22.0000
30
0.0
40
3.0000
0
CIRCLE
8
PERIMETRO
10
861.0000
20
22.0000
30
0.0
40
3.0000
0
CIRCLE
8
PERIMETRO
10
861.0000
20
492.0000
30
0.0
40
3.0000
0
CIRCLE
8
PERIMETRO
10
831.0000
20
492.0000
30
0.0
40
3.0000
0
LINE
8
PERIMETRO
10
878.0000
20
22.0000
30
0.0
11
888.0000
21
22.0000
31
0.0
0
LINE
8
PERIMETRO
10
888.0000
20
22.0000
30
0.0
11
888.0000
21
7.0000
31
0.0
0
LINE
8
PERIMETRO
10
888.0000
20
7.0000
30
0.0
11
918.0000
21
7.0000
31
0.0
0
LINE
8
PERIMETRO
10
918.0000
20
7.0000
30
0.0
11
918.0000
21
22.0000
31
0.0
0
LINE
8
PERIMETRO
10
918.0000
20
22.0000
30
0.0
11
928.0000
21
22.0000
31
0.0
0
LINE
8
PERIMETRO
10
928.0000
20
22.0000
30
0.0
11
928.0000
21
492.0000
31
0.0
0
LINE
8
PERIMETRO
10
928.0000
20
492.0000
30
0.0
11
918.0000
21
492.0000
31
0.0
0
LINE
8
PERIMETRO
10
918.0000
20
492.0000
30
0.0
11
918.0000
21
507.0000
31
0.0
0
LINE
8
PERIMETRO
10
918.0000
20
507.0000
30
0.0
11
888.0000
21
507.0000
31
0.0
0
LINE
8
PERIMETRO
10
888.0000
20
507.0000
30
0.0
11
888.0000
21
492.0000
31
0.0
0
LINE
8
PERIMETRO
10
888.0000
20
492.0000
30
0.0
11
878.0000
21
492.0000
31
0.0
0
LINE
8
PERIMETRO
10
878.0000
20
492.0000
30
0.0
11
878.0000
21
22.0000
31
0.0
0
CIRCLE
8
PERIMETRO
10
888.0000
20
22.0000
30
0.0
40
3.0000
0
CIRCLE
8
PERIMETRO
10
918.0000
20
22.0000
30
0.0
40
3.0000
0
CIRCLE
8
PERIMETRO
10
918.0000
20
492.0000
30
0.0
40
3.0000
0
CIRCLE
8
PERIMETRO
10
888.0000
20
492.0000
30
0.0
40
3.0000
0
LINE
8
PERIMETRO
10
935.0000
20
22.0000
30
0.0
11
945.0000
21
22.0000
31
0.0
0
LINE
8
PERIMETRO
10
945.0000
20
22.0000
30
0.0
11
945.0000
21
7.0000
31
0.0
0
LINE
8
PERIMETRO
10
945.0000
20
7.0000
30
0.0
11
975.0000
21
7.0000
31
0.0
0
LINE
8
PERIMETRO
10
975.0000
20
7.0000
30
0.0
11
975.0000
21
22.0000
31
0.0
0
LINE
8
PERIMETRO
10
975.0000
20
22.0000
30
0.0
11
985.0000
21
22.0000
31
0.0
0
LINE
8
PERIMETRO
10
985.0000
20
22.0000
30
0.0
11
985.0000
21
492.0000
31
0.0
0
LINE
8
PERIMETRO
10
985.0000
20
492.0000
30
0.0
11
975.0000
21
492.0000
31
0.0
0
LINE
8
PERIMETRO
10
975.0000
20
492.0000
30
0.0
11
975.0000
21
507.0000
31
0.0
0
LINE
8
PERIMETRO
10
975.0000
20
507.0000
30
0.0
11
945.0000
21
507.0000
31
0.0
0
LINE
8
PERIMETRO
10
945.0000
20
507.0000
30
0.0
11
945.0000
21
492.0000
31
0.0
0
LINE
8
PERIMETRO
10
945.0000
20
492.0000
30
0.0
11
935.0000
21
492.0000
31
0.0
0
LINE
8
PERIMETRO
10
935.0000
20
492.0000
30
0.0
11
935.0000
21
22.0000
31
0.0
0
CIRCLE
8
PERIMETRO
10
945.0000
20
22.0000
30
0.0
40
3.0000
0
CIRCLE
8
PERIMETRO
10
975.0000
20
22.0000
30
0.0
40
3.0000
0
CIRCLE
8
PERIMETRO
10
975.0000
20
492.0000
30
0.0
40
3.0000
0
CIRCLE
8
PERIMETRO
10
945.0000
20
492.0000
30
0.0
40
3.0000
0
LINE
8
PERIMETRO
10
992.0000
20
22.0000
30
0.0
11
1002.0000
21
22.0000
31
0.0
0
LINE
8
PERIMETRO
10
1002.0000
20
22.0000
30
0.0
11
1002.0000
21
7.0000
31
0.0
0
LINE
8
PERIMETRO
10
1002.0000
20
7.0000
30
0.0
11
1032.0000
21
7.0000
31
0.0
0
LINE
8
PERIMETRO
10
1032.0000
20
7.0000
30
0.0
11
1032.0000
21
22.0000
31
0.0
0
LINE
8
PERIMETRO
10
1032.0000
20
22.0000
30
0.0
11
1042.0000
21
22.0000
31
0.0
0
LINE
8
PERIMETRO
10
1042.0000
20
22.0000
30
0.0
11
1042.0000
21
492.0000
31
0.0
0
LINE
8
PERIMETRO
10
1042.0000
20
492.0000
30
0.0
11
1032.0000
21
492.0000
31
0.0
0
LINE
8
PERIMETRO
10
1032.0000
20
492.0000
30
0.0
11
1032.0000
21
507.0000
31
0.0
0
LINE
8
PERIMETRO
10
1032.0000
20
507.0000
30
0.0
11
1002.0000
21
507.0000
31
0.0
0
LINE
8
PERIMETRO
10
1002.0000
20
507.0000
30
0.0
11
1002.0000
21
492.0000
31
0.0
0
LINE
8
PERIMETRO
10
1002.0000
20
492.0000
30
0.0
11
992.0000
21
492.0000
31
0.0
0
LINE
8
PERIMETRO
10
992.0000
20
492.0000
30
0.0
11
992.0000
21
22.0000
31
0.0
0
CIRCLE
8
PERIMETRO
10
1002.0000
20
22.0000
30
0.0
40
3.0000
0
CIRCLE
8
PERIMETRO
10
1032.0000
20
22.0000
30
0.0
40
3.0000
0
CIRCLE
8
PERIMETRO
10
1032.0000
20
492.0000
30
0.0
40
3.0000
0
CIRCLE
8
PERIMETRO
10
1002.0000
20
492.0000
30
0.0
40
3.0000
0
LINE
8
PERIMETRO
10
7.0000
20
524.0000
30
0.0
11
1263.6371
21
524.0000
31
0.0
0
LINE
8
PERIMETRO
10
1263.6371
20
524.0000
30
0.0
11
1263.6371
21
1024.0000
31
0.0
0
LINE
8
PERIMETRO
10
1263.6371
20
1024.0000
30
0.0
11
7.0000
21
1024.0000
31
0.0
0
LINE
8
PERIMETRO
10
7.0000
20
1024.0000
30
0.0
11
7.0000
21
524.0000
31
0.0
0
LINE
8
RANHURAS
10
11.3185
20
1034.0000
30
0.0
11
11.3185
21
514.0000
31
0.0
0
LINE
8
RANHURAS
10
11.3185
20
514.0000
30
0.0
11
23.3185
21
514.0000
31
0.0
0
LINE
8
RANHURAS
10
23.3185
20
514.0000
30
0.0
11
23.3185
21
1034.0000
31
0.0
0
LINE
8
RANHURAS
10
23.3185
20
1034.0000
30
0.0
11
35.3185
21
1034.0000
31
0.0
0
LINE
8
RANHURAS
10
35.3185
20
1034.0000
30
0.0
11
35.3185
21
514.0000
31
0.0
0
LINE
8
RANHURAS
10
35.3185
20
514.0000
30
0.0
11
47.3185
21
514.0000
31
0.0
0
LINE
8
RANHURAS
10
47.3185
20
514.0000
30
0.0
11
47.3185
21
1034.0000
31
0.0
0
LINE
8
RANHURAS
10
47.3185
20
1034.0000
30
0.0
11
59.3185
21
1034.0000
31
0.0
0
LINE
8
RANHURAS
10
59.3185
20
1034.0000
30
0.0
11
59.3185
21
514.0000
31
0.0
0
LINE
8
RANHURAS
10
59.3185
20
514.0000
30
0.0
11
71.3185
21
514.0000
31
0.0
0
LINE
8
RANHURAS
10
71.3185
20
514.0000
30
0.0
11
71.3185
21
1034.0000
31
0.0
0
LINE
8
RANHURAS
10
71.3185
20
1034.0000
30
0.0
11
83.3185
21
1034.0000
31
0.0
0
LINE
8
RANHURAS
10
83.3185
20
1034.0000
30
0.0
11
83.3185
21
514.0000
31
0.0
0
LINE
8
RANHURAS
10
83.3185
20
514.0000
30
0.0
11
95.3185
21
514.0000
31
0.0
0
LINE
8
RANHURAS
10
95.3185
20
514.0000
30
0.0
11
95.3185
21
1034.0000
31
0.0
0
LINE
8
RANHURAS
10
95.3185
20
1034.0000
30
0.0
11
107.3185
21
1034.0000
31
0.0
0
LINE
8
RANHURAS
10
107.3185
20
1034.0000
30
0.0
11
107.3185
21
514.0000
31
0.0
0
LINE
8
RANHURAS
10
107.3185
20
514.0000
30
0.0
11
119.3185
21
514.0000
31
0.0
0
LINE
8
RANHURAS
10
119.3185
20
514.0000
30
0.0
11
119.3185
21
1034.0000
31
0.0
0
LINE
8
RANHURAS
10
119.3185
20
1034.0000
30
0.0
11
131.3185
21
1034.0000
31
0.0
0
LINE
8
RANHURAS
10
131.3185
20
1034.0000
30
0.0
11
131.3185
21
514.0000
31
0.0
0
LINE
8
RANHURAS
10
131.3185
20
514.0000
30
0.0
11
143.3185
21
514.0000
31
0.0
0
LINE
8
RANHURAS
10
143.3185
20
514.0000
30
0.0
11
143.3185
21
1034.0000
31
0.0
0
LINE
8
RANHURAS
10
143.3185
20
1034.0000
30
0.0
11
155.3185
21
1034.0000
31
0.0
0
LINE
8
RANHURAS
10
155.3185
20
1034.0000
30
0.0
11
155.3185
21
514.0000
31
0.0
0
LINE
8
RANHURAS
10
155.3185
20
514.0000
30
0.0
11
167.3185
21
514.0000
31
0.0
0
LINE
8
RANHURAS
10
167.3185
20
514.0000
30
0.0
11
167.3185
21
1034.0000
31
0.0
0
LINE
8
RANHURAS
10
167.3185
20
1034.0000
30
0.0
11
179.3185
21
1034.0000
31
0.0
0
LINE
8
RANHURAS
10
179.3185
20
1034.0000
30
0.0
11
179.3185
21
514.0000
31
0.0
0
LINE
8
RANHURAS
10
179.3185
20
514.0000
30
0.0
11
191.3185
21
514.0000
31
0.0
0
LINE
8
RANHURAS
10
191.3185
20
514.0000
30
0.0
11
191.3185
21
1034.0000
31
0.0
0
LINE
8
RANHURAS
10
191.3185
20
1034.0000
30
0.0
11
203.3185
21
1034.0000
31
0.0
0
LINE
8
RANHURAS
10
203.3185
20
1034.0000
30
0.0
11
203.3185
21
514.0000
31
0.0
0
LINE
8
RANHURAS
10
203.3185
20
514.0000
30
0.0
11
215.3185
21
514.0000
31
0.0
0
LINE
8
RANHURAS
10
215.3185
20
514.0000
30
0.0
11
215.3185
21
1034.0000
31
0.0
0
LINE
8
RANHURAS
10
215.3185
20
1034.0000
30
0.0
11
227.3185
21
1034.0000
31
0.0
0
LINE
8
RANHURAS
10
227.3185
20
1034.0000
30
0.0
11
227.3185
21
514.0000
31
0.0
0
LINE
8
RANHURAS
10
227.3185
20
514.0000
30
0.0
11
239.3185
21
514.0000
31
0.0
0
LINE
8
RANHURAS
10
239.3185
20
514.0000
30
0.0
11
239.3185
21
1034.0000
31
0.0
0
LINE
8
RANHURAS
10
239.3185
20
1034.0000
30
0.0
11
251.3185
21
1034.0000
31
0.0
0
LINE
8
RANHURAS
10
251.3185
20
1034.0000
30
0.0
11
251.3185
21
514.0000
31
0.0
0
LINE
8
RANHURAS
10
251.3185
20
514.0000
30
0.0
11
263.3185
21
514.0000
31
0.0
0
LINE
8
RANHURAS
10
263.3185
20
514.0000
30
0.0
11
263.3185
21
1034.0000
31
0.0
0
LINE
8
RANHURAS
10
263.3185
20
1034.0000
30
0.0
11
275.3185
21
1034.0000
31
0.0
0
LINE
8
RANHURAS
10
275.3185
20
1034.0000
30
0.0
11
275.3185
21
514.0000
31
0.0
0
LINE
8
RANHURAS
10
275.3185
20
514.0000
30
0.0
11
287.3185
21
514.0000
31
0.0
0
LINE
8
RANHURAS
10
287.3185
20
514.0000
30
0.0
11
287.3185
21
1034.0000
31
0.0
0
LINE
8
RANHURAS
10
287.3185
20
1034.0000
30
0.0
11
299.3185
21
1034.0000
31
0.0
0
LINE
8
RANHURAS
10
299.3185
20
1034.0000
30
0.0
11
299.3185
21
514.0000
31
0.0
0
LINE
8
RANHURAS
10
299.3185
20
514.0000
30
0.0
11
311.3185
21
514.0000
31
0.0
0
LINE
8
RANHURAS
10
311.3185
20
514.0000
30
0.0
11
311.3185
21
1034.0000
31
0.0
0
LINE
8
RANHURAS
10
311.3185
20
1034.0000
30
0.0
11
323.3185
21
1034.0000
31
0.0
0
LINE
8
RANHURAS
10
323.3185
20
1034.0000
30
0.0
11
323.3185
21
514.0000
31
0.0
0
LINE
8
RANHURAS
10
323.3185
20
514.0000
30
0.0
11
335.3185
21
514.0000
31
0.0
0
LINE
8
RANHURAS
10
335.3185
20
514.0000
30
0.0
11
335.3185
21
1034.0000
31
0.0
0
LINE
8
RANHURAS
10
335.3185
20
1034.0000
30
0.0
11
347.3185
21
1034.0000
31
0.0
0
LINE
8
RANHURAS
10
347.3185
20
1034.0000
30
0.0
11
347.3185
21
514.0000
31
0.0
0
LINE
8
RANHURAS
10
347.3185
20
514.0000
30
0.0
11
359.3185
21
514.0000
31
0.0
0
LINE
8
RANHURAS
10
359.3185
20
514.0000
30
0.0
11
359.3185
21
1034.0000
31
0.0
0
LINE
8
RANHURAS
10
359.3185
20
1034.0000
30
0.0
11
371.3185
21
1034.0000
31
0.0
0
LINE
8
RANHURAS
10
371.3185
20
1034.0000
30
0.0
11
371.3185
21
514.0000
31
0.0
0
LINE
8
RANHURAS
10
371.3185
20
514.0000
30
0.0
11
383.3185
21
514.0000
31
0.0
0
LINE
8
RANHURAS
10
383.3185
20
514.0000
30
0.0
11
383.3185
21
1034.0000
31
0.0
0
LINE
8
RANHURAS
10
383.3185
20
1034.0000
30
0.0
11
395.3185
21
1034.0000
31
0.0
0
LINE
8
RANHURAS
10
395.3185
20
1034.0000
30
0.0
11
395.3185
21
514.0000
31
0.0
0
LINE
8
RANHURAS
10
395.3185
20
514.0000
30
0.0
11
407.3185
21
514.0000
31
0.0
0
LINE
8
RANHURAS
10
407.3185
20
514.0000
30
0.0
11
407.3185
21
1034.0000
31
0.0
0
LINE
8
RANHURAS
10
407.3185
20
1034.0000
30
0.0
11
419.3185
21
1034.0000
31
0.0
0
LINE
8
RANHURAS
10
419.3185
20
1034.0000
30
0.0
11
419.3185
21
514.0000
31
0.0
0
LINE
8
RANHURAS
10
419.3185
20
514.0000
30
0.0
11
431.3185
21
514.0000
31
0.0
0
LINE
8
RANHURAS
10
431.3185
20
514.0000
30
0.0
11
431.3185
21
1034.0000
31
0.0
0
LINE
8
RANHURAS
10
431.3185
20
1034.0000
30
0.0
11
443.3185
21
1034.0000
31
0.0
0
LINE
8
RANHURAS
10
443.3185
20
1034.0000
30
0.0
11
443.3185
21
514.0000
31
0.0
0
LINE
8
RANHURAS
10
443.3185
20
514.0000
30
0.0
11
455.3185
21
514.0000
31
0.0
0
LINE
8
RANHURAS
10
455.3185
20
514.0000
30
0.0
11
455.3185
21
1034.0000
31
0.0
0
LINE
8
RANHURAS
10
455.3185
20
1034.0000
30
0.0
11
467.3185
21
1034.0000
31
0.0
0
LINE
8
RANHURAS
10
467.3185
20
1034.0000
30
0.0
11
467.3185
21
514.0000
31
0.0
0
LINE
8
RANHURAS
10
467.3185
20
514.0000
30
0.0
11
479.3185
21
514.0000
31
0.0
0
LINE
8
RANHURAS
10
479.3185
20
514.0000
30
0.0
11
479.3185
21
1034.0000
31
0.0
0
LINE
8
RANHURAS
10
479.3185
20
1034.0000
30
0.0
11
491.3185
21
1034.0000
31
0.0
0
LINE
8
RANHURAS
10
491.3185
20
1034.0000
30
0.0
11
491.3185
21
514.0000
31
0.0
0
LINE
8
RANHURAS
10
491.3185
20
514.0000
30
0.0
11
503.3185
21
514.0000
31
0.0
0
LINE
8
RANHURAS
10
503.3185
20
514.0000
30
0.0
11
503.3185
21
1034.0000
31
0.0
0
LINE
8
RANHURAS
10
503.3185
20
1034.0000
30
0.0
11
515.3185
21
1034.0000
31
0.0
0
LINE
8
RANHURAS
10
515.3185
20
1034.0000
30
0.0
11
515.3185
21
514.0000
31
0.0
0
LINE
8
RANHURAS
10
515.3185
20
514.0000
30
0.0
11
527.3185
21
514.0000
31
0.0
0
LINE
8
RANHURAS
10
527.3185
20
514.0000
30
0.0
11
527.3185
21
1034.0000
31
0.0
0
LINE
8
RANHURAS
10
527.3185
20
1034.0000
30
0.0
11
539.3185
21
1034.0000
31
0.0
0
LINE
8
RANHURAS
10
539.3185
20
1034.0000
30
0.0
11
539.3185
21
514.0000
31
0.0
0
LINE
8
RANHURAS
10
539.3185
20
514.0000
30
0.0
11
551.3185
21
514.0000
31
0.0
0
LINE
8
RANHURAS
10
551.3185
20
514.0000
30
0.0
11
551.3185
21
1034.0000
31
0.0
0
LINE
8
RANHURAS
10
551.3185
20
1034.0000
30
0.0
11
563.3185
21
1034.0000
31
0.0
0
LINE
8
RANHURAS
10
563.3185
20
1034.0000
30
0.0
11
563.3185
21
514.0000
31
0.0
0
LINE
8
RANHURAS
10
563.3185
20
514.0000
30
0.0
11
575.3185
21
514.0000
31
0.0
0
LINE
8
RANHURAS
10
575.3185
20
514.0000
30
0.0
11
575.3185
21
1034.0000
31
0.0
0
LINE
8
RANHURAS
10
575.3185
20
1034.0000
30
0.0
11
587.3185
21
1034.0000
31
0.0
0
LINE
8
RANHURAS
10
587.3185
20
1034.0000
30
0.0
11
587.3185
21
514.0000
31
0.0
0
LINE
8
RANHURAS
10
587.3185
20
514.0000
30
0.0
11
599.3185
21
514.0000
31
0.0
0
LINE
8
RANHURAS
10
599.3185
20
514.0000
30
0.0
11
599.3185
21
1034.0000
31
0.0
0
LINE
8
RANHURAS
10
599.3185
20
1034.0000
30
0.0
11
611.3185
21
1034.0000
31
0.0
0
LINE
8
RANHURAS
10
611.3185
20
1034.0000
30
0.0
11
611.3185
21
514.0000
31
0.0
0
LINE
8
RANHURAS
10
611.3185
20
514.0000
30
0.0
11
623.3185
21
514.0000
31
0.0
0
LINE
8
RANHURAS
10
623.3185
20
514.0000
30
0.0
11
623.3185
21
1034.0000
31
0.0
0
LINE
8
RANHURAS
10
623.3185
20
1034.0000
30
0.0
11
635.3185
21
1034.0000
31
0.0
0
LINE
8
RANHURAS
10
635.3185
20
1034.0000
30
0.0
11
635.3185
21
514.0000
31
0.0
0
LINE
8
RANHURAS
10
635.3185
20
514.0000
30
0.0
11
647.3185
21
514.0000
31
0.0
0
LINE
8
RANHURAS
10
647.3185
20
514.0000
30
0.0
11
647.3185
21
1034.0000
31
0.0
0
LINE
8
RANHURAS
10
647.3185
20
1034.0000
30
0.0
11
659.3185
21
1034.0000
31
0.0
0
LINE
8
RANHURAS
10
659.3185
20
1034.0000
30
0.0
11
659.3185
21
514.0000
31
0.0
0
LINE
8
RANHURAS
10
659.3185
20
514.0000
30
0.0
11
671.3185
21
514.0000
31
0.0
0
LINE
8
RANHURAS
10
671.3185
20
514.0000
30
0.0
11
671.3185
21
1034.0000
31
0.0
0
LINE
8
RANHURAS
10
671.3185
20
1034.0000
30
0.0
11
683.3185
21
1034.0000
31
0.0
0
LINE
8
RANHURAS
10
683.3185
20
1034.0000
30
0.0
11
683.3185
21
514.0000
31
0.0
0
LINE
8
RANHURAS
10
683.3185
20
514.0000
30
0.0
11
695.3185
21
514.0000
31
0.0
0
LINE
8
RANHURAS
10
695.3185
20
514.0000
30
0.0
11
695.3185
21
1034.0000
31
0.0
0
LINE
8
RANHURAS
10
695.3185
20
1034.0000
30
0.0
11
707.3185
21
1034.0000
31
0.0
0
LINE
8
RANHURAS
10
707.3185
20
1034.0000
30
0.0
11
707.3185
21
514.0000
31
0.0
0
LINE
8
RANHURAS
10
707.3185
20
514.0000
30
0.0
11
719.3185
21
514.0000
31
0.0
0
LINE
8
RANHURAS
10
719.3185
20
514.0000
30
0.0
11
719.3185
21
1034.0000
31
0.0
0
LINE
8
RANHURAS
10
719.3185
20
1034.0000
30
0.0
11
731.3185
21
1034.0000
31
0.0
0
LINE
8
RANHURAS
10
731.3185
20
1034.0000
30
0.0
11
731.3185
21
514.0000
31
0.0
0
LINE
8
RANHURAS
10
731.3185
20
514.0000
30
0.0
11
743.3185
21
514.0000
31
0.0
0
LINE
8
RANHURAS
10
743.3185
20
514.0000
30
0.0
11
743.3185
21
1034.0000
31
0.0
0
LINE
8
RANHURAS
10
743.3185
20
1034.0000
30
0.0
11
755.3185
21
1034.0000
31
0.0
0
LINE
8
RANHURAS
10
755.3185
20
1034.0000
30
0.0
11
755.3185
21
514.0000
31
0.0
0
LINE
8
RANHURAS
10
755.3185
20
514.0000
30
0.0
11
767.3185
21
514.0000
31
0.0
0
LINE
8
RANHURAS
10
767.3185
20
514.0000
30
0.0
11
767.3185
21
1034.0000
31
0.0
0
LINE
8
RANHURAS
10
767.3185
20
1034.0000
30
0.0
11
779.3185
21
1034.0000
31
0.0
0
LINE
8
RANHURAS
10
779.3185
20
1034.0000
30
0.0
11
779.3185
21
514.0000
31
0.0
0
LINE
8
RANHURAS
10
779.3185
20
514.0000
30
0.0
11
791.3185
21
514.0000
31
0.0
0
LINE
8
RANHURAS
10
791.3185
20
514.0000
30
0.0
11
791.3185
21
1034.0000
31
0.0
0
LINE
8
RANHURAS
10
791.3185
20
1034.0000
30
0.0
11
803.3185
21
1034.0000
31
0.0
0
LINE
8
RANHURAS
10
803.3185
20
1034.0000
30
0.0
11
803.3185
21
514.0000
31
0.0
0
LINE
8
RANHURAS
10
803.3185
20
514.0000
30
0.0
11
815.3185
21
514.0000
31
0.0
0
LINE
8
RANHURAS
10
815.3185
20
514.0000
30
0.0
11
815.3185
21
1034.0000
31
0.0
0
LINE
8
RANHURAS
10
815.3185
20
1034.0000
30
0.0
11
827.3185
21
1034.0000
31
0.0
0
LINE
8
RANHURAS
10
827.3185
20
1034.0000
30
0.0
11
827.3185
21
514.0000
31
0.0
0
LINE
8
RANHURAS
10
827.3185
20
514.0000
30
0.0
11
839.3185
21
514.0000
31
0.0
0
LINE
8
RANHURAS
10
839.3185
20
514.0000
30
0.0
11
839.3185
21
1034.0000
31
0.0
0
LINE
8
RANHURAS
10
839.3185
20
1034.0000
30
0.0
11
851.3185
21
1034.0000
31
0.0
0
LINE
8
RANHURAS
10
851.3185
20
1034.0000
30
0.0
11
851.3185
21
514.0000
31
0.0
0
LINE
8
RANHURAS
10
851.3185
20
514.0000
30
0.0
11
863.3185
21
514.0000
31
0.0
0
LINE
8
RANHURAS
10
863.3185
20
514.0000
30
0.0
11
863.3185
21
1034.0000
31
0.0
0
LINE
8
RANHURAS
10
863.3185
20
1034.0000
30
0.0
11
875.3185
21
1034.0000
31
0.0
0
LINE
8
RANHURAS
10
875.3185
20
1034.0000
30
0.0
11
875.3185
21
514.0000
31
0.0
0
LINE
8
RANHURAS
10
875.3185
20
514.0000
30
0.0
11
887.3185
21
514.0000
31
0.0
0
LINE
8
RANHURAS
10
887.3185
20
514.0000
30
0.0
11
887.3185
21
1034.0000
31
0.0
0
LINE
8
RANHURAS
10
887.3185
20
1034.0000
30
0.0
11
899.3185
21
1034.0000
31
0.0
0
LINE
8
RANHURAS
10
899.3185
20
1034.0000
30
0.0
11
899.3185
21
514.0000
31
0.0
0
LINE
8
RANHURAS
10
899.3185
20
514.0000
30
0.0
11
911.3185
21
514.0000
31
0.0
0
LINE
8
RANHURAS
10
911.3185
20
514.0000
30
0.0
11
911.3185
21
1034.0000
31
0.0
0
LINE
8
RANHURAS
10
911.3185
20
1034.0000
30
0.0
11
923.3185
21
1034.0000
31
0.0
0
LINE
8
RANHURAS
10
923.3185
20
1034.0000
30
0.0
11
923.3185
21
514.0000
31
0.0
0
LINE
8
RANHURAS
10
923.3185
20
514.0000
30
0.0
11
935.3185
21
514.0000
31
0.0
0
LINE
8
RANHURAS
10
935.3185
20
514.0000
30
0.0
11
935.3185
21
1034.0000
31
0.0
0
LINE
8
RANHURAS
10
935.3185
20
1034.0000
30
0.0
11
947.3185
21
1034.0000
31
0.0
0
LINE
8
RANHURAS
10
947.3185
20
1034.0000
30
0.0
11
947.3185
21
514.0000
31
0.0
0
LINE
8
RANHURAS
10
947.3185
20
514.0000
30
0.0
11
959.3185
21
514.0000
31
0.0
0
LINE
8
RANHURAS
10
959.3185
20
514.0000
30
0.0
11
959.3185
21
1034.0000
31
0.0
0
LINE
8
RANHURAS
10
959.3185
20
1034.0000
30
0.0
11
971.3185
21
1034.0000
31
0.0
0
LINE
8
RANHURAS
10
971.3185
20
1034.0000
30
0.0
11
971.3185
21
514.0000
31
0.0
0
LINE
8
RANHURAS
10
971.3185
20
514.0000
30
0.0
11
983.3185
21
514.0000
31
0.0
0
LINE
8
RANHURAS
10
983.3185
20
514.0000
30
0.0
11
983.3185
21
1034.0000
31
0.0
0
LINE
8
RANHURAS
10
983.3185
20
1034.0000
30
0.0
11
995.3185
21
1034.0000
31
0.0
0
LINE
8
RANHURAS
10
995.3185
20
1034.0000
30
0.0
11
995.3185
21
514.0000
31
0.0
0
LINE
8
RANHURAS
10
995.3185
20
514.0000
30
0.0
11
1007.3185
21
514.0000
31
0.0
0
LINE
8
RANHURAS
10
1007.3185
20
514.0000
30
0.0
11
1007.3185
21
1034.0000
31
0.0
0
LINE
8
RANHURAS
10
1007.3185
20
1034.0000
30
0.0
11
1019.3185
21
1034.0000
31
0.0
0
LINE
8
RANHURAS
10
1019.3185
20
1034.0000
30
0.0
11
1019.3185
21
514.0000
31
0.0
0
LINE
8
RANHURAS
10
1019.3185
20
514.0000
30
0.0
11
1031.3185
21
514.0000
31
0.0
0
LINE
8
RANHURAS
10
1031.3185
20
514.0000
30
0.0
11
1031.3185
21
1034.0000
31
0.0
0
LINE
8
RANHURAS
10
1031.3185
20
1034.0000
30
0.0
11
1043.3185
21
1034.0000
31
0.0
0
LINE
8
RANHURAS
10
1043.3185
20
1034.0000
30
0.0
11
1043.3185
21
514.0000
31
0.0
0
LINE
8
RANHURAS
10
1043.3185
20
514.0000
30
0.0
11
1055.3185
21
514.0000
31
0.0
0
LINE
8
RANHURAS
10
1055.3185
20
514.0000
30
0.0
11
1055.3185
21
1034.0000
31
0.0
0
LINE
8
RANHURAS
10
1055.3185
20
1034.0000
30
0.0
11
1067.3185
21
1034.0000
31
0.0
0
LINE
8
RANHURAS
10
1067.3185
20
1034.0000
30
0.0
11
1067.3185
21
514.0000
31
0.0
0
LINE
8
RANHURAS
10
1067.3185
20
514.0000
30
0.0
11
1079.3185
21
514.0000
31
0.0
0
LINE
8
RANHURAS
10
1079.3185
20
514.0000
30
0.0
11
1079.3185
21
1034.0000
31
0.0
0
LINE
8
RANHURAS
10
1079.3185
20
1034.0000
30
0.0
11
1091.3185
21
1034.0000
31
0.0
0
LINE
8
RANHURAS
10
1091.3185
20
1034.0000
30
0.0
11
1091.3185
21
514.0000
31
0.0
0
LINE
8
RANHURAS
10
1091.3185
20
514.0000
30
0.0
11
1103.3185
21
514.0000
31
0.0
0
LINE
8
RANHURAS
10
1103.3185
20
514.0000
30
0.0
11
1103.3185
21
1034.0000
31
0.0
0
LINE
8
RANHURAS
10
1103.3185
20
1034.0000
30
0.0
11
1115.3185
21
1034.0000
31
0.0
0
LINE
8
RANHURAS
10
1115.3185
20
1034.0000
30
0.0
11
1115.3185
21
514.0000
31
0.0
0
LINE
8
RANHURAS
10
1115.3185
20
514.0000
30
0.0
11
1127.3185
21
514.0000
31
0.0
0
LINE
8
RANHURAS
10
1127.3185
20
514.0000
30
0.0
11
1127.3185
21
1034.0000
31
0.0
0
LINE
8
RANHURAS
10
1127.3185
20
1034.0000
30
0.0
11
1139.3185
21
1034.0000
31
0.0
0
LINE
8
RANHURAS
10
1139.3185
20
1034.0000
30
0.0
11
1139.3185
21
514.0000
31
0.0
0
LINE
8
RANHURAS
10
1139.3185
20
514.0000
30
0.0
11
1151.3185
21
514.0000
31
0.0
0
LINE
8
RANHURAS
10
1151.3185
20
514.0000
30
0.0
11
1151.3185
21
1034.0000
31
0.0
0
LINE
8
RANHURAS
10
1151.3185
20
1034.0000
30
0.0
11
1163.3185
21
1034.0000
31
0.0
0
LINE
8
RANHURAS
10
1163.3185
20
1034.0000
30
0.0
11
1163.3185
21
514.0000
31
0.0
0
LINE
8
RANHURAS
10
1163.3185
20
514.0000
30
0.0
11
1175.3185
21
514.0000
31
0.0
0
LINE
8
RANHURAS
10
1175.3185
20
514.0000
30
0.0
11
1175.3185
21
1034.0000
31
0.0
0
LINE
8
RANHURAS
10
1175.3185
20
1034.0000
30
0.0
11
1187.3185
21
1034.0000
31
0.0
0
LINE
8
RANHURAS
10
1187.3185
20
1034.0000
30
0.0
11
1187.3185
21
514.0000
31
0.0
0
LINE
8
RANHURAS
10
1187.3185
20
514.0000
30
0.0
11
1199.3185
21
514.0000
31
0.0
0
LINE
8
RANHURAS
10
1199.3185
20
514.0000
30
0.0
11
1199.3185
21
1034.0000
31
0.0
0
LINE
8
RANHURAS
10
1199.3185
20
1034.0000
30
0.0
11
1211.3185
21
1034.0000
31
0.0
0
LINE
8
RANHURAS
10
1211.3185
20
1034.0000
30
0.0
11
1211.3185
21
514.0000
31
0.0
0
LINE
8
RANHURAS
10
1211.3185
20
514.0000
30
0.0
11
1223.3185
21
514.0000
31
0.0
0
LINE
8
RANHURAS
10
1223.3185
20
514.0000
30
0.0
11
1223.3185
21
1034.0000
31
0.0
0
LINE
8
RANHURAS
10
1223.3185
20
1034.0000
30
0.0
11
1235.3185
21
1034.0000
31
0.0
0
LINE
8
RANHURAS
10
1235.3185
20
1034.0000
30
0.0
11
1235.3185
21
514.0000
31
0.0
0
LINE
8
RANHURAS
10
1235.3185
20
514.0000
30
0.0
11
1247.3185
21
514.0000
31
0.0
0
LINE
8
RANHURAS
10
1247.3185
20
514.0000
30
0.0
11
1247.3185
21
1034.0000
31
0.0
0
LINE
8
RANHURAS
10
1247.3185
20
1034.0000
30
0.0
11
1259.3185
21
1034.0000
31
0.0
0
LINE
8
RANHURAS
10
1259.3185
20
1034.0000
30
0.0
11
1259.3185
21
514.0000
31
0.0
0
ENDSEC
0
EOF
