0
SECTION
2
HEADER
9
$INSUNITS
70
4
0
ENDSEC
0
SECTION
2
TABLES
0
TABLE
2
LAYER
70
3
0
LAYER
2
PERIMETRO
70
0
62
7
6
CONTINUOUS
0
LAYER
2
ENCAIXE
70
0
62
3
6
CONTINUOUS
0
LAYER
2
RANHURAS
70
0
62
1
6
CONTINUOUS
0
ENDTAB
0
ENDSEC
0
SECTION
2
ENTITIES
0
LINE
8
PERIMETRO
10
10.0000
20
10.0000
30
0.0
11
1266.6371
21
10.0000
31
0.0
0
LINE
8
PERIMETRO
10
1266.6371
20
10.0000
30
0.0
11
1266.6371
21
510.0000
31
0.0
0
LINE
8
PERIMETRO
10
1266.6371
20
510.0000
30
0.0
11
10.0000
21
510.0000
31
0.0
0
LINE
8
PERIMETRO
10
10.0000
20
510.0000
30
0.0
11
10.0000
21
10.0000
31
0.0
0
LINE
8
RANHURAS
10
14.3185
20
10.0000
30
0.0
11
14.3185
21
510.0000
31
0.0
0
LINE
8
RANHURAS
10
26.3185
20
10.0000
30
0.0
11
26.3185
21
510.0000
31
0.0
0
LINE
8
RANHURAS
10
38.3185
20
10.0000
30
0.0
11
38.3185
21
510.0000
31
0.0
0
LINE
8
RANHURAS
10
50.3185
20
10.0000
30
0.0
11
50.3185
21
510.0000
31
0.0
0
LINE
8
RANHURAS
10
62.3185
20
10.0000
30
0.0
11
62.3185
21
510.0000
31
0.0
0
LINE
8
RANHURAS
10
74.3185
20
10.0000
30
0.0
11
74.3185
21
510.0000
31
0.0
0
LINE
8
RANHURAS
10
86.3185
20
10.0000
30
0.0
11
86.3185
21
510.0000
31
0.0
0
LINE
8
RANHURAS
10
98.3185
20
10.0000
30
0.0
11
98.3185
21
510.0000
31
0.0
0
LINE
8
RANHURAS
10
110.3185
20
10.0000
30
0.0
11
110.3185
21
510.0000
31
0.0
0
LINE
8
RANHURAS
10
122.3185
20
10.0000
30
0.0
11
122.3185
21
510.0000
31
0.0
0
LINE
8
RANHURAS
10
134.3185
20
10.0000
30
0.0
11
134.3185
21
510.0000
31
0.0
0
LINE
8
RANHURAS
10
146.3185
20
10.0000
30
0.0
11
146.3185
21
510.0000
31
0.0
0
LINE
8
RANHURAS
10
158.3185
20
10.0000
30
0.0
11
158.3185
21
510.0000
31
0.0
0
LINE
8
RANHURAS
10
170.3185
20
10.0000
30
0.0
11
170.3185
21
510.0000
31
0.0
0
LINE
8
RANHURAS
10
182.3185
20
10.0000
30
0.0
11
182.3185
21
510.0000
31
0.0
0
LINE
8
RANHURAS
10
194.3185
20
10.0000
30
0.0
11
194.3185
21
510.0000
31
0.0
0
LINE
8
RANHURAS
10
206.3185
20
10.0000
30
0.0
11
206.3185
21
510.0000
31
0.0
0
LINE
8
RANHURAS
10
218.3185
20
10.0000
30
0.0
11
218.3185
21
510.0000
31
0.0
0
LINE
8
RANHURAS
10
230.3185
20
10.0000
30
0.0
11
230.3185
21
510.0000
31
0.0
0
LINE
8
RANHURAS
10
242.3185
20
10.0000
30
0.0
11
242.3185
21
510.0000
31
0.0
0
LINE
8
RANHURAS
10
254.3185
20
10.0000
30
0.0
11
254.3185
21
510.0000
31
0.0
0
LINE
8
RANHURAS
10
266.3185
20
10.0000
30
0.0
11
266.3185
21
510.0000
31
0.0
0
LINE
8
RANHURAS
10
278.3185
20
10.0000
30
0.0
11
278.3185
21
510.0000
31
0.0
0
LINE
8
RANHURAS
10
290.3185
20
10.0000
30
0.0
11
290.3185
21
510.0000
31
0.0
0
LINE
8
RANHURAS
10
302.3185
20
10.0000
30
0.0
11
302.3185
21
510.0000
31
0.0
0
LINE
8
RANHURAS
10
314.3185
20
10.0000
30
0.0
11
314.3185
21
510.0000
31
0.0
0
LINE
8
RANHURAS
10
326.3185
20
10.0000
30
0.0
11
326.3185
21
510.0000
31
0.0
0
LINE
8
RANHURAS
10
338.3185
20
10.0000
30
0.0
11
338.3185
21
510.0000
31
0.0
0
LINE
8
RANHURAS
10
350.3185
20
10.0000
30
0.0
11
350.3185
21
510.0000
31
0.0
0
LINE
8
RANHURAS
10
362.3185
20
10.0000
30
0.0
11
362.3185
21
510.0000
31
0.0
0
LINE
8
RANHURAS
10
374.3185
20
10.0000
30
0.0
11
374.3185
21
510.0000
31
0.0
0
LINE
8
RANHURAS
10
386.3185
20
10.0000
30
0.0
11
386.3185
21
510.0000
31
0.0
0
LINE
8
RANHURAS
10
398.3185
20
10.0000
30
0.0
11
398.3185
21
510.0000
31
0.0
0
LINE
8
RANHURAS
10
410.3185
20
10.0000
30
0.0
11
410.3185
21
510.0000
31
0.0
0
LINE
8
RANHURAS
10
422.3185
20
10.0000
30
0.0
11
422.3185
21
510.0000
31
0.0
0
LINE
8
RANHURAS
10
434.3185
20
10.0000
30
0.0
11
434.3185
21
510.0000
31
0.0
0
LINE
8
RANHURAS
10
446.3185
20
10.0000
30
0.0
11
446.3185
21
510.0000
31
0.0
0
LINE
8
RANHURAS
10
458.3185
20
10.0000
30
0.0
11
458.3185
21
510.0000
31
0.0
0
LINE
8
RANHURAS
10
470.3185
20
10.0000
30
0.0
11
470.3185
21
510.0000
31
0.0
0
LINE
8
RANHURAS
10
482.3185
20
10.0000
30
0.0
11
482.3185
21
510.0000
31
0.0
0
LINE
8
RANHURAS
10
494.3185
20
10.0000
30
0.0
11
494.3185
21
510.0000
31
0.0
0
LINE
8
RANHURAS
10
506.3185
20
10.0000
30
0.0
11
506.3185
21
510.0000
31
0.0
0
LINE
8
RANHURAS
10
518.3185
20
10.0000
30
0.0
11
518.3185
21
510.0000
31
0.0
0
LINE
8
RANHURAS
10
530.3185
20
10.0000
30
0.0
11
530.3185
21
510.0000
31
0.0
0
LINE
8
RANHURAS
10
542.3185
20
10.0000
30
0.0
11
542.3185
21
510.0000
31
0.0
0
LINE
8
RANHURAS
10
554.3185
20
10.0000
30
0.0
11
554.3185
21
510.0000
31
0.0
0
LINE
8
RANHURAS
10
566.3185
20
10.0000
30
0.0
11
566.3185
21
510.0000
31
0.0
0
LINE
8
RANHURAS
10
578.3185
20
10.0000
30
0.0
11
578.3185
21
510.0000
31
0.0
0
LINE
8
RANHURAS
10
590.3185
20
10.0000
30
0.0
11
590.3185
21
510.0000
31
0.0
0
LINE
8
RANHURAS
10
602.3185
20
10.0000
30
0.0
11
602.3185
21
510.0000
31
0.0
0
LINE
8
RANHURAS
10
614.3185
20
10.0000
30
0.0
11
614.3185
21
510.0000
31
0.0
0
LINE
8
RANHURAS
10
626.3185
20
10.0000
30
0.0
11
626.3185
21
510.0000
31
0.0
0
LINE
8
RANHURAS
10
638.3185
20
10.0000
30
0.0
11
638.3185
21
510.0000
31
0.0
0
LINE
8
RANHURAS
10
650.3185
20
10.0000
30
0.0
11
650.3185
21
510.0000
31
0.0
0
LINE
8
RANHURAS
10
662.3185
20
10.0000
30
0.0
11
662.3185
21
510.0000
31
0.0
0
LINE
8
RANHURAS
10
674.3185
20
10.0000
30
0.0
11
674.3185
21
510.0000
31
0.0
0
LINE
8
RANHURAS
10
686.3185
20
10.0000
30
0.0
11
686.3185
21
510.0000
31
0.0
0
LINE
8
RANHURAS
10
698.3185
20
10.0000
30
0.0
11
698.3185
21
510.0000
31
0.0
0
LINE
8
RANHURAS
10
710.3185
20
10.0000
30
0.0
11
710.3185
21
510.0000
31
0.0
0
LINE
8
RANHURAS
10
722.3185
20
10.0000
30
0.0
11
722.3185
21
510.0000
31
0.0
0
LINE
8
RANHURAS
10
734.3185
20
10.0000
30
0.0
11
734.3185
21
510.0000
31
0.0
0
LINE
8
RANHURAS
10
746.3185
20
10.0000
30
0.0
11
746.3185
21
510.0000
31
0.0
0
LINE
8
RANHURAS
10
758.3185
20
10.0000
30
0.0
11
758.3185
21
510.0000
31
0.0
0
LINE
8
RANHURAS
10
770.3185
20
10.0000
30
0.0
11
770.3185
21
510.0000
31
0.0
0
LINE
8
RANHURAS
10
782.3185
20
10.0000
30
0.0
11
782.3185
21
510.0000
31
0.0
0
LINE
8
RANHURAS
10
794.3185
20
10.0000
30
0.0
11
794.3185
21
510.0000
31
0.0
0
LINE
8
RANHURAS
10
806.3185
20
10.0000
30
0.0
11
806.3185
21
510.0000
31
0.0
0
LINE
8
RANHURAS
10
818.3185
20
10.0000
30
0.0
11
818.3185
21
510.0000
31
0.0
0
LINE
8
RANHURAS
10
830.3185
20
10.0000
30
0.0
11
830.3185
21
510.0000
31
0.0
0
LINE
8
RANHURAS
10
842.3185
20
10.0000
30
0.0
11
842.3185
21
510.0000
31
0.0
0
LINE
8
RANHURAS
10
854.3185
20
10.0000
30
0.0
11
854.3185
21
510.0000
31
0.0
0
LINE
8
RANHURAS
10
866.3185
20
10.0000
30
0.0
11
866.3185
21
510.0000
31
0.0
0
LINE
8
RANHURAS
10
878.3185
20
10.0000
30
0.0
11
878.3185
21
510.0000
31
0.0
0
LINE
8
RANHURAS
10
890.3185
20
10.0000
30
0.0
11
890.3185
21
510.0000
31
0.0
0
LINE
8
RANHURAS
10
902.3185
20
10.0000
30
0.0
11
902.3185
21
510.0000
31
0.0
0
LINE
8
RANHURAS
10
914.3185
20
10.0000
30
0.0
11
914.3185
21
510.0000
31
0.0
0
LINE
8
RANHURAS
10
926.3185
20
10.0000
30
0.0
11
926.3185
21
510.0000
31
0.0
0
LINE
8
RANHURAS
10
938.3185
20
10.0000
30
0.0
11
938.3185
21
510.0000
31
0.0
0
LINE
8
RANHURAS
10
950.3185
20
10.0000
30
0.0
11
950.3185
21
510.0000
31
0.0
0
LINE
8
RANHURAS
10
962.3185
20
10.0000
30
0.0
11
962.3185
21
510.0000
31
0.0
0
LINE
8
RANHURAS
10
974.3185
20
10.0000
30
0.0
11
974.3185
21
510.0000
31
0.0
0
LINE
8
RANHURAS
10
986.3185
20
10.0000
30
0.0
11
986.3185
21
510.0000
31
0.0
0
LINE
8
RANHURAS
10
998.3185
20
10.0000
30
0.0
11
998.3185
21
510.0000
31
0.0
0
LINE
8
RANHURAS
10
1010.3185
20
10.0000
30
0.0
11
1010.3185
21
510.0000
31
0.0
0
LINE
8
RANHURAS
10
1022.3185
20
10.0000
30
0.0
11
1022.3185
21
510.0000
31
0.0
0
LINE
8
RANHURAS
10
1034.3185
20
10.0000
30
0.0
11
1034.3185
21
510.0000
31
0.0
0
LINE
8
RANHURAS
10
1046.3185
20
10.0000
30
0.0
11
1046.3185
21
510.0000
31
0.0
0
LINE
8
RANHURAS
10
1058.3185
20
10.0000
30
0.0
11
1058.3185
21
510.0000
31
0.0
0
LINE
8
RANHURAS
10
1070.3185
20
10.0000
30
0.0
11
1070.3185
21
510.0000
31
0.0
0
LINE
8
RANHURAS
10
1082.3185
20
10.0000
30
0.0
11
1082.3185
21
510.0000
31
0.0
0
LINE
8
RANHURAS
10
1094.3185
20
10.0000
30
0.0
11
1094.3185
21
510.0000
31
0.0
0
LINE
8
RANHURAS
10
1106.3185
20
10.0000
30
0.0
11
1106.3185
21
510.0000
31
0.0
0
LINE
8
RANHURAS
10
1118.3185
20
10.0000
30
0.0
11
1118.3185
21
510.0000
31
0.0
0
LINE
8
RANHURAS
10
1130.3185
20
10.0000
30
0.0
11
1130.3185
21
510.0000
31
0.0
0
LINE
8
RANHURAS
10
1142.3185
20
10.0000
30
0.0
11
1142.3185
21
510.0000
31
0.0
0
LINE
8
RANHURAS
10
1154.3185
20
10.0000
30
0.0
11
1154.3185
21
510.0000
31
0.0
0
LINE
8
RANHURAS
10
1166.3185
20
10.0000
30
0.0
11
1166.3185
21
510.0000
31
0.0
0
LINE
8
RANHURAS
10
1178.3185
20
10.0000
30
0.0
11
1178.3185
21
510.0000
31
0.0
0
LINE
8
RANHURAS
10
1190.3185
20
10.0000
30
0.0
11
1190.3185
21
510.0000
31
0.0
0
LINE
8
RANHURAS
10
1202.3185
20
10.0000
30
0.0
11
1202.3185
21
510.0000
31
0.0
0
LINE
8
RANHURAS
10
1214.3185
20
10.0000
30
0.0
11
1214.3185
21
510.0000
31
0.0
0
LINE
8
RANHURAS
10
1226.3185
20
10.0000
30
0.0
11
1226.3185
21
510.0000
31
0.0
0
LINE
8
RANHURAS
10
1238.3185
20
10.0000
30
0.0
11
1238.3185
21
510.0000
31
0.0
0
LINE
8
RANHURAS
10
1250.3185
20
10.0000
30
0.0
11
1250.3185
21
510.0000
31
0.0
0
LINE
8
RANHURAS
10
1262.3185
20
10.0000
30
0.0
11
1262.3185
21
510.0000
31
0.0
0
LINE
8
PERIMETRO
10
1273.6371
20
25.0000
30
0.0
11
1283.6371
21
25.0000
31
0.0
0
LINE
8
PERIMETRO
10
1283.6371
20
25.0000
30
0.0
11
1283.6371
21
10.0000
31
0.0
0
LINE
8
PERIMETRO
10
1283.6371
20
10.0000
30
0.0
11
1313.6371
21
10.0000
31
0.0
0
LINE
8
PERIMETRO
10
1313.6371
20
10.0000
30
0.0
11
1313.6371
21
25.0000
31
0.0
0
LINE
8
PERIMETRO
10
1313.6371
20
25.0000
30
0.0
11
1323.6371
21
25.0000
31
0.0
0
LINE
8
PERIMETRO
10
1323.6371
20
25.0000
30
0.0
11
1323.6371
21
495.0000
31
0.0
0
LINE
8
PERIMETRO
10
1323.6371
20
495.0000
30
0.0
11
1313.6371
21
495.0000
31
0.0
0
LINE
8
PERIMETRO
10
1313.6371
20
495.0000
30
0.0
11
1313.6371
21
510.0000
31
0.0
0
LINE
8
PERIMETRO
10
1313.6371
20
510.0000
30
0.0
11
1283.6371
21
510.0000
31
0.0
0
LINE
8
PERIMETRO
10
1283.6371
20
510.0000
30
0.0
11
1283.6371
21
495.0000
31
0.0
0
LINE
8
PERIMETRO
10
1283.6371
20
495.0000
30
0.0
11
1273.6371
21
495.0000
31
0.0
0
LINE
8
PERIMETRO
10
1273.6371
20
495.0000
30
0.0
11
1273.6371
21
25.0000
31
0.0
0
LINE
8
PERIMETRO
10
1330.6371
20
25.0000
30
0.0
11
1340.6371
21
25.0000
31
0.0
0
LINE
8
PERIMETRO
10
1340.6371
20
25.0000
30
0.0
11
1340.6371
21
10.0000
31
0.0
0
LINE
8
PERIMETRO
10
1340.6371
20
10.0000
30
0.0
11
1370.6371
21
10.0000
31
0.0
0
LINE
8
PERIMETRO
10
1370.6371
20
10.0000
30
0.0
11
1370.6371
21
25.0000
31
0.0
0
LINE
8
PERIMETRO
10
1370.6371
20
25.0000
30
0.0
11
1380.6371
21
25.0000
31
0.0
0
LINE
8
PERIMETRO
10
1380.6371
20
25.0000
30
0.0
11
1380.6371
21
495.0000
31
0.0
0
LINE
8
PERIMETRO
10
1380.6371
20
495.0000
30
0.0
11
1370.6371
21
495.0000
31
0.0
0
LINE
8
PERIMETRO
10
1370.6371
20
495.0000
30
0.0
11
1370.6371
21
510.0000
31
0.0
0
LINE
8
PERIMETRO
10
1370.6371
20
510.0000
30
0.0
11
1340.6371
21
510.0000
31
0.0
0
LINE
8
PERIMETRO
10
1340.6371
20
510.0000
30
0.0
11
1340.6371
21
495.0000
31
0.0
0
LINE
8
PERIMETRO
10
1340.6371
20
495.0000
30
0.0
11
1330.6371
21
495.0000
31
0.0
0
LINE
8
PERIMETRO
10
1330.6371
20
495.0000
30
0.0
11
1330.6371
21
25.0000
31
0.0
0
LINE
8
PERIMETRO
10
1387.6371
20
25.0000
30
0.0
11
1397.6371
21
25.0000
31
0.0
0
LINE
8
PERIMETRO
10
1397.6371
20
25.0000
30
0.0
11
1397.6371
21
10.0000
31
0.0
0
LINE
8
PERIMETRO
10
1397.6371
20
10.0000
30
0.0
11
1427.6371
21
10.0000
31
0.0
0
LINE
8
PERIMETRO
10
1427.6371
20
10.0000
30
0.0
11
1427.6371
21
25.0000
31
0.0
0
LINE
8
PERIMETRO
10
1427.6371
20
25.0000
30
0.0
11
1437.6371
21
25.0000
31
0.0
0
LINE
8
PERIMETRO
10
1437.6371
20
25.0000
30
0.0
11
1437.6371
21
495.0000
31
0.0
0
LINE
8
PERIMETRO
10
1437.6371
20
495.0000
30
0.0
11
1427.6371
21
495.0000
31
0.0
0
LINE
8
PERIMETRO
10
1427.6371
20
495.0000
30
0.0
11
1427.6371
21
510.0000
31
0.0
0
LINE
8
PERIMETRO
10
1427.6371
20
510.0000
30
0.0
11
1397.6371
21
510.0000
31
0.0
0
LINE
8
PERIMETRO
10
1397.6371
20
510.0000
30
0.0
11
1397.6371
21
495.0000
31
0.0
0
LINE
8
PERIMETRO
10
1397.6371
20
495.0000
30
0.0
11
1387.6371
21
495.0000
31
0.0
0
LINE
8
PERIMETRO
10
1387.6371
20
495.0000
30
0.0
11
1387.6371
21
25.0000
31
0.0
0
LINE
8
PERIMETRO
10
1444.6371
20
25.0000
30
0.0
11
1454.6371
21
25.0000
31
0.0
0
LINE
8
PERIMETRO
10
1454.6371
20
25.0000
30
0.0
11
1454.6371
21
10.0000
31
0.0
0
LINE
8
PERIMETRO
10
1454.6371
20
10.0000
30
0.0
11
1484.6371
21
10.0000
31
0.0
0
LINE
8
PERIMETRO
10
1484.6371
20
10.0000
30
0.0
11
1484.6371
21
25.0000
31
0.0
0
LINE
8
PERIMETRO
10
1484.6371
20
25.0000
30
0.0
11
1494.6371
21
25.0000
31
0.0
0
LINE
8
PERIMETRO
10
1494.6371
20
25.0000
30
0.0
11
1494.6371
21
495.0000
31
0.0
0
LINE
8
PERIMETRO
10
1494.6371
20
495.0000
30
0.0
11
1484.6371
21
495.0000
31
0.0
0
LINE
8
PERIMETRO
10
1484.6371
20
495.0000
30
0.0
11
1484.6371
21
510.0000
31
0.0
0
LINE
8
PERIMETRO
10
1484.6371
20
510.0000
30
0.0
11
1454.6371
21
510.0000
31
0.0
0
LINE
8
PERIMETRO
10
1454.6371
20
510.0000
30
0.0
11
1454.6371
21
495.0000
31
0.0
0
LINE
8
PERIMETRO
10
1454.6371
20
495.0000
30
0.0
11
1444.6371
21
495.0000
31
0.0
0
LINE
8
PERIMETRO
10
1444.6371
20
495.0000
30
0.0
11
1444.6371
21
25.0000
31
0.0
0
CIRCLE
8
PERIMETRO
10
210.0000
20
717.0000
30
0.0
40
200.0000
0
LINE
8
ENCAIXE
10
265.0000
20
709.5000
30
0.0
11
295.0000
21
709.5000
31
0.0
0
LINE
8
ENCAIXE
10
295.0000
20
709.5000
30
0.0
11
295.0000
21
724.5000
31
0.0
0
LINE
8
ENCAIXE
10
295.0000
20
724.5000
30
0.0
11
265.0000
21
724.5000
31
0.0
0
LINE
8
ENCAIXE
10
265.0000
20
724.5000
30
0.0
11
265.0000
21
709.5000
31
0.0
0
LINE
8
ENCAIXE
10
125.0000
20
709.5000
30
0.0
11
155.0000
21
709.5000
31
0.0
0
LINE
8
ENCAIXE
10
155.0000
20
709.5000
30
0.0
11
155.0000
21
724.5000
31
0.0
0
LINE
8
ENCAIXE
10
155.0000
20
724.5000
30
0.0
11
125.0000
21
724.5000
31
0.0
0
LINE
8
ENCAIXE
10
125.0000
20
724.5000
30
0.0
11
125.0000
21
709.5000
31
0.0
0
LINE
8
ENCAIXE
10
202.5000
20
772.0000
30
0.0
11
217.5000
21
772.0000
31
0.0
0
LINE
8
ENCAIXE
10
217.5000
20
772.0000
30
0.0
11
217.5000
21
802.0000
31
0.0
0
LINE
8
ENCAIXE
10
217.5000
20
802.0000
30
0.0
11
202.5000
21
802.0000
31
0.0
0
LINE
8
ENCAIXE
10
202.5000
20
802.0000
30
0.0
11
202.5000
21
772.0000
31
0.0
0
LINE
8
ENCAIXE
10
202.5000
20
632.0000
30
0.0
11
217.5000
21
632.0000
31
0.0
0
LINE
8
ENCAIXE
10
217.5000
20
632.0000
30
0.0
11
217.5000
21
662.0000
31
0.0
0
LINE
8
ENCAIXE
10
217.5000
20
662.0000
30
0.0
11
202.5000
21
662.0000
31
0.0
0
LINE
8
ENCAIXE
10
202.5000
20
662.0000
30
0.0
11
202.5000
21
632.0000
31
0.0
0
CIRCLE
8
PERIMETRO
10
617.0000
20
717.0000
30
0.0
40
200.0000
0
LINE
8
ENCAIXE
10
672.0000
20
709.5000
30
0.0
11
702.0000
21
709.5000
31
0.0
0
LINE
8
ENCAIXE
10
702.0000
20
709.5000
30
0.0
11
702.0000
21
724.5000
31
0.0
0
LINE
8
ENCAIXE
10
702.0000
20
724.5000
30
0.0
11
672.0000
21
724.5000
31
0.0
0
LINE
8
ENCAIXE
10
672.0000
20
724.5000
30
0.0
11
672.0000
21
709.5000
31
0.0
0
LINE
8
ENCAIXE
10
532.0000
20
709.5000
30
0.0
11
562.0000
21
709.5000
31
0.0
0
LINE
8
ENCAIXE
10
562.0000
20
709.5000
30
0.0
11
562.0000
21
724.5000
31
0.0
0
LINE
8
ENCAIXE
10
562.0000
20
724.5000
30
0.0
11
532.0000
21
724.5000
31
0.0
0
LINE
8
ENCAIXE
10
532.0000
20
724.5000
30
0.0
11
532.0000
21
709.5000
31
0.0
0
LINE
8
ENCAIXE
10
609.5000
20
772.0000
30
0.0
11
624.5000
21
772.0000
31
0.0
0
LINE
8
ENCAIXE
10
624.5000
20
772.0000
30
0.0
11
624.5000
21
802.0000
31
0.0
0
LINE
8
ENCAIXE
10
624.5000
20
802.0000
30
0.0
11
609.5000
21
802.0000
31
0.0
0
LINE
8
ENCAIXE
10
609.5000
20
802.0000
30
0.0
11
609.5000
21
772.0000
31
0.0
0
LINE
8
ENCAIXE
10
609.5000
20
632.0000
30
0.0
11
624.5000
21
632.0000
31
0.0
0
LINE
8
ENCAIXE
10
624.5000
20
632.0000
30
0.0
11
624.5000
21
662.0000
31
0.0
0
LINE
8
ENCAIXE
10
624.5000
20
662.0000
30
0.0
11
609.5000
21
662.0000
31
0.0
0
LINE
8
ENCAIXE
10
609.5000
20
662.0000
30
0.0
11
609.5000
21
632.0000
31
0.0
0
ENDSEC
0
EOF
