0
SECTION
2
HEADER
9
$INSUNITS
70
4
0
ENDSEC
0
SECTION
2
TABLES
0
TABLE
2
LAYER
70
2
0
LAYER
2
PERIMETRO
70
0
62
7
6
CONTINUOUS
0
LAYER
2
RANHURAS
70
0
62
1
6
CONTINUOUS
0
ENDTAB
0
ENDSEC
0
SECTION
2
ENTITIES
0
CIRCLE
8
PERIMETRO
10
300.0000
20
900.0000
30
0.0
40
200.0000
0
CIRCLE
8
PERIMETRO
10
800.0000
20
900.0000
30
0.0
40
200.0000
0
LINE
8
PERIMETRO
10
1100.0000
20
700.0000
30
0.0
11
1180.0000
21
700.0000
31
0.0
0
LINE
8
PERIMETRO
10
1180.0000
20
700.0000
30
0.0
11
1180.0000
21
1200.0000
31
0.0
0
LINE
8
PERIMETRO
10
1180.0000
20
1200.0000
30
0.0
11
1100.0000
21
1200.0000
31
0.0
0
LINE
8
PERIMETRO
10
1100.0000
20
1200.0000
30
0.0
11
1100.0000
21
700.0000
31
0.0
0
LINE
8
PERIMETRO
10
1220.0000
20
700.0000
30
0.0
11
1300.0000
21
700.0000
31
0.0
0
LINE
8
PERIMETRO
10
1300.0000
20
700.0000
30
0.0
11
1300.0000
21
1200.0000
31
0.0
0
LINE
8
PERIMETRO
10
1300.0000
20
1200.0000
30
0.0
11
1220.0000
21
1200.0000
31
0.0
0
LINE
8
PERIMETRO
10
1220.0000
20
1200.0000
30
0.0
11
1220.0000
21
700.0000
31
0.0
0
LINE
8
PERIMETRO
10
1340.0000
20
700.0000
30
0.0
11
1420.0000
21
700.0000
31
0.0
0
LINE
8
PERIMETRO
10
1420.0000
20
700.0000
30
0.0
11
1420.0000
21
1200.0000
31
0.0
0
LINE
8
PERIMETRO
10
1420.0000
20
1200.0000
30
0.0
11
1340.0000
21
1200.0000
31
0.0
0
LINE
8
PERIMETRO
10
1340.0000
20
1200.0000
30
0.0
11
1340.0000
21
700.0000
31
0.0
0
LINE
8
PERIMETRO
10
1460.0000
20
700.0000
30
0.0
11
1540.0000
21
700.0000
31
0.0
0
LINE
8
PERIMETRO
10
1540.0000
20
700.0000
30
0.0
11
1540.0000
21
1200.0000
31
0.0
0
LINE
8
PERIMETRO
10
1540.0000
20
1200.0000
30
0.0
11
1460.0000
21
1200.0000
31
0.0
0
LINE
8
PERIMETRO
10
1460.0000
20
1200.0000
30
0.0
11
1460.0000
21
700.0000
31
0.0
0
LINE
8
PERIMETRO
10
30.0000
20
30.0000
30
0.0
11
1286.6371
21
30.0000
31
0.0
0
LINE
8
PERIMETRO
10
1286.6371
20
30.0000
30
0.0
11
1286.6371
21
530.0000
31
0.0
0
LINE
8
PERIMETRO
10
1286.6371
20
530.0000
30
0.0
11
30.0000
21
530.0000
31
0.0
0
LINE
8
PERIMETRO
10
30.0000
20
530.0000
30
0.0
11
30.0000
21
30.0000
31
0.0
0
LINE
8
RANHURAS
10
34.3185
20
30.0000
30
0.0
11
34.3185
21
530.0000
31
0.0
0
LINE
8
RANHURAS
10
46.3185
20
30.0000
30
0.0
11
46.3185
21
530.0000
31
0.0
0
LINE
8
RANHURAS
10
58.3185
20
30.0000
30
0.0
11
58.3185
21
530.0000
31
0.0
0
LINE
8
RANHURAS
10
70.3185
20
30.0000
30
0.0
11
70.3185
21
530.0000
31
0.0
0
LINE
8
RANHURAS
10
82.3185
20
30.0000
30
0.0
11
82.3185
21
530.0000
31
0.0
0
LINE
8
RANHURAS
10
94.3185
20
30.0000
30
0.0
11
94.3185
21
530.0000
31
0.0
0
LINE
8
RANHURAS
10
106.3185
20
30.0000
30
0.0
11
106.3185
21
530.0000
31
0.0
0
LINE
8
RANHURAS
10
118.3185
20
30.0000
30
0.0
11
118.3185
21
530.0000
31
0.0
0
LINE
8
RANHURAS
10
130.3185
20
30.0000
30
0.0
11
130.3185
21
530.0000
31
0.0
0
LINE
8
RANHURAS
10
142.3185
20
30.0000
30
0.0
11
142.3185
21
530.0000
31
0.0
0
LINE
8
RANHURAS
10
154.3185
20
30.0000
30
0.0
11
154.3185
21
530.0000
31
0.0
0
LINE
8
RANHURAS
10
166.3185
20
30.0000
30
0.0
11
166.3185
21
530.0000
31
0.0
0
LINE
8
RANHURAS
10
178.3185
20
30.0000
30
0.0
11
178.3185
21
530.0000
31
0.0
0
LINE
8
RANHURAS
10
190.3185
20
30.0000
30
0.0
11
190.3185
21
530.0000
31
0.0
0
LINE
8
RANHURAS
10
202.3185
20
30.0000
30
0.0
11
202.3185
21
530.0000
31
0.0
0
LINE
8
RANHURAS
10
214.3185
20
30.0000
30
0.0
11
214.3185
21
530.0000
31
0.0
0
LINE
8
RANHURAS
10
226.3185
20
30.0000
30
0.0
11
226.3185
21
530.0000
31
0.0
0
LINE
8
RANHURAS
10
238.3185
20
30.0000
30
0.0
11
238.3185
21
530.0000
31
0.0
0
LINE
8
RANHURAS
10
250.3185
20
30.0000
30
0.0
11
250.3185
21
530.0000
31
0.0
0
LINE
8
RANHURAS
10
262.3185
20
30.0000
30
0.0
11
262.3185
21
530.0000
31
0.0
0
LINE
8
RANHURAS
10
274.3185
20
30.0000
30
0.0
11
274.3185
21
530.0000
31
0.0
0
LINE
8
RANHURAS
10
286.3185
20
30.0000
30
0.0
11
286.3185
21
530.0000
31
0.0
0
LINE
8
RANHURAS
10
298.3185
20
30.0000
30
0.0
11
298.3185
21
530.0000
31
0.0
0
LINE
8
RANHURAS
10
310.3185
20
30.0000
30
0.0
11
310.3185
21
530.0000
31
0.0
0
LINE
8
RANHURAS
10
322.3185
20
30.0000
30
0.0
11
322.3185
21
530.0000
31
0.0
0
LINE
8
RANHURAS
10
334.3185
20
30.0000
30
0.0
11
334.3185
21
530.0000
31
0.0
0
LINE
8
RANHURAS
10
346.3185
20
30.0000
30
0.0
11
346.3185
21
530.0000
31
0.0
0
LINE
8
RANHURAS
10
358.3185
20
30.0000
30
0.0
11
358.3185
21
530.0000
31
0.0
0
LINE
8
RANHURAS
10
370.3185
20
30.0000
30
0.0
11
370.3185
21
530.0000
31
0.0
0
LINE
8
RANHURAS
10
382.3185
20
30.0000
30
0.0
11
382.3185
21
530.0000
31
0.0
0
LINE
8
RANHURAS
10
394.3185
20
30.0000
30
0.0
11
394.3185
21
530.0000
31
0.0
0
LINE
8
RANHURAS
10
406.3185
20
30.0000
30
0.0
11
406.3185
21
530.0000
31
0.0
0
LINE
8
RANHURAS
10
418.3185
20
30.0000
30
0.0
11
418.3185
21
530.0000
31
0.0
0
LINE
8
RANHURAS
10
430.3185
20
30.0000
30
0.0
11
430.3185
21
530.0000
31
0.0
0
LINE
8
RANHURAS
10
442.3185
20
30.0000
30
0.0
11
442.3185
21
530.0000
31
0.0
0
LINE
8
RANHURAS
10
454.3185
20
30.0000
30
0.0
11
454.3185
21
530.0000
31
0.0
0
LINE
8
RANHURAS
10
466.3185
20
30.0000
30
0.0
11
466.3185
21
530.0000
31
0.0
0
LINE
8
RANHURAS
10
478.3185
20
30.0000
30
0.0
11
478.3185
21
530.0000
31
0.0
0
LINE
8
RANHURAS
10
490.3185
20
30.0000
30
0.0
11
490.3185
21
530.0000
31
0.0
0
LINE
8
RANHURAS
10
502.3185
20
30.0000
30
0.0
11
502.3185
21
530.0000
31
0.0
0
LINE
8
RANHURAS
10
514.3185
20
30.0000
30
0.0
11
514.3185
21
530.0000
31
0.0
0
LINE
8
RANHURAS
10
526.3185
20
30.0000
30
0.0
11
526.3185
21
530.0000
31
0.0
0
LINE
8
RANHURAS
10
538.3185
20
30.0000
30
0.0
11
538.3185
21
530.0000
31
0.0
0
LINE
8
RANHURAS
10
550.3185
20
30.0000
30
0.0
11
550.3185
21
530.0000
31
0.0
0
LINE
8
RANHURAS
10
562.3185
20
30.0000
30
0.0
11
562.3185
21
530.0000
31
0.0
0
LINE
8
RANHURAS
10
574.3185
20
30.0000
30
0.0
11
574.3185
21
530.0000
31
0.0
0
LINE
8
RANHURAS
10
586.3185
20
30.0000
30
0.0
11
586.3185
21
530.0000
31
0.0
0
LINE
8
RANHURAS
10
598.3185
20
30.0000
30
0.0
11
598.3185
21
530.0000
31
0.0
0
LINE
8
RANHURAS
10
610.3185
20
30.0000
30
0.0
11
610.3185
21
530.0000
31
0.0
0
LINE
8
RANHURAS
10
622.3185
20
30.0000
30
0.0
11
622.3185
21
530.0000
31
0.0
0
LINE
8
RANHURAS
10
634.3185
20
30.0000
30
0.0
11
634.3185
21
530.0000
31
0.0
0
LINE
8
RANHURAS
10
646.3185
20
30.0000
30
0.0
11
646.3185
21
530.0000
31
0.0
0
LINE
8
RANHURAS
10
658.3185
20
30.0000
30
0.0
11
658.3185
21
530.0000
31
0.0
0
LINE
8
RANHURAS
10
670.3185
20
30.0000
30
0.0
11
670.3185
21
530.0000
31
0.0
0
LINE
8
RANHURAS
10
682.3185
20
30.0000
30
0.0
11
682.3185
21
530.0000
31
0.0
0
LINE
8
RANHURAS
10
694.3185
20
30.0000
30
0.0
11
694.3185
21
530.0000
31
0.0
0
LINE
8
RANHURAS
10
706.3185
20
30.0000
30
0.0
11
706.3185
21
530.0000
31
0.0
0
LINE
8
RANHURAS
10
718.3185
20
30.0000
30
0.0
11
718.3185
21
530.0000
31
0.0
0
LINE
8
RANHURAS
10
730.3185
20
30.0000
30
0.0
11
730.3185
21
530.0000
31
0.0
0
LINE
8
RANHURAS
10
742.3185
20
30.0000
30
0.0
11
742.3185
21
530.0000
31
0.0
0
LINE
8
RANHURAS
10
754.3185
20
30.0000
30
0.0
11
754.3185
21
530.0000
31
0.0
0
LINE
8
RANHURAS
10
766.3185
20
30.0000
30
0.0
11
766.3185
21
530.0000
31
0.0
0
LINE
8
RANHURAS
10
778.3185
20
30.0000
30
0.0
11
778.3185
21
530.0000
31
0.0
0
LINE
8
RANHURAS
10
790.3185
20
30.0000
30
0.0
11
790.3185
21
530.0000
31
0.0
0
LINE
8
RANHURAS
10
802.3185
20
30.0000
30
0.0
11
802.3185
21
530.0000
31
0.0
0
LINE
8
RANHURAS
10
814.3185
20
30.0000
30
0.0
11
814.3185
21
530.0000
31
0.0
0
LINE
8
RANHURAS
10
826.3185
20
30.0000
30
0.0
11
826.3185
21
530.0000
31
0.0
0
LINE
8
RANHURAS
10
838.3185
20
30.0000
30
0.0
11
838.3185
21
530.0000
31
0.0
0
LINE
8
RANHURAS
10
850.3185
20
30.0000
30
0.0
11
850.3185
21
530.0000
31
0.0
0
LINE
8
RANHURAS
10
862.3185
20
30.0000
30
0.0
11
862.3185
21
530.0000
31
0.0
0
LINE
8
RANHURAS
10
874.3185
20
30.0000
30
0.0
11
874.3185
21
530.0000
31
0.0
0
LINE
8
RANHURAS
10
886.3185
20
30.0000
30
0.0
11
886.3185
21
530.0000
31
0.0
0
LINE
8
RANHURAS
10
898.3185
20
30.0000
30
0.0
11
898.3185
21
530.0000
31
0.0
0
LINE
8
RANHURAS
10
910.3185
20
30.0000
30
0.0
11
910.3185
21
530.0000
31
0.0
0
LINE
8
RANHURAS
10
922.3185
20
30.0000
30
0.0
11
922.3185
21
530.0000
31
0.0
0
LINE
8
RANHURAS
10
934.3185
20
30.0000
30
0.0
11
934.3185
21
530.0000
31
0.0
0
LINE
8
RANHURAS
10
946.3185
20
30.0000
30
0.0
11
946.3185
21
530.0000
31
0.0
0
LINE
8
RANHURAS
10
958.3185
20
30.0000
30
0.0
11
958.3185
21
530.0000
31
0.0
0
LINE
8
RANHURAS
10
970.3185
20
30.0000
30
0.0
11
970.3185
21
530.0000
31
0.0
0
LINE
8
RANHURAS
10
982.3185
20
30.0000
30
0.0
11
982.3185
21
530.0000
31
0.0
0
LINE
8
RANHURAS
10
994.3185
20
30.0000
30
0.0
11
994.3185
21
530.0000
31
0.0
0
LINE
8
RANHURAS
10
1006.3185
20
30.0000
30
0.0
11
1006.3185
21
530.0000
31
0.0
0
LINE
8
RANHURAS
10
1018.3185
20
30.0000
30
0.0
11
1018.3185
21
530.0000
31
0.0
0
LINE
8
RANHURAS
10
1030.3185
20
30.0000
30
0.0
11
1030.3185
21
530.0000
31
0.0
0
LINE
8
RANHURAS
10
1042.3185
20
30.0000
30
0.0
11
1042.3185
21
530.0000
31
0.0
0
LINE
8
RANHURAS
10
1054.3185
20
30.0000
30
0.0
11
1054.3185
21
530.0000
31
0.0
0
LINE
8
RANHURAS
10
1066.3185
20
30.0000
30
0.0
11
1066.3185
21
530.0000
31
0.0
0
LINE
8
RANHURAS
10
1078.3185
20
30.0000
30
0.0
11
1078.3185
21
530.0000
31
0.0
0
LINE
8
RANHURAS
10
1090.3185
20
30.0000
30
0.0
11
1090.3185
21
530.0000
31
0.0
0
LINE
8
RANHURAS
10
1102.3185
20
30.0000
30
0.0
11
1102.3185
21
530.0000
31
0.0
0
LINE
8
RANHURAS
10
1114.3185
20
30.0000
30
0.0
11
1114.3185
21
530.0000
31
0.0
0
LINE
8
RANHURAS
10
1126.3185
20
30.0000
30
0.0
11
1126.3185
21
530.0000
31
0.0
0
LINE
8
RANHURAS
10
1138.3185
20
30.0000
30
0.0
11
1138.3185
21
530.0000
31
0.0
0
LINE
8
RANHURAS
10
1150.3185
20
30.0000
30
0.0
11
1150.3185
21
530.0000
31
0.0
0
LINE
8
RANHURAS
10
1162.3185
20
30.0000
30
0.0
11
1162.3185
21
530.0000
31
0.0
0
LINE
8
RANHURAS
10
1174.3185
20
30.0000
30
0.0
11
1174.3185
21
530.0000
31
0.0
0
LINE
8
RANHURAS
10
1186.3185
20
30.0000
30
0.0
11
1186.3185
21
530.0000
31
0.0
0
LINE
8
RANHURAS
10
1198.3185
20
30.0000
30
0.0
11
1198.3185
21
530.0000
31
0.0
0
LINE
8
RANHURAS
10
1210.3185
20
30.0000
30
0.0
11
1210.3185
21
530.0000
31
0.0
0
LINE
8
RANHURAS
10
1222.3185
20
30.0000
30
0.0
11
1222.3185
21
530.0000
31
0.0
0
LINE
8
RANHURAS
10
1234.3185
20
30.0000
30
0.0
11
1234.3185
21
530.0000
31
0.0
0
LINE
8
RANHURAS
10
1246.3185
20
30.0000
30
0.0
11
1246.3185
21
530.0000
31
0.0
0
LINE
8
RANHURAS
10
1258.3185
20
30.0000
30
0.0
11
1258.3185
21
530.0000
31
0.0
0
LINE
8
RANHURAS
10
1270.3185
20
30.0000
30
0.0
11
1270.3185
21
530.0000
31
0.0
0
LINE
8
RANHURAS
10
1282.3185
20
30.0000
30
0.0
11
1282.3185
21
530.0000
31
0.0
0
ENDSEC
0
EOF
