0
SECTION
2
HEADER
9
$INSUNITS
70
4
0
ENDSEC
0
SECTION
2
TABLES
0
TABLE
2
LAYER
70
3
0
LAYER
2
PERIMETRO
70
0
62
7
6
CONTINUOUS
0
LAYER
2
RANHURAS
70
0
62
1
6
CONTINUOUS
0
LAYER
2
TEXTO
70
0
62
3
6
CONTINUOUS
0
ENDTAB
0
ENDSEC
0
SECTION
2
ENTITIES
0
CIRCLE
8
PERIMETRO
10
250.0000
20
250.0000
30
0.0
40
250.0000
0
TEXT
8
TEXTO
10
180.0000
20
250.0000
30
0.0
40
22.0000
1
TAMPO O500
0
CIRCLE
8
PERIMETRO
10
820.0000
20
250.0000
30
0.0
40
250.0000
0
TEXT
8
TEXTO
10
750.0000
20
250.0000
30
0.0
40
22.0000
1
BASE O500
0
LINE
8
PERIMETRO
10
0.0000
20
620.0000
30
0.0
11
1570.7963
21
620.0000
31
0.0
0
LINE
8
PERIMETRO
10
1570.7963
20
620.0000
30
0.0
11
1570.7963
21
1040.0000
31
0.0
0
LINE
8
PERIMETRO
10
1570.7963
20
1040.0000
30
0.0
11
0.0000
21
1040.0000
31
0.0
0
LINE
8
PERIMETRO
10
0.0000
20
1040.0000
30
0.0
11
0.0000
21
620.0000
31
0.0
0
TEXT
8
TEXTO
10
10.0000
20
1065.0000
30
0.0
40
22.0000
1
CINTA 1571 x 420  (vincos p/ dobrar em O500, pele 1mm)
0
POLYLINE
8
RANHURAS
66
1
70
0
0
VERTEX
8
RANHURAS
10
5.3982
20
1050.0000
30
0.0
0
VERTEX
8
RANHURAS
10
5.3982
20
610.0000
30
0.0
0
VERTEX
8
RANHURAS
10
17.3982
20
610.0000
30
0.0
0
VERTEX
8
RANHURAS
10
17.3982
20
1050.0000
30
0.0
0
VERTEX
8
RANHURAS
10
29.3982
20
1050.0000
30
0.0
0
VERTEX
8
RANHURAS
10
29.3982
20
610.0000
30
0.0
0
VERTEX
8
RANHURAS
10
41.3982
20
610.0000
30
0.0
0
VERTEX
8
RANHURAS
10
41.3982
20
1050.0000
30
0.0
0
VERTEX
8
RANHURAS
10
53.3982
20
1050.0000
30
0.0
0
VERTEX
8
RANHURAS
10
53.3982
20
610.0000
30
0.0
0
VERTEX
8
RANHURAS
10
65.3982
20
610.0000
30
0.0
0
VERTEX
8
RANHURAS
10
65.3982
20
1050.0000
30
0.0
0
VERTEX
8
RANHURAS
10
77.3982
20
1050.0000
30
0.0
0
VERTEX
8
RANHURAS
10
77.3982
20
610.0000
30
0.0
0
VERTEX
8
RANHURAS
10
89.3982
20
610.0000
30
0.0
0
VERTEX
8
RANHURAS
10
89.3982
20
1050.0000
30
0.0
0
VERTEX
8
RANHURAS
10
101.3982
20
1050.0000
30
0.0
0
VERTEX
8
RANHURAS
10
101.3982
20
610.0000
30
0.0
0
VERTEX
8
RANHURAS
10
113.3982
20
610.0000
30
0.0
0
VERTEX
8
RANHURAS
10
113.3982
20
1050.0000
30
0.0
0
VERTEX
8
RANHURAS
10
125.3982
20
1050.0000
30
0.0
0
VERTEX
8
RANHURAS
10
125.3982
20
610.0000
30
0.0
0
VERTEX
8
RANHURAS
10
137.3982
20
610.0000
30
0.0
0
VERTEX
8
RANHURAS
10
137.3982
20
1050.0000
30
0.0
0
VERTEX
8
RANHURAS
10
149.3982
20
1050.0000
30
0.0
0
VERTEX
8
RANHURAS
10
149.3982
20
610.0000
30
0.0
0
VERTEX
8
RANHURAS
10
161.3982
20
610.0000
30
0.0
0
VERTEX
8
RANHURAS
10
161.3982
20
1050.0000
30
0.0
0
VERTEX
8
RANHURAS
10
173.3982
20
1050.0000
30
0.0
0
VERTEX
8
RANHURAS
10
173.3982
20
610.0000
30
0.0
0
VERTEX
8
RANHURAS
10
185.3982
20
610.0000
30
0.0
0
VERTEX
8
RANHURAS
10
185.3982
20
1050.0000
30
0.0
0
VERTEX
8
RANHURAS
10
197.3982
20
1050.0000
30
0.0
0
VERTEX
8
RANHURAS
10
197.3982
20
610.0000
30
0.0
0
VERTEX
8
RANHURAS
10
209.3982
20
610.0000
30
0.0
0
VERTEX
8
RANHURAS
10
209.3982
20
1050.0000
30
0.0
0
VERTEX
8
RANHURAS
10
221.3982
20
1050.0000
30
0.0
0
VERTEX
8
RANHURAS
10
221.3982
20
610.0000
30
0.0
0
VERTEX
8
RANHURAS
10
233.3982
20
610.0000
30
0.0
0
VERTEX
8
RANHURAS
10
233.3982
20
1050.0000
30
0.0
0
VERTEX
8
RANHURAS
10
245.3982
20
1050.0000
30
0.0
0
VERTEX
8
RANHURAS
10
245.3982
20
610.0000
30
0.0
0
VERTEX
8
RANHURAS
10
257.3982
20
610.0000
30
0.0
0
VERTEX
8
RANHURAS
10
257.3982
20
1050.0000
30
0.0
0
VERTEX
8
RANHURAS
10
269.3982
20
1050.0000
30
0.0
0
VERTEX
8
RANHURAS
10
269.3982
20
610.0000
30
0.0
0
VERTEX
8
RANHURAS
10
281.3982
20
610.0000
30
0.0
0
VERTEX
8
RANHURAS
10
281.3982
20
1050.0000
30
0.0
0
VERTEX
8
RANHURAS
10
293.3982
20
1050.0000
30
0.0
0
VERTEX
8
RANHURAS
10
293.3982
20
610.0000
30
0.0
0
VERTEX
8
RANHURAS
10
305.3982
20
610.0000
30
0.0
0
VERTEX
8
RANHURAS
10
305.3982
20
1050.0000
30
0.0
0
VERTEX
8
RANHURAS
10
317.3982
20
1050.0000
30
0.0
0
VERTEX
8
RANHURAS
10
317.3982
20
610.0000
30
0.0
0
VERTEX
8
RANHURAS
10
329.3982
20
610.0000
30
0.0
0
VERTEX
8
RANHURAS
10
329.3982
20
1050.0000
30
0.0
0
VERTEX
8
RANHURAS
10
341.3982
20
1050.0000
30
0.0
0
VERTEX
8
RANHURAS
10
341.3982
20
610.0000
30
0.0
0
VERTEX
8
RANHURAS
10
353.3982
20
610.0000
30
0.0
0
VERTEX
8
RANHURAS
10
353.3982
20
1050.0000
30
0.0
0
VERTEX
8
RANHURAS
10
365.3982
20
1050.0000
30
0.0
0
VERTEX
8
RANHURAS
10
365.3982
20
610.0000
30
0.0
0
VERTEX
8
RANHURAS
10
377.3982
20
610.0000
30
0.0
0
VERTEX
8
RANHURAS
10
377.3982
20
1050.0000
30
0.0
0
VERTEX
8
RANHURAS
10
389.3982
20
1050.0000
30
0.0
0
VERTEX
8
RANHURAS
10
389.3982
20
610.0000
30
0.0
0
VERTEX
8
RANHURAS
10
401.3982
20
610.0000
30
0.0
0
VERTEX
8
RANHURAS
10
401.3982
20
1050.0000
30
0.0
0
VERTEX
8
RANHURAS
10
413.3982
20
1050.0000
30
0.0
0
VERTEX
8
RANHURAS
10
413.3982
20
610.0000
30
0.0
0
VERTEX
8
RANHURAS
10
425.3982
20
610.0000
30
0.0
0
VERTEX
8
RANHURAS
10
425.3982
20
1050.0000
30
0.0
0
VERTEX
8
RANHURAS
10
437.3982
20
1050.0000
30
0.0
0
VERTEX
8
RANHURAS
10
437.3982
20
610.0000
30
0.0
0
VERTEX
8
RANHURAS
10
449.3982
20
610.0000
30
0.0
0
VERTEX
8
RANHURAS
10
449.3982
20
1050.0000
30
0.0
0
VERTEX
8
RANHURAS
10
461.3982
20
1050.0000
30
0.0
0
VERTEX
8
RANHURAS
10
461.3982
20
610.0000
30
0.0
0
VERTEX
8
RANHURAS
10
473.3982
20
610.0000
30
0.0
0
VERTEX
8
RANHURAS
10
473.3982
20
1050.0000
30
0.0
0
VERTEX
8
RANHURAS
10
485.3982
20
1050.0000
30
0.0
0
VERTEX
8
RANHURAS
10
485.3982
20
610.0000
30
0.0
0
VERTEX
8
RANHURAS
10
497.3982
20
610.0000
30
0.0
0
VERTEX
8
RANHURAS
10
497.3982
20
1050.0000
30
0.0
0
VERTEX
8
RANHURAS
10
509.3982
20
1050.0000
30
0.0
0
VERTEX
8
RANHURAS
10
509.3982
20
610.0000
30
0.0
0
VERTEX
8
RANHURAS
10
521.3982
20
610.0000
30
0.0
0
VERTEX
8
RANHURAS
10
521.3982
20
1050.0000
30
0.0
0
VERTEX
8
RANHURAS
10
533.3982
20
1050.0000
30
0.0
0
VERTEX
8
RANHURAS
10
533.3982
20
610.0000
30
0.0
0
VERTEX
8
RANHURAS
10
545.3982
20
610.0000
30
0.0
0
VERTEX
8
RANHURAS
10
545.3982
20
1050.0000
30
0.0
0
VERTEX
8
RANHURAS
10
557.3982
20
1050.0000
30
0.0
0
VERTEX
8
RANHURAS
10
557.3982
20
610.0000
30
0.0
0
VERTEX
8
RANHURAS
10
569.3982
20
610.0000
30
0.0
0
VERTEX
8
RANHURAS
10
569.3982
20
1050.0000
30
0.0
0
VERTEX
8
RANHURAS
10
581.3982
20
1050.0000
30
0.0
0
VERTEX
8
RANHURAS
10
581.3982
20
610.0000
30
0.0
0
VERTEX
8
RANHURAS
10
593.3982
20
610.0000
30
0.0
0
VERTEX
8
RANHURAS
10
593.3982
20
1050.0000
30
0.0
0
VERTEX
8
RANHURAS
10
605.3982
20
1050.0000
30
0.0
0
VERTEX
8
RANHURAS
10
605.3982
20
610.0000
30
0.0
0
VERTEX
8
RANHURAS
10
617.3982
20
610.0000
30
0.0
0
VERTEX
8
RANHURAS
10
617.3982
20
1050.0000
30
0.0
0
VERTEX
8
RANHURAS
10
629.3982
20
1050.0000
30
0.0
0
VERTEX
8
RANHURAS
10
629.3982
20
610.0000
30
0.0
0
VERTEX
8
RANHURAS
10
641.3982
20
610.0000
30
0.0
0
VERTEX
8
RANHURAS
10
641.3982
20
1050.0000
30
0.0
0
VERTEX
8
RANHURAS
10
653.3982
20
1050.0000
30
0.0
0
VERTEX
8
RANHURAS
10
653.3982
20
610.0000
30
0.0
0
VERTEX
8
RANHURAS
10
665.3982
20
610.0000
30
0.0
0
VERTEX
8
RANHURAS
10
665.3982
20
1050.0000
30
0.0
0
VERTEX
8
RANHURAS
10
677.3982
20
1050.0000
30
0.0
0
VERTEX
8
RANHURAS
10
677.3982
20
610.0000
30
0.0
0
VERTEX
8
RANHURAS
10
689.3982
20
610.0000
30
0.0
0
VERTEX
8
RANHURAS
10
689.3982
20
1050.0000
30
0.0
0
VERTEX
8
RANHURAS
10
701.3982
20
1050.0000
30
0.0
0
VERTEX
8
RANHURAS
10
701.3982
20
610.0000
30
0.0
0
VERTEX
8
RANHURAS
10
713.3982
20
610.0000
30
0.0
0
VERTEX
8
RANHURAS
10
713.3982
20
1050.0000
30
0.0
0
VERTEX
8
RANHURAS
10
725.3982
20
1050.0000
30
0.0
0
VERTEX
8
RANHURAS
10
725.3982
20
610.0000
30
0.0
0
VERTEX
8
RANHURAS
10
737.3982
20
610.0000
30
0.0
0
VERTEX
8
RANHURAS
10
737.3982
20
1050.0000
30
0.0
0
VERTEX
8
RANHURAS
10
749.3982
20
1050.0000
30
0.0
0
VERTEX
8
RANHURAS
10
749.3982
20
610.0000
30
0.0
0
VERTEX
8
RANHURAS
10
761.3982
20
610.0000
30
0.0
0
VERTEX
8
RANHURAS
10
761.3982
20
1050.0000
30
0.0
0
VERTEX
8
RANHURAS
10
773.3982
20
1050.0000
30
0.0
0
VERTEX
8
RANHURAS
10
773.3982
20
610.0000
30
0.0
0
VERTEX
8
RANHURAS
10
785.3982
20
610.0000
30
0.0
0
VERTEX
8
RANHURAS
10
785.3982
20
1050.0000
30
0.0
0
VERTEX
8
RANHURAS
10
797.3982
20
1050.0000
30
0.0
0
VERTEX
8
RANHURAS
10
797.3982
20
610.0000
30
0.0
0
VERTEX
8
RANHURAS
10
809.3982
20
610.0000
30
0.0
0
VERTEX
8
RANHURAS
10
809.3982
20
1050.0000
30
0.0
0
VERTEX
8
RANHURAS
10
821.3982
20
1050.0000
30
0.0
0
VERTEX
8
RANHURAS
10
821.3982
20
610.0000
30
0.0
0
VERTEX
8
RANHURAS
10
833.3982
20
610.0000
30
0.0
0
VERTEX
8
RANHURAS
10
833.3982
20
1050.0000
30
0.0
0
VERTEX
8
RANHURAS
10
845.3982
20
1050.0000
30
0.0
0
VERTEX
8
RANHURAS
10
845.3982
20
610.0000
30
0.0
0
VERTEX
8
RANHURAS
10
857.3982
20
610.0000
30
0.0
0
VERTEX
8
RANHURAS
10
857.3982
20
1050.0000
30
0.0
0
VERTEX
8
RANHURAS
10
869.3982
20
1050.0000
30
0.0
0
VERTEX
8
RANHURAS
10
869.3982
20
610.0000
30
0.0
0
VERTEX
8
RANHURAS
10
881.3982
20
610.0000
30
0.0
0
VERTEX
8
RANHURAS
10
881.3982
20
1050.0000
30
0.0
0
VERTEX
8
RANHURAS
10
893.3982
20
1050.0000
30
0.0
0
VERTEX
8
RANHURAS
10
893.3982
20
610.0000
30
0.0
0
VERTEX
8
RANHURAS
10
905.3982
20
610.0000
30
0.0
0
VERTEX
8
RANHURAS
10
905.3982
20
1050.0000
30
0.0
0
VERTEX
8
RANHURAS
10
917.3982
20
1050.0000
30
0.0
0
VERTEX
8
RANHURAS
10
917.3982
20
610.0000
30
0.0
0
VERTEX
8
RANHURAS
10
929.3982
20
610.0000
30
0.0
0
VERTEX
8
RANHURAS
10
929.3982
20
1050.0000
30
0.0
0
VERTEX
8
RANHURAS
10
941.3982
20
1050.0000
30
0.0
0
VERTEX
8
RANHURAS
10
941.3982
20
610.0000
30
0.0
0
VERTEX
8
RANHURAS
10
953.3982
20
610.0000
30
0.0
0
VERTEX
8
RANHURAS
10
953.3982
20
1050.0000
30
0.0
0
VERTEX
8
RANHURAS
10
965.3982
20
1050.0000
30
0.0
0
VERTEX
8
RANHURAS
10
965.3982
20
610.0000
30
0.0
0
VERTEX
8
RANHURAS
10
977.3982
20
610.0000
30
0.0
0
VERTEX
8
RANHURAS
10
977.3982
20
1050.0000
30
0.0
0
VERTEX
8
RANHURAS
10
989.3982
20
1050.0000
30
0.0
0
VERTEX
8
RANHURAS
10
989.3982
20
610.0000
30
0.0
0
VERTEX
8
RANHURAS
10
1001.3982
20
610.0000
30
0.0
0
VERTEX
8
RANHURAS
10
1001.3982
20
1050.0000
30
0.0
0
VERTEX
8
RANHURAS
10
1013.3982
20
1050.0000
30
0.0
0
VERTEX
8
RANHURAS
10
1013.3982
20
610.0000
30
0.0
0
VERTEX
8
RANHURAS
10
1025.3982
20
610.0000
30
0.0
0
VERTEX
8
RANHURAS
10
1025.3982
20
1050.0000
30
0.0
0
VERTEX
8
RANHURAS
10
1037.3982
20
1050.0000
30
0.0
0
VERTEX
8
RANHURAS
10
1037.3982
20
610.0000
30
0.0
0
VERTEX
8
RANHURAS
10
1049.3982
20
610.0000
30
0.0
0
VERTEX
8
RANHURAS
10
1049.3982
20
1050.0000
30
0.0
0
VERTEX
8
RANHURAS
10
1061.3982
20
1050.0000
30
0.0
0
VERTEX
8
RANHURAS
10
1061.3982
20
610.0000
30
0.0
0
VERTEX
8
RANHURAS
10
1073.3982
20
610.0000
30
0.0
0
VERTEX
8
RANHURAS
10
1073.3982
20
1050.0000
30
0.0
0
VERTEX
8
RANHURAS
10
1085.3982
20
1050.0000
30
0.0
0
VERTEX
8
RANHURAS
10
1085.3982
20
610.0000
30
0.0
0
VERTEX
8
RANHURAS
10
1097.3982
20
610.0000
30
0.0
0
VERTEX
8
RANHURAS
10
1097.3982
20
1050.0000
30
0.0
0
VERTEX
8
RANHURAS
10
1109.3982
20
1050.0000
30
0.0
0
VERTEX
8
RANHURAS
10
1109.3982
20
610.0000
30
0.0
0
VERTEX
8
RANHURAS
10
1121.3982
20
610.0000
30
0.0
0
VERTEX
8
RANHURAS
10
1121.3982
20
1050.0000
30
0.0
0
VERTEX
8
RANHURAS
10
1133.3982
20
1050.0000
30
0.0
0
VERTEX
8
RANHURAS
10
1133.3982
20
610.0000
30
0.0
0
VERTEX
8
RANHURAS
10
1145.3982
20
610.0000
30
0.0
0
VERTEX
8
RANHURAS
10
1145.3982
20
1050.0000
30
0.0
0
VERTEX
8
RANHURAS
10
1157.3982
20
1050.0000
30
0.0
0
VERTEX
8
RANHURAS
10
1157.3982
20
610.0000
30
0.0
0
VERTEX
8
RANHURAS
10
1169.3982
20
610.0000
30
0.0
0
VERTEX
8
RANHURAS
10
1169.3982
20
1050.0000
30
0.0
0
VERTEX
8
RANHURAS
10
1181.3982
20
1050.0000
30
0.0
0
VERTEX
8
RANHURAS
10
1181.3982
20
610.0000
30
0.0
0
VERTEX
8
RANHURAS
10
1193.3982
20
610.0000
30
0.0
0
VERTEX
8
RANHURAS
10
1193.3982
20
1050.0000
30
0.0
0
VERTEX
8
RANHURAS
10
1205.3982
20
1050.0000
30
0.0
0
VERTEX
8
RANHURAS
10
1205.3982
20
610.0000
30
0.0
0
VERTEX
8
RANHURAS
10
1217.3982
20
610.0000
30
0.0
0
VERTEX
8
RANHURAS
10
1217.3982
20
1050.0000
30
0.0
0
VERTEX
8
RANHURAS
10
1229.3982
20
1050.0000
30
0.0
0
VERTEX
8
RANHURAS
10
1229.3982
20
610.0000
30
0.0
0
VERTEX
8
RANHURAS
10
1241.3982
20
610.0000
30
0.0
0
VERTEX
8
RANHURAS
10
1241.3982
20
1050.0000
30
0.0
0
VERTEX
8
RANHURAS
10
1253.3982
20
1050.0000
30
0.0
0
VERTEX
8
RANHURAS
10
1253.3982
20
610.0000
30
0.0
0
VERTEX
8
RANHURAS
10
1265.3982
20
610.0000
30
0.0
0
VERTEX
8
RANHURAS
10
1265.3982
20
1050.0000
30
0.0
0
VERTEX
8
RANHURAS
10
1277.3982
20
1050.0000
30
0.0
0
VERTEX
8
RANHURAS
10
1277.3982
20
610.0000
30
0.0
0
VERTEX
8
RANHURAS
10
1289.3982
20
610.0000
30
0.0
0
VERTEX
8
RANHURAS
10
1289.3982
20
1050.0000
30
0.0
0
VERTEX
8
RANHURAS
10
1301.3982
20
1050.0000
30
0.0
0
VERTEX
8
RANHURAS
10
1301.3982
20
610.0000
30
0.0
0
VERTEX
8
RANHURAS
10
1313.3982
20
610.0000
30
0.0
0
VERTEX
8
RANHURAS
10
1313.3982
20
1050.0000
30
0.0
0
VERTEX
8
RANHURAS
10
1325.3982
20
1050.0000
30
0.0
0
VERTEX
8
RANHURAS
10
1325.3982
20
610.0000
30
0.0
0
VERTEX
8
RANHURAS
10
1337.3982
20
610.0000
30
0.0
0
VERTEX
8
RANHURAS
10
1337.3982
20
1050.0000
30
0.0
0
VERTEX
8
RANHURAS
10
1349.3982
20
1050.0000
30
0.0
0
VERTEX
8
RANHURAS
10
1349.3982
20
610.0000
30
0.0
0
VERTEX
8
RANHURAS
10
1361.3982
20
610.0000
30
0.0
0
VERTEX
8
RANHURAS
10
1361.3982
20
1050.0000
30
0.0
0
VERTEX
8
RANHURAS
10
1373.3982
20
1050.0000
30
0.0
0
VERTEX
8
RANHURAS
10
1373.3982
20
610.0000
30
0.0
0
VERTEX
8
RANHURAS
10
1385.3982
20
610.0000
30
0.0
0
VERTEX
8
RANHURAS
10
1385.3982
20
1050.0000
30
0.0
0
VERTEX
8
RANHURAS
10
1397.3982
20
1050.0000
30
0.0
0
VERTEX
8
RANHURAS
10
1397.3982
20
610.0000
30
0.0
0
VERTEX
8
RANHURAS
10
1409.3982
20
610.0000
30
0.0
0
VERTEX
8
RANHURAS
10
1409.3982
20
1050.0000
30
0.0
0
VERTEX
8
RANHURAS
10
1421.3982
20
1050.0000
30
0.0
0
VERTEX
8
RANHURAS
10
1421.3982
20
610.0000
30
0.0
0
VERTEX
8
RANHURAS
10
1433.3982
20
610.0000
30
0.0
0
VERTEX
8
RANHURAS
10
1433.3982
20
1050.0000
30
0.0
0
VERTEX
8
RANHURAS
10
1445.3982
20
1050.0000
30
0.0
0
VERTEX
8
RANHURAS
10
1445.3982
20
610.0000
30
0.0
0
VERTEX
8
RANHURAS
10
1457.3982
20
610.0000
30
0.0
0
VERTEX
8
RANHURAS
10
1457.3982
20
1050.0000
30
0.0
0
VERTEX
8
RANHURAS
10
1469.3982
20
1050.0000
30
0.0
0
VERTEX
8
RANHURAS
10
1469.3982
20
610.0000
30
0.0
0
VERTEX
8
RANHURAS
10
1481.3982
20
610.0000
30
0.0
0
VERTEX
8
RANHURAS
10
1481.3982
20
1050.0000
30
0.0
0
VERTEX
8
RANHURAS
10
1493.3982
20
1050.0000
30
0.0
0
VERTEX
8
RANHURAS
10
1493.3982
20
610.0000
30
0.0
0
VERTEX
8
RANHURAS
10
1505.3982
20
610.0000
30
0.0
0
VERTEX
8
RANHURAS
10
1505.3982
20
1050.0000
30
0.0
0
VERTEX
8
RANHURAS
10
1517.3982
20
1050.0000
30
0.0
0
VERTEX
8
RANHURAS
10
1517.3982
20
610.0000
30
0.0
0
VERTEX
8
RANHURAS
10
1529.3982
20
610.0000
30
0.0
0
VERTEX
8
RANHURAS
10
1529.3982
20
1050.0000
30
0.0
0
VERTEX
8
RANHURAS
10
1541.3982
20
1050.0000
30
0.0
0
VERTEX
8
RANHURAS
10
1541.3982
20
610.0000
30
0.0
0
VERTEX
8
RANHURAS
10
1553.3982
20
610.0000
30
0.0
0
VERTEX
8
RANHURAS
10
1553.3982
20
1050.0000
30
0.0
0
VERTEX
8
RANHURAS
10
1565.3982
20
1050.0000
30
0.0
0
VERTEX
8
RANHURAS
10
1565.3982
20
610.0000
30
0.0
0
SEQEND
0
ENDSEC
0
EOF
