0
SECTION
2
HEADER
9
$INSUNITS
70
4
0
ENDSEC
0
SECTION
2
TABLES
0
TABLE
2
LAYER
70
1
0
LAYER
2
LOGO
70
0
62
7
6
CONTINUOUS
0
ENDTAB
0
ENDSEC
0
SECTION
2
ENTITIES
0
POLYLINE
8
LOGO
66
1
70
1
0
VERTEX
8
LOGO
10
19.143
20
26.424
30
0.0
0
VERTEX
8
LOGO
10
18.508
20
26.432
30
0.0
0
VERTEX
8
LOGO
10
17.884
20
26.459
30
0.0
0
VERTEX
8
LOGO
10
17.274
20
26.502
30
0.0
0
VERTEX
8
LOGO
10
16.675
20
26.564
30
0.0
0
VERTEX
8
LOGO
10
16.089
20
26.643
30
0.0
0
VERTEX
8
LOGO
10
15.515
20
26.739
30
0.0
0
VERTEX
8
LOGO
10
14.953
20
26.853
30
0.0
0
VERTEX
8
LOGO
10
14.404
20
26.985
30
0.0
0
VERTEX
8
LOGO
10
13.867
20
27.135
30
0.0
0
VERTEX
8
LOGO
10
13.343
20
27.302
30
0.0
0
VERTEX
8
LOGO
10
12.830
20
27.487
30
0.0
0
VERTEX
8
LOGO
10
12.330
20
27.689
30
0.0
0
VERTEX
8
LOGO
10
11.842
20
27.910
30
0.0
0
VERTEX
8
LOGO
10
11.367
20
28.148
30
0.0
0
VERTEX
8
LOGO
10
10.904
20
28.404
30
0.0
0
VERTEX
8
LOGO
10
10.455
20
28.675
30
0.0
0
VERTEX
8
LOGO
10
10.019
20
28.958
30
0.0
0
VERTEX
8
LOGO
10
9.596
20
29.254
30
0.0
0
VERTEX
8
LOGO
10
9.187
20
29.563
30
0.0
0
VERTEX
8
LOGO
10
8.791
20
29.885
30
0.0
0
VERTEX
8
LOGO
10
8.409
20
30.219
30
0.0
0
VERTEX
8
LOGO
10
8.040
20
30.566
30
0.0
0
VERTEX
8
LOGO
10
7.684
20
30.926
30
0.0
0
VERTEX
8
LOGO
10
7.342
20
31.299
30
0.0
0
VERTEX
8
LOGO
10
7.014
20
31.685
30
0.0
0
VERTEX
8
LOGO
10
6.699
20
32.083
30
0.0
0
VERTEX
8
LOGO
10
6.397
20
32.494
30
0.0
0
VERTEX
8
LOGO
10
6.110
20
32.918
30
0.0
0
VERTEX
8
LOGO
10
5.836
20
33.355
30
0.0
0
VERTEX
8
LOGO
10
5.575
20
33.805
30
0.0
0
VERTEX
8
LOGO
10
5.329
20
34.265
30
0.0
0
VERTEX
8
LOGO
10
5.096
20
34.733
30
0.0
0
VERTEX
8
LOGO
10
4.875
20
35.208
30
0.0
0
VERTEX
8
LOGO
10
4.668
20
35.691
30
0.0
0
VERTEX
8
LOGO
10
4.473
20
36.181
30
0.0
0
VERTEX
8
LOGO
10
4.291
20
36.678
30
0.0
0
VERTEX
8
LOGO
10
4.122
20
37.182
30
0.0
0
VERTEX
8
LOGO
10
3.967
20
37.694
30
0.0
0
VERTEX
8
LOGO
10
3.824
20
38.213
30
0.0
0
VERTEX
8
LOGO
10
3.694
20
38.740
30
0.0
0
VERTEX
8
LOGO
10
3.578
20
39.274
30
0.0
0
VERTEX
8
LOGO
10
3.474
20
39.815
30
0.0
0
VERTEX
8
LOGO
10
3.384
20
40.364
30
0.0
0
VERTEX
8
LOGO
10
3.307
20
40.920
30
0.0
0
VERTEX
8
LOGO
10
3.243
20
41.483
30
0.0
0
VERTEX
8
LOGO
10
0.000
20
75.895
30
0.0
0
VERTEX
8
LOGO
10
11.798
20
75.895
30
0.0
0
VERTEX
8
LOGO
10
15.059
20
41.483
30
0.0
0
VERTEX
8
LOGO
10
15.081
20
41.240
30
0.0
0
VERTEX
8
LOGO
10
15.112
20
41.002
30
0.0
0
VERTEX
8
LOGO
10
15.151
20
40.770
30
0.0
0
VERTEX
8
LOGO
10
15.200
20
40.543
30
0.0
0
VERTEX
8
LOGO
10
15.257
20
40.322
30
0.0
0
VERTEX
8
LOGO
10
15.324
20
40.105
30
0.0
0
VERTEX
8
LOGO
10
15.399
20
39.894
30
0.0
0
VERTEX
8
LOGO
10
15.483
20
39.689
30
0.0
0
VERTEX
8
LOGO
10
15.576
20
39.488
30
0.0
0
VERTEX
8
LOGO
10
15.678
20
39.293
30
0.0
0
VERTEX
8
LOGO
10
15.788
20
39.103
30
0.0
0
VERTEX
8
LOGO
10
15.908
20
38.919
30
0.0
0
VERTEX
8
LOGO
10
16.037
20
38.740
30
0.0
0
VERTEX
8
LOGO
10
16.174
20
38.566
30
0.0
0
VERTEX
8
LOGO
10
16.320
20
38.397
30
0.0
0
VERTEX
8
LOGO
10
16.474
20
38.239
30
0.0
0
VERTEX
8
LOGO
10
16.632
20
38.092
30
0.0
0
VERTEX
8
LOGO
10
16.796
20
37.955
30
0.0
0
VERTEX
8
LOGO
10
16.964
20
37.830
30
0.0
0
VERTEX
8
LOGO
10
17.138
20
37.715
30
0.0
0
VERTEX
8
LOGO
10
17.317
20
37.612
30
0.0
0
VERTEX
8
LOGO
10
17.500
20
37.519
30
0.0
0
VERTEX
8
LOGO
10
17.689
20
37.437
30
0.0
0
VERTEX
8
LOGO
10
17.882
20
37.366
30
0.0
0
VERTEX
8
LOGO
10
18.080
20
37.307
30
0.0
0
VERTEX
8
LOGO
10
18.283
20
37.257
30
0.0
0
VERTEX
8
LOGO
10
18.491
20
37.219
30
0.0
0
VERTEX
8
LOGO
10
18.704
20
37.192
30
0.0
0
VERTEX
8
LOGO
10
18.921
20
37.176
30
0.0
0
VERTEX
8
LOGO
10
19.143
20
37.170
30
0.0
0
VERTEX
8
LOGO
10
45.298
20
37.170
30
0.0
0
VERTEX
8
LOGO
10
45.521
20
37.176
30
0.0
0
VERTEX
8
LOGO
10
45.739
20
37.192
30
0.0
0
VERTEX
8
LOGO
10
45.952
20
37.219
30
0.0
0
VERTEX
8
LOGO
10
46.160
20
37.257
30
0.0
0
VERTEX
8
LOGO
10
46.363
20
37.307
30
0.0
0
VERTEX
8
LOGO
10
46.561
20
37.366
30
0.0
0
VERTEX
8
LOGO
10
46.755
20
37.437
30
0.0
0
VERTEX
8
LOGO
10
46.943
20
37.519
30
0.0
0
VERTEX
8
LOGO
10
47.126
20
37.612
30
0.0
0
VERTEX
8
LOGO
10
47.304
20
37.715
30
0.0
0
VERTEX
8
LOGO
10
47.477
20
37.830
30
0.0
0
VERTEX
8
LOGO
10
47.646
20
37.955
30
0.0
0
VERTEX
8
LOGO
10
47.809
20
38.092
30
0.0
0
VERTEX
8
LOGO
10
47.967
20
38.239
30
0.0
0
VERTEX
8
LOGO
10
48.120
20
38.397
30
0.0
0
VERTEX
8
LOGO
10
48.267
20
38.566
30
0.0
0
VERTEX
8
LOGO
10
48.405
20
38.740
30
0.0
0
VERTEX
8
LOGO
10
48.533
20
38.919
30
0.0
0
VERTEX
8
LOGO
10
48.654
20
39.103
30
0.0
0
VERTEX
8
LOGO
10
48.765
20
39.293
30
0.0
0
VERTEX
8
LOGO
10
48.868
20
39.488
30
0.0
0
VERTEX
8
LOGO
10
48.962
20
39.689
30
0.0
0
VERTEX
8
LOGO
10
49.047
20
39.894
30
0.0
0
VERTEX
8
LOGO
10
49.124
20
40.105
30
0.0
0
VERTEX
8
LOGO
10
49.192
20
40.322
30
0.0
0
VERTEX
8
LOGO
10
49.251
20
40.543
30
0.0
0
VERTEX
8
LOGO
10
49.302
20
40.770
30
0.0
0
VERTEX
8
LOGO
10
49.343
20
41.002
30
0.0
0
VERTEX
8
LOGO
10
49.376
20
41.240
30
0.0
0
VERTEX
8
LOGO
10
49.401
20
41.483
30
0.0
0
VERTEX
8
LOGO
10
52.643
20
75.895
30
0.0
0
VERTEX
8
LOGO
10
64.441
20
75.895
30
0.0
0
VERTEX
8
LOGO
10
61.198
20
41.483
30
0.0
0
VERTEX
8
LOGO
10
61.143
20
40.920
30
0.0
0
VERTEX
8
LOGO
10
61.074
20
40.364
30
0.0
0
VERTEX
8
LOGO
10
60.991
20
39.815
30
0.0
0
VERTEX
8
LOGO
10
60.895
20
39.274
30
0.0
0
VERTEX
8
LOGO
10
60.784
20
38.740
30
0.0
0
VERTEX
8
LOGO
10
60.659
20
38.213
30
0.0
0
VERTEX
8
LOGO
10
60.521
20
37.694
30
0.0
0
VERTEX
8
LOGO
10
60.368
20
37.182
30
0.0
0
VERTEX
8
LOGO
10
60.201
20
36.678
30
0.0
0
VERTEX
8
LOGO
10
60.020
20
36.181
30
0.0
0
VERTEX
8
LOGO
10
59.825
20
35.691
30
0.0
0
VERTEX
8
LOGO
10
59.615
20
35.208
30
0.0
0
VERTEX
8
LOGO
10
59.392
20
34.733
30
0.0
0
VERTEX
8
LOGO
10
59.154
20
34.265
30
0.0
0
VERTEX
8
LOGO
10
58.901
20
33.805
30
0.0
0
VERTEX
8
LOGO
10
58.635
20
33.355
30
0.0
0
VERTEX
8
LOGO
10
58.356
20
32.918
30
0.0
0
VERTEX
8
LOGO
10
58.063
20
32.494
30
0.0
0
VERTEX
8
LOGO
10
57.757
20
32.083
30
0.0
0
VERTEX
8
LOGO
10
57.438
20
31.685
30
0.0
0
VERTEX
8
LOGO
10
57.105
20
31.299
30
0.0
0
VERTEX
8
LOGO
10
56.759
20
30.926
30
0.0
0
VERTEX
8
LOGO
10
56.400
20
30.566
30
0.0
0
VERTEX
8
LOGO
10
56.028
20
30.219
30
0.0
0
VERTEX
8
LOGO
10
55.642
20
29.885
30
0.0
0
VERTEX
8
LOGO
10
55.244
20
29.563
30
0.0
0
VERTEX
8
LOGO
10
54.832
20
29.254
30
0.0
0
VERTEX
8
LOGO
10
54.407
20
28.958
30
0.0
0
VERTEX
8
LOGO
10
53.970
20
28.675
30
0.0
0
VERTEX
8
LOGO
10
53.519
20
28.404
30
0.0
0
VERTEX
8
LOGO
10
53.057
20
28.148
30
0.0
0
VERTEX
8
LOGO
10
52.583
20
27.910
30
0.0
0
VERTEX
8
LOGO
10
52.096
20
27.689
30
0.0
0
VERTEX
8
LOGO
10
51.597
20
27.487
30
0.0
0
VERTEX
8
LOGO
10
51.085
20
27.302
30
0.0
0
VERTEX
8
LOGO
10
50.562
20
27.135
30
0.0
0
VERTEX
8
LOGO
10
50.025
20
26.985
30
0.0
0
VERTEX
8
LOGO
10
49.477
20
26.853
30
0.0
0
VERTEX
8
LOGO
10
48.916
20
26.739
30
0.0
0
VERTEX
8
LOGO
10
48.344
20
26.643
30
0.0
0
VERTEX
8
LOGO
10
47.759
20
26.564
30
0.0
0
VERTEX
8
LOGO
10
47.161
20
26.502
30
0.0
0
VERTEX
8
LOGO
10
46.552
20
26.459
30
0.0
0
VERTEX
8
LOGO
10
45.931
20
26.432
30
0.0
0
VERTEX
8
LOGO
10
45.298
20
26.424
30
0.0
0
VERTEX
8
LOGO
10
19.143
20
26.424
30
0.0
0
SEQEND
0
POLYLINE
8
LOGO
66
1
70
1
0
VERTEX
8
LOGO
10
84.069
20
26.424
30
0.0
0
VERTEX
8
LOGO
10
83.434
20
26.432
30
0.0
0
VERTEX
8
LOGO
10
82.809
20
26.459
30
0.0
0
VERTEX
8
LOGO
10
82.195
20
26.502
30
0.0
0
VERTEX
8
LOGO
10
81.592
20
26.564
30
0.0
0
VERTEX
8
LOGO
10
80.999
20
26.643
30
0.0
0
VERTEX
8
LOGO
10
80.417
20
26.739
30
0.0
0
VERTEX
8
LOGO
10
79.846
20
26.853
30
0.0
0
VERTEX
8
LOGO
10
79.285
20
26.985
30
0.0
0
VERTEX
8
LOGO
10
78.734
20
27.135
30
0.0
0
VERTEX
8
LOGO
10
78.195
20
27.302
30
0.0
0
VERTEX
8
LOGO
10
77.665
20
27.487
30
0.0
0
VERTEX
8
LOGO
10
77.147
20
27.689
30
0.0
0
VERTEX
8
LOGO
10
76.639
20
27.910
30
0.0
0
VERTEX
8
LOGO
10
76.141
20
28.148
30
0.0
0
VERTEX
8
LOGO
10
75.654
20
28.404
30
0.0
0
VERTEX
8
LOGO
10
75.182
20
28.675
30
0.0
0
VERTEX
8
LOGO
10
74.725
20
28.958
30
0.0
0
VERTEX
8
LOGO
10
74.282
20
29.254
30
0.0
0
VERTEX
8
LOGO
10
73.853
20
29.563
30
0.0
0
VERTEX
8
LOGO
10
73.438
20
29.885
30
0.0
0
VERTEX
8
LOGO
10
73.038
20
30.219
30
0.0
0
VERTEX
8
LOGO
10
72.652
20
30.566
30
0.0
0
VERTEX
8
LOGO
10
72.280
20
30.926
30
0.0
0
VERTEX
8
LOGO
10
71.923
20
31.299
30
0.0
0
VERTEX
8
LOGO
10
71.580
20
31.685
30
0.0
0
VERTEX
8
LOGO
10
71.252
20
32.083
30
0.0
0
VERTEX
8
LOGO
10
70.937
20
32.494
30
0.0
0
VERTEX
8
LOGO
10
70.637
20
32.918
30
0.0
0
VERTEX
8
LOGO
10
70.352
20
33.355
30
0.0
0
VERTEX
8
LOGO
10
70.080
20
33.805
30
0.0
0
VERTEX
8
LOGO
10
69.825
20
34.265
30
0.0
0
VERTEX
8
LOGO
10
69.587
20
34.733
30
0.0
0
VERTEX
8
LOGO
10
69.367
20
35.208
30
0.0
0
VERTEX
8
LOGO
10
69.165
20
35.691
30
0.0
0
VERTEX
8
LOGO
10
68.980
20
36.181
30
0.0
0
VERTEX
8
LOGO
10
68.813
20
36.678
30
0.0
0
VERTEX
8
LOGO
10
68.663
20
37.182
30
0.0
0
VERTEX
8
LOGO
10
68.531
20
37.694
30
0.0
0
VERTEX
8
LOGO
10
68.416
20
38.213
30
0.0
0
VERTEX
8
LOGO
10
68.320
20
38.740
30
0.0
0
VERTEX
8
LOGO
10
68.241
20
39.274
30
0.0
0
VERTEX
8
LOGO
10
68.179
20
39.815
30
0.0
0
VERTEX
8
LOGO
10
68.135
20
40.364
30
0.0
0
VERTEX
8
LOGO
10
68.109
20
40.920
30
0.0
0
VERTEX
8
LOGO
10
68.100
20
41.483
30
0.0
0
VERTEX
8
LOGO
10
68.109
20
42.052
30
0.0
0
VERTEX
8
LOGO
10
68.135
20
42.612
30
0.0
0
VERTEX
8
LOGO
10
68.179
20
43.164
30
0.0
0
VERTEX
8
LOGO
10
68.241
20
43.709
30
0.0
0
VERTEX
8
LOGO
10
68.320
20
44.245
30
0.0
0
VERTEX
8
LOGO
10
68.416
20
44.773
30
0.0
0
VERTEX
8
LOGO
10
68.531
20
45.293
30
0.0
0
VERTEX
8
LOGO
10
68.663
20
45.805
30
0.0
0
VERTEX
8
LOGO
10
68.813
20
46.308
30
0.0
0
VERTEX
8
LOGO
10
68.980
20
46.804
30
0.0
0
VERTEX
8
LOGO
10
69.165
20
47.292
30
0.0
0
VERTEX
8
LOGO
10
69.367
20
47.771
30
0.0
0
VERTEX
8
LOGO
10
69.587
20
48.242
30
0.0
0
VERTEX
8
LOGO
10
69.825
20
48.705
30
0.0
0
VERTEX
8
LOGO
10
70.080
20
49.160
30
0.0
0
VERTEX
8
LOGO
10
70.352
20
49.607
30
0.0
0
VERTEX
8
LOGO
10
70.637
20
50.042
30
0.0
0
VERTEX
8
LOGO
10
70.937
20
50.463
30
0.0
0
VERTEX
8
LOGO
10
71.252
20
50.872
30
0.0
0
VERTEX
8
LOGO
10
71.580
20
51.268
30
0.0
0
VERTEX
8
LOGO
10
71.923
20
51.652
30
0.0
0
VERTEX
8
LOGO
10
72.280
20
52.023
30
0.0
0
VERTEX
8
LOGO
10
72.652
20
52.382
30
0.0
0
VERTEX
8
LOGO
10
73.038
20
52.728
30
0.0
0
VERTEX
8
LOGO
10
73.438
20
53.061
30
0.0
0
VERTEX
8
LOGO
10
73.853
20
53.382
30
0.0
0
VERTEX
8
LOGO
10
74.282
20
53.691
30
0.0
0
VERTEX
8
LOGO
10
74.725
20
53.987
30
0.0
0
VERTEX
8
LOGO
10
75.182
20
54.271
30
0.0
0
VERTEX
8
LOGO
10
75.654
20
54.542
30
0.0
0
VERTEX
8
LOGO
10
76.141
20
54.798
30
0.0
0
VERTEX
8
LOGO
10
76.639
20
55.035
30
0.0
0
VERTEX
8
LOGO
10
77.147
20
55.256
30
0.0
0
VERTEX
8
LOGO
10
77.665
20
55.458
30
0.0
0
VERTEX
8
LOGO
10
78.195
20
55.643
30
0.0
0
VERTEX
8
LOGO
10
78.734
20
55.810
30
0.0
0
VERTEX
8
LOGO
10
79.285
20
55.960
30
0.0
0
VERTEX
8
LOGO
10
79.846
20
56.092
30
0.0
0
VERTEX
8
LOGO
10
80.417
20
56.206
30
0.0
0
VERTEX
8
LOGO
10
80.999
20
56.303
30
0.0
0
VERTEX
8
LOGO
10
81.592
20
56.382
30
0.0
0
VERTEX
8
LOGO
10
82.195
20
56.444
30
0.0
0
VERTEX
8
LOGO
10
82.809
20
56.488
30
0.0
0
VERTEX
8
LOGO
10
83.434
20
56.514
30
0.0
0
VERTEX
8
LOGO
10
84.069
20
56.523
30
0.0
0
VERTEX
8
LOGO
10
133.610
20
56.523
30
0.0
0
VERTEX
8
LOGO
10
133.610
20
26.424
30
0.0
0
VERTEX
8
LOGO
10
84.069
20
26.424
30
0.0
0
VERTEX
8
LOGO
10
79.902
20
41.240
30
0.0
0
VERTEX
8
LOGO
10
79.919
20
41.002
30
0.0
0
VERTEX
8
LOGO
10
79.946
20
40.770
30
0.0
0
VERTEX
8
LOGO
10
79.985
20
40.543
30
0.0
0
VERTEX
8
LOGO
10
80.035
20
40.322
30
0.0
0
VERTEX
8
LOGO
10
80.096
20
40.105
30
0.0
0
VERTEX
8
LOGO
10
80.168
20
39.894
30
0.0
0
VERTEX
8
LOGO
10
80.251
20
39.689
30
0.0
0
VERTEX
8
LOGO
10
80.345
20
39.488
30
0.0
0
VERTEX
8
LOGO
10
80.450
20
39.293
30
0.0
0
VERTEX
8
LOGO
10
80.566
20
39.103
30
0.0
0
VERTEX
8
LOGO
10
80.693
20
38.919
30
0.0
0
VERTEX
8
LOGO
10
80.832
20
38.740
30
0.0
0
VERTEX
8
LOGO
10
80.981
20
38.566
30
0.0
0
VERTEX
8
LOGO
10
81.141
20
38.397
30
0.0
0
VERTEX
8
LOGO
10
81.309
20
38.239
30
0.0
0
VERTEX
8
LOGO
10
81.481
20
38.092
30
0.0
0
VERTEX
8
LOGO
10
81.657
20
37.955
30
0.0
0
VERTEX
8
LOGO
10
81.836
20
37.830
30
0.0
0
VERTEX
8
LOGO
10
82.020
20
37.715
30
0.0
0
VERTEX
8
LOGO
10
82.207
20
37.612
30
0.0
0
VERTEX
8
LOGO
10
82.398
20
37.519
30
0.0
0
VERTEX
8
LOGO
10
82.593
20
37.437
30
0.0
0
VERTEX
8
LOGO
10
82.793
20
37.366
30
0.0
0
VERTEX
8
LOGO
10
82.995
20
37.307
30
0.0
0
VERTEX
8
LOGO
10
83.202
20
37.257
30
0.0
0
VERTEX
8
LOGO
10
83.413
20
37.219
30
0.0
0
VERTEX
8
LOGO
10
83.628
20
37.192
30
0.0
0
VERTEX
8
LOGO
10
83.846
20
37.176
30
0.0
0
VERTEX
8
LOGO
10
84.069
20
37.170
30
0.0
0
VERTEX
8
LOGO
10
121.812
20
37.170
30
0.0
0
VERTEX
8
LOGO
10
121.812
20
45.778
30
0.0
0
VERTEX
8
LOGO
10
84.069
20
45.778
30
0.0
0
VERTEX
8
LOGO
10
83.846
20
45.772
30
0.0
0
VERTEX
8
LOGO
10
83.628
20
45.756
30
0.0
0
VERTEX
8
LOGO
10
83.413
20
45.728
30
0.0
0
VERTEX
8
LOGO
10
83.202
20
45.689
30
0.0
0
VERTEX
8
LOGO
10
82.995
20
45.639
30
0.0
0
VERTEX
8
LOGO
10
82.793
20
45.578
30
0.0
0
VERTEX
8
LOGO
10
82.593
20
45.506
30
0.0
0
VERTEX
8
LOGO
10
82.398
20
45.423
30
0.0
0
VERTEX
8
LOGO
10
82.207
20
45.329
30
0.0
0
VERTEX
8
LOGO
10
82.020
20
45.224
30
0.0
0
VERTEX
8
LOGO
10
81.836
20
45.108
30
0.0
0
VERTEX
8
LOGO
10
81.657
20
44.981
30
0.0
0
VERTEX
8
LOGO
10
81.481
20
44.843
30
0.0
0
VERTEX
8
LOGO
10
81.309
20
44.693
30
0.0
0
VERTEX
8
LOGO
10
81.141
20
44.533
30
0.0
0
VERTEX
8
LOGO
10
80.981
20
44.367
30
0.0
0
VERTEX
8
LOGO
10
80.832
20
44.195
30
0.0
0
VERTEX
8
LOGO
10
80.693
20
44.018
30
0.0
0
VERTEX
8
LOGO
10
80.566
20
43.836
30
0.0
0
VERTEX
8
LOGO
10
80.450
20
43.649
30
0.0
0
VERTEX
8
LOGO
10
80.345
20
43.456
30
0.0
0
VERTEX
8
LOGO
10
80.251
20
43.258
30
0.0
0
VERTEX
8
LOGO
10
80.168
20
43.054
30
0.0
0
VERTEX
8
LOGO
10
80.096
20
42.846
30
0.0
0
VERTEX
8
LOGO
10
80.035
20
42.632
30
0.0
0
VERTEX
8
LOGO
10
79.985
20
42.413
30
0.0
0
VERTEX
8
LOGO
10
79.946
20
42.188
30
0.0
0
VERTEX
8
LOGO
10
79.919
20
41.958
30
0.0
0
VERTEX
8
LOGO
10
79.902
20
41.723
30
0.0
0
VERTEX
8
LOGO
10
79.896
20
41.483
30
0.0
0
SEQEND
0
POLYLINE
8
LOGO
66
1
70
1
0
VERTEX
8
LOGO
10
137.974
20
75.825
30
0.0
0
VERTEX
8
LOGO
10
149.772
20
75.825
30
0.0
0
VERTEX
8
LOGO
10
149.772
20
26.425
30
0.0
0
VERTEX
8
LOGO
10
137.974
20
26.425
30
0.0
0
SEQEND
0
POLYLINE
8
LOGO
66
1
70
1
0
VERTEX
8
LOGO
10
171.475
20
26.424
30
0.0
0
VERTEX
8
LOGO
10
170.839
20
26.432
30
0.0
0
VERTEX
8
LOGO
10
170.216
20
26.459
30
0.0
0
VERTEX
8
LOGO
10
169.605
20
26.502
30
0.0
0
VERTEX
8
LOGO
10
169.006
20
26.564
30
0.0
0
VERTEX
8
LOGO
10
168.420
20
26.643
30
0.0
0
VERTEX
8
LOGO
10
167.846
20
26.739
30
0.0
0
VERTEX
8
LOGO
10
167.285
20
26.853
30
0.0
0
VERTEX
8
LOGO
10
166.736
20
26.985
30
0.0
0
VERTEX
8
LOGO
10
166.199
20
27.135
30
0.0
0
VERTEX
8
LOGO
10
165.674
20
27.302
30
0.0
0
VERTEX
8
LOGO
10
165.162
20
27.487
30
0.0
0
VERTEX
8
LOGO
10
164.662
20
27.689
30
0.0
0
VERTEX
8
LOGO
10
164.174
20
27.910
30
0.0
0
VERTEX
8
LOGO
10
163.698
20
28.148
30
0.0
0
VERTEX
8
LOGO
10
163.235
20
28.404
30
0.0
0
VERTEX
8
LOGO
10
162.786
20
28.675
30
0.0
0
VERTEX
8
LOGO
10
162.350
20
28.958
30
0.0
0
VERTEX
8
LOGO
10
161.928
20
29.254
30
0.0
0
VERTEX
8
LOGO
10
161.518
20
29.563
30
0.0
0
VERTEX
8
LOGO
10
161.123
20
29.885
30
0.0
0
VERTEX
8
LOGO
10
160.740
20
30.219
30
0.0
0
VERTEX
8
LOGO
10
160.371
20
30.566
30
0.0
0
VERTEX
8
LOGO
10
160.016
20
30.926
30
0.0
0
VERTEX
8
LOGO
10
159.673
20
31.299
30
0.0
0
VERTEX
8
LOGO
10
159.345
20
31.685
30
0.0
0
VERTEX
8
LOGO
10
159.030
20
32.083
30
0.0
0
VERTEX
8
LOGO
10
158.729
20
32.494
30
0.0
0
VERTEX
8
LOGO
10
158.441
20
32.918
30
0.0
0
VERTEX
8
LOGO
10
158.167
20
33.355
30
0.0
0
VERTEX
8
LOGO
10
157.907
20
33.805
30
0.0
0
VERTEX
8
LOGO
10
157.657
20
34.265
30
0.0
0
VERTEX
8
LOGO
10
157.422
20
34.733
30
0.0
0
VERTEX
8
LOGO
10
157.199
20
35.208
30
0.0
0
VERTEX
8
LOGO
10
156.991
20
35.691
30
0.0
0
VERTEX
8
LOGO
10
156.795
20
36.181
30
0.0
0
VERTEX
8
LOGO
10
156.614
20
36.678
30
0.0
0
VERTEX
8
LOGO
10
156.445
20
37.182
30
0.0
0
VERTEX
8
LOGO
10
156.290
20
37.694
30
0.0
0
VERTEX
8
LOGO
10
156.148
20
38.213
30
0.0
0
VERTEX
8
LOGO
10
156.020
20
38.740
30
0.0
0
VERTEX
8
LOGO
10
155.904
20
39.274
30
0.0
0
VERTEX
8
LOGO
10
155.802
20
39.815
30
0.0
0
VERTEX
8
LOGO
10
155.713
20
40.364
30
0.0
0
VERTEX
8
LOGO
10
155.637
20
40.920
30
0.0
0
VERTEX
8
LOGO
10
155.575
20
41.483
30
0.0
0
VERTEX
8
LOGO
10
154.155
20
56.523
30
0.0
0
VERTEX
8
LOGO
10
165.953
20
56.523
30
0.0
0
VERTEX
8
LOGO
10
167.373
20
41.483
30
0.0
0
VERTEX
8
LOGO
10
167.395
20
41.240
30
0.0
0
VERTEX
8
LOGO
10
167.426
20
41.002
30
0.0
0
VERTEX
8
LOGO
10
167.467
20
40.770
30
0.0
0
VERTEX
8
LOGO
10
167.517
20
40.543
30
0.0
0
VERTEX
8
LOGO
10
167.576
20
40.322
30
0.0
0
VERTEX
8
LOGO
10
167.644
20
40.105
30
0.0
0
VERTEX
8
LOGO
10
167.722
20
39.894
30
0.0
0
VERTEX
8
LOGO
10
167.809
20
39.689
30
0.0
0
VERTEX
8
LOGO
10
167.905
20
39.488
30
0.0
0
VERTEX
8
LOGO
10
168.010
20
39.293
30
0.0
0
VERTEX
8
LOGO
10
168.124
20
39.103
30
0.0
0
VERTEX
8
LOGO
10
168.247
20
38.919
30
0.0
0
VERTEX
8
LOGO
10
168.379
20
38.740
30
0.0
0
VERTEX
8
LOGO
10
168.520
20
38.566
30
0.0
0
VERTEX
8
LOGO
10
168.670
20
38.397
30
0.0
0
VERTEX
8
LOGO
10
168.827
20
38.239
30
0.0
0
VERTEX
8
LOGO
10
168.989
20
38.092
30
0.0
0
VERTEX
8
LOGO
10
169.156
20
37.955
30
0.0
0
VERTEX
8
LOGO
10
169.326
20
37.830
30
0.0
0
VERTEX
8
LOGO
10
169.501
20
37.715
30
0.0
0
VERTEX
8
LOGO
10
169.680
20
37.612
30
0.0
0
VERTEX
8
LOGO
10
169.863
20
37.519
30
0.0
0
VERTEX
8
LOGO
10
170.050
20
37.437
30
0.0
0
VERTEX
8
LOGO
10
170.241
20
37.366
30
0.0
0
VERTEX
8
LOGO
10
170.437
20
37.307
30
0.0
0
VERTEX
8
LOGO
10
170.636
20
37.257
30
0.0
0
VERTEX
8
LOGO
10
170.840
20
37.219
30
0.0
0
VERTEX
8
LOGO
10
171.047
20
37.192
30
0.0
0
VERTEX
8
LOGO
10
171.259
20
37.176
30
0.0
0
VERTEX
8
LOGO
10
171.475
20
37.170
30
0.0
0
VERTEX
8
LOGO
10
197.613
20
37.170
30
0.0
0
VERTEX
8
LOGO
10
197.836
20
37.176
30
0.0
0
VERTEX
8
LOGO
10
198.054
20
37.192
30
0.0
0
VERTEX
8
LOGO
10
198.267
20
37.219
30
0.0
0
VERTEX
8
LOGO
10
198.475
20
37.257
30
0.0
0
VERTEX
8
LOGO
10
198.678
20
37.307
30
0.0
0
VERTEX
8
LOGO
10
198.876
20
37.366
30
0.0
0
VERTEX
8
LOGO
10
199.069
20
37.437
30
0.0
0
VERTEX
8
LOGO
10
199.257
20
37.519
30
0.0
0
VERTEX
8
LOGO
10
199.440
20
37.612
30
0.0
0
VERTEX
8
LOGO
10
199.618
20
37.715
30
0.0
0
VERTEX
8
LOGO
10
199.791
20
37.830
30
0.0
0
VERTEX
8
LOGO
10
199.959
20
37.955
30
0.0
0
VERTEX
8
LOGO
10
200.122
20
38.092
30
0.0
0
VERTEX
8
LOGO
10
200.281
20
38.239
30
0.0
0
VERTEX
8
LOGO
10
200.434
20
38.397
30
0.0
0
VERTEX
8
LOGO
10
200.580
20
38.566
30
0.0
0
VERTEX
8
LOGO
10
200.718
20
38.740
30
0.0
0
VERTEX
8
LOGO
10
200.847
20
38.919
30
0.0
0
VERTEX
8
LOGO
10
200.967
20
39.103
30
0.0
0
VERTEX
8
LOGO
10
201.079
20
39.293
30
0.0
0
VERTEX
8
LOGO
10
201.181
20
39.488
30
0.0
0
VERTEX
8
LOGO
10
201.275
20
39.689
30
0.0
0
VERTEX
8
LOGO
10
201.361
20
39.894
30
0.0
0
VERTEX
8
LOGO
10
201.437
20
40.105
30
0.0
0
VERTEX
8
LOGO
10
201.505
20
40.322
30
0.0
0
VERTEX
8
LOGO
10
201.565
20
40.543
30
0.0
0
VERTEX
8
LOGO
10
201.615
20
40.770
30
0.0
0
VERTEX
8
LOGO
10
201.657
20
41.002
30
0.0
0
VERTEX
8
LOGO
10
201.690
20
41.240
30
0.0
0
VERTEX
8
LOGO
10
201.714
20
41.483
30
0.0
0
VERTEX
8
LOGO
10
203.134
20
56.523
30
0.0
0
VERTEX
8
LOGO
10
214.932
20
56.523
30
0.0
0
VERTEX
8
LOGO
10
213.581
20
41.483
30
0.0
0
VERTEX
8
LOGO
10
213.519
20
40.920
30
0.0
0
VERTEX
8
LOGO
10
213.442
20
40.364
30
0.0
0
VERTEX
8
LOGO
10
213.352
20
39.815
30
0.0
0
VERTEX
8
LOGO
10
213.249
20
39.274
30
0.0
0
VERTEX
8
LOGO
10
213.132
20
38.740
30
0.0
0
VERTEX
8
LOGO
10
213.001
20
38.213
30
0.0
0
VERTEX
8
LOGO
10
212.857
20
37.694
30
0.0
0
VERTEX
8
LOGO
10
212.700
20
37.182
30
0.0
0
VERTEX
8
LOGO
10
212.528
20
36.678
30
0.0
0
VERTEX
8
LOGO
10
212.343
20
36.181
30
0.0
0
VERTEX
8
LOGO
10
212.145
20
35.691
30
0.0
0
VERTEX
8
LOGO
10
211.933
20
35.208
30
0.0
0
VERTEX
8
LOGO
10
211.707
20
34.733
30
0.0
0
VERTEX
8
LOGO
10
211.468
20
34.265
30
0.0
0
VERTEX
8
LOGO
10
211.215
20
33.805
30
0.0
0
VERTEX
8
LOGO
10
210.949
20
33.355
30
0.0
0
VERTEX
8
LOGO
10
210.669
20
32.918
30
0.0
0
VERTEX
8
LOGO
10
210.376
20
32.494
30
0.0
0
VERTEX
8
LOGO
10
210.070
20
32.083
30
0.0
0
VERTEX
8
LOGO
10
209.751
20
31.685
30
0.0
0
VERTEX
8
LOGO
10
209.418
20
31.299
30
0.0
0
VERTEX
8
LOGO
10
209.073
20
30.926
30
0.0
0
VERTEX
8
LOGO
10
208.714
20
30.566
30
0.0
0
VERTEX
8
LOGO
10
208.341
20
30.219
30
0.0
0
VERTEX
8
LOGO
10
207.956
20
29.885
30
0.0
0
VERTEX
8
LOGO
10
207.558
20
29.563
30
0.0
0
VERTEX
8
LOGO
10
207.146
20
29.254
30
0.0
0
VERTEX
8
LOGO
10
206.722
20
28.958
30
0.0
0
VERTEX
8
LOGO
10
206.284
20
28.675
30
0.0
0
VERTEX
8
LOGO
10
205.834
20
28.404
30
0.0
0
VERTEX
8
LOGO
10
205.372
20
28.148
30
0.0
0
VERTEX
8
LOGO
10
204.897
20
27.910
30
0.0
0
VERTEX
8
LOGO
10
204.410
20
27.689
30
0.0
0
VERTEX
8
LOGO
10
203.911
20
27.487
30
0.0
0
VERTEX
8
LOGO
10
203.399
20
27.302
30
0.0
0
VERTEX
8
LOGO
10
202.875
20
27.135
30
0.0
0
VERTEX
8
LOGO
10
202.339
20
26.985
30
0.0
0
VERTEX
8
LOGO
10
201.791
20
26.853
30
0.0
0
VERTEX
8
LOGO
10
201.230
20
26.739
30
0.0
0
VERTEX
8
LOGO
10
200.658
20
26.643
30
0.0
0
VERTEX
8
LOGO
10
200.073
20
26.564
30
0.0
0
VERTEX
8
LOGO
10
199.476
20
26.502
30
0.0
0
VERTEX
8
LOGO
10
198.867
20
26.459
30
0.0
0
VERTEX
8
LOGO
10
198.246
20
26.432
30
0.0
0
VERTEX
8
LOGO
10
197.613
20
26.424
30
0.0
0
VERTEX
8
LOGO
10
171.475
20
26.424
30
0.0
0
SEQEND
0
POLYLINE
8
LOGO
66
1
70
1
0
VERTEX
8
LOGO
10
219.291
20
26.424
30
0.0
0
VERTEX
8
LOGO
10
219.291
20
56.523
30
0.0
0
VERTEX
8
LOGO
10
231.158
20
56.523
30
0.0
0
VERTEX
8
LOGO
10
231.158
20
26.424
30
0.0
0
VERTEX
8
LOGO
10
219.291
20
26.424
30
0.0
0
VERTEX
8
LOGO
10
219.291
20
71.512
30
0.0
0
VERTEX
8
LOGO
10
230.808
20
71.512
30
0.0
0
VERTEX
8
LOGO
10
230.808
20
60.765
30
0.0
0
VERTEX
8
LOGO
10
219.291
20
60.765
30
0.0
0
SEQEND
0
POLYLINE
8
LOGO
66
1
70
1
0
VERTEX
8
LOGO
10
251.512
20
26.424
30
0.0
0
VERTEX
8
LOGO
10
250.876
20
26.432
30
0.0
0
VERTEX
8
LOGO
10
250.252
20
26.459
30
0.0
0
VERTEX
8
LOGO
10
249.638
20
26.502
30
0.0
0
VERTEX
8
LOGO
10
249.034
20
26.564
30
0.0
0
VERTEX
8
LOGO
10
248.442
20
26.643
30
0.0
0
VERTEX
8
LOGO
10
247.859
20
26.739
30
0.0
0
VERTEX
8
LOGO
10
247.288
20
26.853
30
0.0
0
VERTEX
8
LOGO
10
246.727
20
26.985
30
0.0
0
VERTEX
8
LOGO
10
246.176
20
27.135
30
0.0
0
VERTEX
8
LOGO
10
245.637
20
27.302
30
0.0
0
VERTEX
8
LOGO
10
245.108
20
27.487
30
0.0
0
VERTEX
8
LOGO
10
244.589
20
27.689
30
0.0
0
VERTEX
8
LOGO
10
244.081
20
27.910
30
0.0
0
VERTEX
8
LOGO
10
243.584
20
28.148
30
0.0
0
VERTEX
8
LOGO
10
243.097
20
28.404
30
0.0
0
VERTEX
8
LOGO
10
242.625
20
28.675
30
0.0
0
VERTEX
8
LOGO
10
242.167
20
28.958
30
0.0
0
VERTEX
8
LOGO
10
241.724
20
29.254
30
0.0
0
VERTEX
8
LOGO
10
241.295
20
29.563
30
0.0
0
VERTEX
8
LOGO
10
240.880
20
29.885
30
0.0
0
VERTEX
8
LOGO
10
240.480
20
30.219
30
0.0
0
VERTEX
8
LOGO
10
240.094
20
30.566
30
0.0
0
VERTEX
8
LOGO
10
239.722
20
30.926
30
0.0
0
VERTEX
8
LOGO
10
239.365
20
31.299
30
0.0
0
VERTEX
8
LOGO
10
239.022
20
31.685
30
0.0
0
VERTEX
8
LOGO
10
238.693
20
32.083
30
0.0
0
VERTEX
8
LOGO
10
238.379
20
32.494
30
0.0
0
VERTEX
8
LOGO
10
238.079
20
32.918
30
0.0
0
VERTEX
8
LOGO
10
237.793
20
33.355
30
0.0
0
VERTEX
8
LOGO
10
237.522
20
33.805
30
0.0
0
VERTEX
8
LOGO
10
237.266
20
34.265
30
0.0
0
VERTEX
8
LOGO
10
237.027
20
34.733
30
0.0
0
VERTEX
8
LOGO
10
236.807
20
35.208
30
0.0
0
VERTEX
8
LOGO
10
236.604
20
35.691
30
0.0
0
VERTEX
8
LOGO
10
236.419
20
36.181
30
0.0
0
VERTEX
8
LOGO
10
236.252
20
36.678
30
0.0
0
VERTEX
8
LOGO
10
236.103
20
37.182
30
0.0
0
VERTEX
8
LOGO
10
235.971
20
37.694
30
0.0
0
VERTEX
8
LOGO
10
235.857
20
38.213
30
0.0
0
VERTEX
8
LOGO
10
235.760
20
38.740
30
0.0
0
VERTEX
8
LOGO
10
235.681
20
39.274
30
0.0
0
VERTEX
8
LOGO
10
235.620
20
39.815
30
0.0
0
VERTEX
8
LOGO
10
235.576
20
40.364
30
0.0
0
VERTEX
8
LOGO
10
235.550
20
40.920
30
0.0
0
VERTEX
8
LOGO
10
235.541
20
41.483
30
0.0
0
VERTEX
8
LOGO
10
235.550
20
42.052
30
0.0
0
VERTEX
8
LOGO
10
235.576
20
42.612
30
0.0
0
VERTEX
8
LOGO
10
235.620
20
43.164
30
0.0
0
VERTEX
8
LOGO
10
235.681
20
43.709
30
0.0
0
VERTEX
8
LOGO
10
235.760
20
44.245
30
0.0
0
VERTEX
8
LOGO
10
235.857
20
44.773
30
0.0
0
VERTEX
8
LOGO
10
235.971
20
45.293
30
0.0
0
VERTEX
8
LOGO
10
236.103
20
45.805
30
0.0
0
VERTEX
8
LOGO
10
236.252
20
46.308
30
0.0
0
VERTEX
8
LOGO
10
236.419
20
46.804
30
0.0
0
VERTEX
8
LOGO
10
236.604
20
47.292
30
0.0
0
VERTEX
8
LOGO
10
236.807
20
47.771
30
0.0
0
VERTEX
8
LOGO
10
237.027
20
48.242
30
0.0
0
VERTEX
8
LOGO
10
237.266
20
48.705
30
0.0
0
VERTEX
8
LOGO
10
237.522
20
49.160
30
0.0
0
VERTEX
8
LOGO
10
237.793
20
49.607
30
0.0
0
VERTEX
8
LOGO
10
238.079
20
50.042
30
0.0
0
VERTEX
8
LOGO
10
238.379
20
50.463
30
0.0
0
VERTEX
8
LOGO
10
238.693
20
50.872
30
0.0
0
VERTEX
8
LOGO
10
239.022
20
51.268
30
0.0
0
VERTEX
8
LOGO
10
239.365
20
51.652
30
0.0
0
VERTEX
8
LOGO
10
239.722
20
52.023
30
0.0
0
VERTEX
8
LOGO
10
240.094
20
52.382
30
0.0
0
VERTEX
8
LOGO
10
240.480
20
52.728
30
0.0
0
VERTEX
8
LOGO
10
240.880
20
53.061
30
0.0
0
VERTEX
8
LOGO
10
241.295
20
53.382
30
0.0
0
VERTEX
8
LOGO
10
241.724
20
53.691
30
0.0
0
VERTEX
8
LOGO
10
242.167
20
53.987
30
0.0
0
VERTEX
8
LOGO
10
242.625
20
54.271
30
0.0
0
VERTEX
8
LOGO
10
243.097
20
54.542
30
0.0
0
VERTEX
8
LOGO
10
243.584
20
54.798
30
0.0
0
VERTEX
8
LOGO
10
244.081
20
55.035
30
0.0
0
VERTEX
8
LOGO
10
244.589
20
55.256
30
0.0
0
VERTEX
8
LOGO
10
245.108
20
55.458
30
0.0
0
VERTEX
8
LOGO
10
245.637
20
55.643
30
0.0
0
VERTEX
8
LOGO
10
246.176
20
55.810
30
0.0
0
VERTEX
8
LOGO
10
246.727
20
55.960
30
0.0
0
VERTEX
8
LOGO
10
247.288
20
56.092
30
0.0
0
VERTEX
8
LOGO
10
247.859
20
56.206
30
0.0
0
VERTEX
8
LOGO
10
248.442
20
56.303
30
0.0
0
VERTEX
8
LOGO
10
249.034
20
56.382
30
0.0
0
VERTEX
8
LOGO
10
249.638
20
56.444
30
0.0
0
VERTEX
8
LOGO
10
250.252
20
56.488
30
0.0
0
VERTEX
8
LOGO
10
250.876
20
56.514
30
0.0
0
VERTEX
8
LOGO
10
251.512
20
56.523
30
0.0
0
VERTEX
8
LOGO
10
300.000
20
56.523
30
0.0
0
VERTEX
8
LOGO
10
300.000
20
45.778
30
0.0
0
VERTEX
8
LOGO
10
251.512
20
45.778
30
0.0
0
VERTEX
8
LOGO
10
251.289
20
45.772
30
0.0
0
VERTEX
8
LOGO
10
251.071
20
45.756
30
0.0
0
VERTEX
8
LOGO
10
250.856
20
45.728
30
0.0
0
VERTEX
8
LOGO
10
250.645
20
45.689
30
0.0
0
VERTEX
8
LOGO
10
250.438
20
45.639
30
0.0
0
VERTEX
8
LOGO
10
250.236
20
45.578
30
0.0
0
VERTEX
8
LOGO
10
250.037
20
45.506
30
0.0
0
VERTEX
8
LOGO
10
249.841
20
45.423
30
0.0
0
VERTEX
8
LOGO
10
249.650
20
45.329
30
0.0
0
VERTEX
8
LOGO
10
249.463
20
45.224
30
0.0
0
VERTEX
8
LOGO
10
249.279
20
45.108
30
0.0
0
VERTEX
8
LOGO
10
249.100
20
44.981
30
0.0
0
VERTEX
8
LOGO
10
248.924
20
44.843
30
0.0
0
VERTEX
8
LOGO
10
248.752
20
44.693
30
0.0
0
VERTEX
8
LOGO
10
248.584
20
44.533
30
0.0
0
VERTEX
8
LOGO
10
248.423
20
44.367
30
0.0
0
VERTEX
8
LOGO
10
248.272
20
44.195
30
0.0
0
VERTEX
8
LOGO
10
248.134
20
44.018
30
0.0
0
VERTEX
8
LOGO
10
248.006
20
43.836
30
0.0
0
VERTEX
8
LOGO
10
247.890
20
43.649
30
0.0
0
VERTEX
8
LOGO
10
247.785
20
43.456
30
0.0
0
VERTEX
8
LOGO
10
247.691
20
43.258
30
0.0
0
VERTEX
8
LOGO
10
247.608
20
43.054
30
0.0
0
VERTEX
8
LOGO
10
247.537
20
42.846
30
0.0
0
VERTEX
8
LOGO
10
247.476
20
42.632
30
0.0
0
VERTEX
8
LOGO
10
247.427
20
42.413
30
0.0
0
VERTEX
8
LOGO
10
247.389
20
42.188
30
0.0
0
VERTEX
8
LOGO
10
247.361
20
41.958
30
0.0
0
VERTEX
8
LOGO
10
247.345
20
41.723
30
0.0
0
VERTEX
8
LOGO
10
247.340
20
41.483
30
0.0
0
VERTEX
8
LOGO
10
247.345
20
41.240
30
0.0
0
VERTEX
8
LOGO
10
247.361
20
41.002
30
0.0
0
VERTEX
8
LOGO
10
247.389
20
40.770
30
0.0
0
VERTEX
8
LOGO
10
247.427
20
40.543
30
0.0
0
VERTEX
8
LOGO
10
247.476
20
40.322
30
0.0
0
VERTEX
8
LOGO
10
247.537
20
40.105
30
0.0
0
VERTEX
8
LOGO
10
247.608
20
39.894
30
0.0
0
VERTEX
8
LOGO
10
247.691
20
39.689
30
0.0
0
VERTEX
8
LOGO
10
247.785
20
39.488
30
0.0
0
VERTEX
8
LOGO
10
247.890
20
39.293
30
0.0
0
VERTEX
8
LOGO
10
248.006
20
39.103
30
0.0
0
VERTEX
8
LOGO
10
248.134
20
38.919
30
0.0
0
VERTEX
8
LOGO
10
248.272
20
38.740
30
0.0
0
VERTEX
8
LOGO
10
248.423
20
38.566
30
0.0
0
VERTEX
8
LOGO
10
248.584
20
38.397
30
0.0
0
VERTEX
8
LOGO
10
248.752
20
38.239
30
0.0
0
VERTEX
8
LOGO
10
248.924
20
38.092
30
0.0
0
VERTEX
8
LOGO
10
249.100
20
37.955
30
0.0
0
VERTEX
8
LOGO
10
249.279
20
37.830
30
0.0
0
VERTEX
8
LOGO
10
249.463
20
37.715
30
0.0
0
VERTEX
8
LOGO
10
249.650
20
37.612
30
0.0
0
VERTEX
8
LOGO
10
249.841
20
37.519
30
0.0
0
VERTEX
8
LOGO
10
250.037
20
37.437
30
0.0
0
VERTEX
8
LOGO
10
250.236
20
37.366
30
0.0
0
VERTEX
8
LOGO
10
250.438
20
37.307
30
0.0
0
VERTEX
8
LOGO
10
250.645
20
37.257
30
0.0
0
VERTEX
8
LOGO
10
250.856
20
37.219
30
0.0
0
VERTEX
8
LOGO
10
251.071
20
37.192
30
0.0
0
VERTEX
8
LOGO
10
251.289
20
37.176
30
0.0
0
VERTEX
8
LOGO
10
251.512
20
37.170
30
0.0
0
VERTEX
8
LOGO
10
300.000
20
37.170
30
0.0
0
VERTEX
8
LOGO
10
300.000
20
26.424
30
0.0
0
VERTEX
8
LOGO
10
251.512
20
26.424
30
0.0
0
SEQEND
0
POLYLINE
8
LOGO
66
1
70
1
0
VERTEX
8
LOGO
10
67.175
20
11.658
30
0.0
0
VERTEX
8
LOGO
10
68.771
20
11.658
30
0.0
0
VERTEX
8
LOGO
10
71.015
20
5.382
30
0.0
0
VERTEX
8
LOGO
10
71.856
20
2.963
30
0.0
0
VERTEX
8
LOGO
10
71.926
20
2.963
30
0.0
0
VERTEX
8
LOGO
10
71.942
20
3.008
30
0.0
0
VERTEX
8
LOGO
10
71.959
20
3.056
30
0.0
0
VERTEX
8
LOGO
10
71.977
20
3.107
30
0.0
0
VERTEX
8
LOGO
10
71.996
20
3.161
30
0.0
0
VERTEX
8
LOGO
10
72.015
20
3.218
30
0.0
0
VERTEX
8
LOGO
10
72.036
20
3.279
30
0.0
0
VERTEX
8
LOGO
10
72.058
20
3.342
30
0.0
0
VERTEX
8
LOGO
10
72.080
20
3.409
30
0.0
0
VERTEX
8
LOGO
10
72.104
20
3.478
30
0.0
0
VERTEX
8
LOGO
10
72.128
20
3.551
30
0.0
0
VERTEX
8
LOGO
10
72.153
20
3.627
30
0.0
0
VERTEX
8
LOGO
10
72.179
20
3.707
30
0.0
0
VERTEX
8
LOGO
10
72.205
20
3.789
30
0.0
0
VERTEX
8
LOGO
10
72.232
20
3.874
30
0.0
0
VERTEX
8
LOGO
10
72.260
20
3.963
30
0.0
0
VERTEX
8
LOGO
10
72.296
20
4.070
30
0.0
0
VERTEX
8
LOGO
10
72.332
20
4.176
30
0.0
0
VERTEX
8
LOGO
10
72.367
20
4.280
30
0.0
0
VERTEX
8
LOGO
10
72.402
20
4.382
30
0.0
0
VERTEX
8
LOGO
10
72.436
20
4.482
30
0.0
0
VERTEX
8
LOGO
10
72.470
20
4.581
30
0.0
0
VERTEX
8
LOGO
10
72.504
20
4.677
30
0.0
0
VERTEX
8
LOGO
10
72.537
20
4.772
30
0.0
0
VERTEX
8
LOGO
10
72.569
20
4.864
30
0.0
0
VERTEX
8
LOGO
10
72.601
20
4.955
30
0.0
0
VERTEX
8
LOGO
10
72.632
20
5.044
30
0.0
0
VERTEX
8
LOGO
10
72.663
20
5.132
30
0.0
0
VERTEX
8
LOGO
10
72.693
20
5.217
30
0.0
0
VERTEX
8
LOGO
10
72.722
20
5.301
30
0.0
0
VERTEX
8
LOGO
10
72.751
20
5.382
30
0.0
0
VERTEX
8
LOGO
10
74.958
20
11.658
30
0.0
0
VERTEX
8
LOGO
10
76.555
20
11.658
30
0.0
0
VERTEX
8
LOGO
10
76.555
20
0.211
30
0.0
0
VERTEX
8
LOGO
10
75.362
20
0.211
30
0.0
0
VERTEX
8
LOGO
10
75.362
20
6.838
30
0.0
0
VERTEX
8
LOGO
10
75.363
20
6.980
30
0.0
0
VERTEX
8
LOGO
10
75.365
20
7.134
30
0.0
0
VERTEX
8
LOGO
10
75.369
20
7.298
30
0.0
0
VERTEX
8
LOGO
10
75.374
20
7.474
30
0.0
0
VERTEX
8
LOGO
10
75.380
20
7.662
30
0.0
0
VERTEX
8
LOGO
10
75.388
20
7.860
30
0.0
0
VERTEX
8
LOGO
10
75.397
20
8.070
30
0.0
0
VERTEX
8
LOGO
10
75.407
20
8.290
30
0.0
0
VERTEX
8
LOGO
10
75.419
20
8.522
30
0.0
0
VERTEX
8
LOGO
10
75.432
20
8.766
30
0.0
0
VERTEX
8
LOGO
10
75.447
20
9.020
30
0.0
0
VERTEX
8
LOGO
10
75.463
20
9.286
30
0.0
0
VERTEX
8
LOGO
10
75.480
20
9.562
30
0.0
0
VERTEX
8
LOGO
10
75.499
20
9.850
30
0.0
0
VERTEX
8
LOGO
10
75.519
20
10.150
30
0.0
0
VERTEX
8
LOGO
10
75.451
20
10.150
30
0.0
0
VERTEX
8
LOGO
10
74.538
20
7.538
30
0.0
0
VERTEX
8
LOGO
10
72.312
20
1.403
30
0.0
0
VERTEX
8
LOGO
10
71.401
20
1.403
30
0.0
0
VERTEX
8
LOGO
10
69.157
20
7.538
30
0.0
0
VERTEX
8
LOGO
10
68.245
20
10.150
30
0.0
0
VERTEX
8
LOGO
10
68.175
20
10.150
30
0.0
0
VERTEX
8
LOGO
10
68.210
20
9.711
30
0.0
0
VERTEX
8
LOGO
10
68.228
20
9.466
30
0.0
0
VERTEX
8
LOGO
10
68.245
20
9.229
30
0.0
0
VERTEX
8
LOGO
10
68.261
20
8.999
30
0.0
0
VERTEX
8
LOGO
10
68.275
20
8.777
30
0.0
0
VERTEX
8
LOGO
10
68.288
20
8.563
30
0.0
0
VERTEX
8
LOGO
10
68.299
20
8.356
30
0.0
0
VERTEX
8
LOGO
10
68.310
20
8.156
30
0.0
0
VERTEX
8
LOGO
10
68.319
20
7.965
30
0.0
0
VERTEX
8
LOGO
10
68.327
20
7.781
30
0.0
0
VERTEX
8
LOGO
10
68.334
20
7.605
30
0.0
0
VERTEX
8
LOGO
10
68.340
20
7.436
30
0.0
0
VERTEX
8
LOGO
10
68.344
20
7.275
30
0.0
0
VERTEX
8
LOGO
10
68.347
20
7.122
30
0.0
0
VERTEX
8
LOGO
10
68.349
20
6.976
30
0.0
0
VERTEX
8
LOGO
10
68.350
20
6.838
30
0.0
0
VERTEX
8
LOGO
10
68.350
20
0.211
30
0.0
0
VERTEX
8
LOGO
10
67.175
20
0.211
30
0.0
0
VERTEX
8
LOGO
10
67.175
20
11.658
30
0.0
0
SEQEND
0
POLYLINE
8
LOGO
66
1
70
1
0
VERTEX
8
LOGO
10
93.589
20
3.822
30
0.0
0
VERTEX
8
LOGO
10
89.310
20
3.822
30
0.0
0
VERTEX
8
LOGO
10
88.154
20
0.211
30
0.0
0
VERTEX
8
LOGO
10
86.839
20
0.211
30
0.0
0
VERTEX
8
LOGO
10
90.766
20
11.658
30
0.0
0
VERTEX
8
LOGO
10
92.185
20
11.658
30
0.0
0
VERTEX
8
LOGO
10
96.094
20
0.211
30
0.0
0
VERTEX
8
LOGO
10
94.727
20
0.211
30
0.0
0
VERTEX
8
LOGO
10
93.589
20
3.822
30
0.0
0
VERTEX
8
LOGO
10
92.658
20
6.697
30
0.0
0
VERTEX
8
LOGO
10
92.565
20
6.984
30
0.0
0
VERTEX
8
LOGO
10
92.473
20
7.266
30
0.0
0
VERTEX
8
LOGO
10
92.383
20
7.545
30
0.0
0
VERTEX
8
LOGO
10
92.296
20
7.819
30
0.0
0
VERTEX
8
LOGO
10
92.210
20
8.090
30
0.0
0
VERTEX
8
LOGO
10
92.127
20
8.356
30
0.0
0
VERTEX
8
LOGO
10
92.045
20
8.619
30
0.0
0
VERTEX
8
LOGO
10
91.966
20
8.877
30
0.0
0
VERTEX
8
LOGO
10
91.889
20
9.131
30
0.0
0
VERTEX
8
LOGO
10
91.813
20
9.381
30
0.0
0
VERTEX
8
LOGO
10
91.740
20
9.627
30
0.0
0
VERTEX
8
LOGO
10
91.669
20
9.870
30
0.0
0
VERTEX
8
LOGO
10
91.600
20
10.108
30
0.0
0
VERTEX
8
LOGO
10
91.532
20
10.342
30
0.0
0
VERTEX
8
LOGO
10
91.467
20
10.572
30
0.0
0
VERTEX
8
LOGO
10
91.397
20
10.572
30
0.0
0
VERTEX
8
LOGO
10
91.321
20
10.292
30
0.0
0
VERTEX
8
LOGO
10
91.245
20
10.016
30
0.0
0
VERTEX
8
LOGO
10
91.168
20
9.743
30
0.0
0
VERTEX
8
LOGO
10
91.092
20
9.472
30
0.0
0
VERTEX
8
LOGO
10
91.015
20
9.204
30
0.0
0
VERTEX
8
LOGO
10
90.938
20
8.940
30
0.0
0
VERTEX
8
LOGO
10
90.861
20
8.678
30
0.0
0
VERTEX
8
LOGO
10
90.784
20
8.420
30
0.0
0
VERTEX
8
LOGO
10
90.707
20
8.164
30
0.0
0
VERTEX
8
LOGO
10
90.629
20
7.912
30
0.0
0
VERTEX
8
LOGO
10
90.551
20
7.662
30
0.0
0
VERTEX
8
LOGO
10
90.474
20
7.416
30
0.0
0
VERTEX
8
LOGO
10
90.396
20
7.173
30
0.0
0
VERTEX
8
LOGO
10
90.318
20
6.934
30
0.0
0
VERTEX
8
LOGO
10
90.239
20
6.697
30
0.0
0
VERTEX
8
LOGO
10
89.644
20
4.839
30
0.0
0
VERTEX
8
LOGO
10
93.255
20
4.839
30
0.0
0
SEQEND
0
POLYLINE
8
LOGO
66
1
70
1
0
VERTEX
8
LOGO
10
112.667
20
0.211
30
0.0
0
VERTEX
8
LOGO
10
109.827
20
5.153
30
0.0
0
VERTEX
8
LOGO
10
107.671
20
5.153
30
0.0
0
VERTEX
8
LOGO
10
107.671
20
0.211
30
0.0
0
VERTEX
8
LOGO
10
106.373
20
0.211
30
0.0
0
VERTEX
8
LOGO
10
106.373
20
11.658
30
0.0
0
VERTEX
8
LOGO
10
109.879
20
11.658
30
0.0
0
VERTEX
8
LOGO
10
110.387
20
11.643
30
0.0
0
VERTEX
8
LOGO
10
110.861
20
11.601
30
0.0
0
VERTEX
8
LOGO
10
111.299
20
11.530
30
0.0
0
VERTEX
8
LOGO
10
111.702
20
11.431
30
0.0
0
VERTEX
8
LOGO
10
112.070
20
11.304
30
0.0
0
VERTEX
8
LOGO
10
112.404
20
11.148
30
0.0
0
VERTEX
8
LOGO
10
112.702
20
10.965
30
0.0
0
VERTEX
8
LOGO
10
112.965
20
10.753
30
0.0
0
VERTEX
8
LOGO
10
113.193
20
10.513
30
0.0
0
VERTEX
8
LOGO
10
113.385
20
10.245
30
0.0
0
VERTEX
8
LOGO
10
113.543
20
9.949
30
0.0
0
VERTEX
8
LOGO
10
113.666
20
9.625
30
0.0
0
VERTEX
8
LOGO
10
113.754
20
9.273
30
0.0
0
VERTEX
8
LOGO
10
113.806
20
8.893
30
0.0
0
VERTEX
8
LOGO
10
113.824
20
8.485
30
0.0
0
VERTEX
8
LOGO
10
113.821
20
8.313
30
0.0
0
VERTEX
8
LOGO
10
113.811
20
8.145
30
0.0
0
VERTEX
8
LOGO
10
113.795
20
7.982
30
0.0
0
VERTEX
8
LOGO
10
113.773
20
7.823
30
0.0
0
VERTEX
8
LOGO
10
113.744
20
7.669
30
0.0
0
VERTEX
8
LOGO
10
113.709
20
7.518
30
0.0
0
VERTEX
8
LOGO
10
113.667
20
7.373
30
0.0
0
VERTEX
8
LOGO
10
113.619
20
7.231
30
0.0
0
VERTEX
8
LOGO
10
113.565
20
7.094
30
0.0
0
VERTEX
8
LOGO
10
113.504
20
6.961
30
0.0
0
VERTEX
8
LOGO
10
113.437
20
6.833
30
0.0
0
VERTEX
8
LOGO
10
113.363
20
6.709
30
0.0
0
VERTEX
8
LOGO
10
113.283
20
6.590
30
0.0
0
VERTEX
8
LOGO
10
113.197
20
6.474
30
0.0
0
VERTEX
8
LOGO
10
113.104
20
6.364
30
0.0
0
VERTEX
8
LOGO
10
113.008
20
6.255
30
0.0
0
VERTEX
8
LOGO
10
112.908
20
6.152
30
0.0
0
VERTEX
8
LOGO
10
112.802
20
6.054
30
0.0
0
VERTEX
8
LOGO
10
112.692
20
5.962
30
0.0
0
VERTEX
8
LOGO
10
112.577
20
5.874
30
0.0
0
VERTEX
8
LOGO
10
112.457
20
5.792
30
0.0
0
VERTEX
8
LOGO
10
112.332
20
5.715
30
0.0
0
VERTEX
8
LOGO
10
112.202
20
5.643
30
0.0
0
VERTEX
8
LOGO
10
112.068
20
5.576
30
0.0
0
VERTEX
8
LOGO
10
111.928
20
5.514
30
0.0
0
VERTEX
8
LOGO
10
111.784
20
5.457
30
0.0
0
VERTEX
8
LOGO
10
111.635
20
5.404
30
0.0
0
VERTEX
8
LOGO
10
111.481
20
5.357
30
0.0
0
VERTEX
8
LOGO
10
111.323
20
5.315
30
0.0
0
VERTEX
8
LOGO
10
111.159
20
5.278
30
0.0
0
VERTEX
8
LOGO
10
114.139
20
0.211
30
0.0
0
VERTEX
8
LOGO
10
112.667
20
0.211
30
0.0
0
VERTEX
8
LOGO
10
109.670
20
6.207
30
0.0
0
VERTEX
8
LOGO
10
109.853
20
6.209
30
0.0
0
VERTEX
8
LOGO
10
110.031
20
6.217
30
0.0
0
VERTEX
8
LOGO
10
110.203
20
6.230
30
0.0
0
VERTEX
8
LOGO
10
110.369
20
6.248
30
0.0
0
VERTEX
8
LOGO
10
110.528
20
6.271
30
0.0
0
VERTEX
8
LOGO
10
110.682
20
6.299
30
0.0
0
VERTEX
8
LOGO
10
110.829
20
6.332
30
0.0
0
VERTEX
8
LOGO
10
110.971
20
6.371
30
0.0
0
VERTEX
8
LOGO
10
111.106
20
6.415
30
0.0
0
VERTEX
8
LOGO
10
111.235
20
6.463
30
0.0
0
VERTEX
8
LOGO
10
111.358
20
6.517
30
0.0
0
VERTEX
8
LOGO
10
111.476
20
6.576
30
0.0
0
VERTEX
8
LOGO
10
111.587
20
6.640
30
0.0
0
VERTEX
8
LOGO
10
111.692
20
6.710
30
0.0
0
VERTEX
8
LOGO
10
111.791
20
6.784
30
0.0
0
VERTEX
8
LOGO
10
111.886
20
6.863
30
0.0
0
VERTEX
8
LOGO
10
111.974
20
6.948
30
0.0
0
VERTEX
8
LOGO
10
112.056
20
7.037
30
0.0
0
VERTEX
8
LOGO
10
112.131
20
7.130
30
0.0
0
VERTEX
8
LOGO
10
112.200
20
7.229
30
0.0
0
VERTEX
8
LOGO
10
112.262
20
7.332
30
0.0
0
VERTEX
8
LOGO
10
112.317
20
7.440
30
0.0
0
VERTEX
8
LOGO
10
112.366
20
7.554
30
0.0
0
VERTEX
8
LOGO
10
112.409
20
7.672
30
0.0
0
VERTEX
8
LOGO
10
112.445
20
7.795
30
0.0
0
VERTEX
8
LOGO
10
112.474
20
7.922
30
0.0
0
VERTEX
8
LOGO
10
112.497
20
8.055
30
0.0
0
VERTEX
8
LOGO
10
112.514
20
8.193
30
0.0
0
VERTEX
8
LOGO
10
112.523
20
8.337
30
0.0
0
VERTEX
8
LOGO
10
112.527
20
8.485
30
0.0
0
VERTEX
8
LOGO
10
112.524
20
8.633
30
0.0
0
VERTEX
8
LOGO
10
112.514
20
8.775
30
0.0
0
VERTEX
8
LOGO
10
112.498
20
8.912
30
0.0
0
VERTEX
8
LOGO
10
112.476
20
9.043
30
0.0
0
VERTEX
8
LOGO
10
112.447
20
9.168
30
0.0
0
VERTEX
8
LOGO
10
112.412
20
9.288
30
0.0
0
VERTEX
8
LOGO
10
112.370
20
9.403
30
0.0
0
VERTEX
8
LOGO
10
112.322
20
9.511
30
0.0
0
VERTEX
8
LOGO
10
112.268
20
9.614
30
0.0
0
VERTEX
8
LOGO
10
112.207
20
9.712
30
0.0
0
VERTEX
8
LOGO
10
112.140
20
9.804
30
0.0
0
VERTEX
8
LOGO
10
112.066
20
9.890
30
0.0
0
VERTEX
8
LOGO
10
111.986
20
9.971
30
0.0
0
VERTEX
8
LOGO
10
111.900
20
10.046
30
0.0
0
VERTEX
8
LOGO
10
111.807
20
10.115
30
0.0
0
VERTEX
8
LOGO
10
111.711
20
10.178
30
0.0
0
VERTEX
8
LOGO
10
111.607
20
10.236
30
0.0
0
VERTEX
8
LOGO
10
111.498
20
10.290
30
0.0
0
VERTEX
8
LOGO
10
111.381
20
10.340
30
0.0
0
VERTEX
8
LOGO
10
111.258
20
10.385
30
0.0
0
VERTEX
8
LOGO
10
111.129
20
10.427
30
0.0
0
VERTEX
8
LOGO
10
110.993
20
10.464
30
0.0
0
VERTEX
8
LOGO
10
110.850
20
10.497
30
0.0
0
VERTEX
8
LOGO
10
110.701
20
10.526
30
0.0
0
VERTEX
8
LOGO
10
110.546
20
10.550
30
0.0
0
VERTEX
8
LOGO
10
110.383
20
10.570
30
0.0
0
VERTEX
8
LOGO
10
110.215
20
10.586
30
0.0
0
VERTEX
8
LOGO
10
110.039
20
10.597
30
0.0
0
VERTEX
8
LOGO
10
109.858
20
10.604
30
0.0
0
VERTEX
8
LOGO
10
109.670
20
10.606
30
0.0
0
VERTEX
8
LOGO
10
107.671
20
10.606
30
0.0
0
VERTEX
8
LOGO
10
107.671
20
6.207
30
0.0
0
SEQEND
0
POLYLINE
8
LOGO
66
1
70
1
0
VERTEX
8
LOGO
10
129.069
20
0.000
30
0.0
0
VERTEX
8
LOGO
10
128.878
20
0.003
30
0.0
0
VERTEX
8
LOGO
10
128.691
20
0.012
30
0.0
0
VERTEX
8
LOGO
10
128.506
20
0.028
30
0.0
0
VERTEX
8
LOGO
10
128.324
20
0.050
30
0.0
0
VERTEX
8
LOGO
10
128.145
20
0.079
30
0.0
0
VERTEX
8
LOGO
10
127.968
20
0.113
30
0.0
0
VERTEX
8
LOGO
10
127.794
20
0.154
30
0.0
0
VERTEX
8
LOGO
10
127.623
20
0.202
30
0.0
0
VERTEX
8
LOGO
10
127.455
20
0.256
30
0.0
0
VERTEX
8
LOGO
10
127.290
20
0.317
30
0.0
0
VERTEX
8
LOGO
10
127.128
20
0.384
30
0.0
0
VERTEX
8
LOGO
10
126.969
20
0.458
30
0.0
0
VERTEX
8
LOGO
10
126.812
20
0.538
30
0.0
0
VERTEX
8
LOGO
10
126.659
20
0.626
30
0.0
0
VERTEX
8
LOGO
10
126.509
20
0.720
30
0.0
0
VERTEX
8
LOGO
10
126.362
20
0.817
30
0.0
0
VERTEX
8
LOGO
10
126.219
20
0.920
30
0.0
0
VERTEX
8
LOGO
10
126.080
20
1.028
30
0.0
0
VERTEX
8
LOGO
10
125.946
20
1.143
30
0.0
0
VERTEX
8
LOGO
10
125.816
20
1.263
30
0.0
0
VERTEX
8
LOGO
10
125.690
20
1.388
30
0.0
0
VERTEX
8
LOGO
10
125.569
20
1.519
30
0.0
0
VERTEX
8
LOGO
10
125.452
20
1.656
30
0.0
0
VERTEX
8
LOGO
10
125.340
20
1.798
30
0.0
0
VERTEX
8
LOGO
10
125.232
20
1.946
30
0.0
0
VERTEX
8
LOGO
10
125.128
20
2.100
30
0.0
0
VERTEX
8
LOGO
10
125.029
20
2.259
30
0.0
0
VERTEX
8
LOGO
10
124.934
20
2.424
30
0.0
0
VERTEX
8
LOGO
10
124.844
20
2.594
30
0.0
0
VERTEX
8
LOGO
10
124.757
20
2.770
30
0.0
0
VERTEX
8
LOGO
10
124.676
20
2.951
30
0.0
0
VERTEX
8
LOGO
10
124.600
20
3.136
30
0.0
0
VERTEX
8
LOGO
10
124.530
20
3.325
30
0.0
0
VERTEX
8
LOGO
10
124.465
20
3.519
30
0.0
0
VERTEX
8
LOGO
10
124.406
20
3.717
30
0.0
0
VERTEX
8
LOGO
10
124.353
20
3.919
30
0.0
0
VERTEX
8
LOGO
10
124.305
20
4.125
30
0.0
0
VERTEX
8
LOGO
10
124.263
20
4.335
30
0.0
0
VERTEX
8
LOGO
10
124.227
20
4.550
30
0.0
0
VERTEX
8
LOGO
10
124.196
20
4.769
30
0.0
0
VERTEX
8
LOGO
10
124.171
20
4.992
30
0.0
0
VERTEX
8
LOGO
10
124.151
20
5.219
30
0.0
0
VERTEX
8
LOGO
10
124.137
20
5.450
30
0.0
0
VERTEX
8
LOGO
10
124.129
20
5.686
30
0.0
0
VERTEX
8
LOGO
10
124.126
20
5.925
30
0.0
0
VERTEX
8
LOGO
10
124.129
20
6.162
30
0.0
0
VERTEX
8
LOGO
10
124.137
20
6.394
30
0.0
0
VERTEX
8
LOGO
10
124.151
20
6.622
30
0.0
0
VERTEX
8
LOGO
10
124.171
20
6.847
30
0.0
0
VERTEX
8
LOGO
10
124.196
20
7.067
30
0.0
0
VERTEX
8
LOGO
10
124.227
20
7.284
30
0.0
0
VERTEX
8
LOGO
10
124.263
20
7.497
30
0.0
0
VERTEX
8
LOGO
10
124.305
20
7.706
30
0.0
0
VERTEX
8
LOGO
10
124.353
20
7.911
30
0.0
0
VERTEX
8
LOGO
10
124.406
20
8.112
30
0.0
0
VERTEX
8
LOGO
10
124.465
20
8.310
30
0.0
0
VERTEX
8
LOGO
10
124.530
20
8.504
30
0.0
0
VERTEX
8
LOGO
10
124.600
20
8.694
30
0.0
0
VERTEX
8
LOGO
10
124.676
20
8.881
30
0.0
0
VERTEX
8
LOGO
10
124.757
20
9.064
30
0.0
0
VERTEX
8
LOGO
10
124.845
20
9.240
30
0.0
0
VERTEX
8
LOGO
10
124.937
20
9.410
30
0.0
0
VERTEX
8
LOGO
10
125.033
20
9.575
30
0.0
0
VERTEX
8
LOGO
10
125.134
20
9.735
30
0.0
0
VERTEX
8
LOGO
10
125.240
20
9.889
30
0.0
0
VERTEX
8
LOGO
10
125.350
20
10.038
30
0.0
0
VERTEX
8
LOGO
10
125.465
20
10.181
30
0.0
0
VERTEX
8
LOGO
10
125.584
20
10.319
30
0.0
0
VERTEX
8
LOGO
10
125.708
20
10.451
30
0.0
0
VERTEX
8
LOGO
10
125.836
20
10.579
30
0.0
0
VERTEX
8
LOGO
10
125.969
20
10.700
30
0.0
0
VERTEX
8
LOGO
10
126.106
20
10.816
30
0.0
0
VERTEX
8
LOGO
10
126.248
20
10.927
30
0.0
0
VERTEX
8
LOGO
10
126.394
20
11.033
30
0.0
0
VERTEX
8
LOGO
10
126.545
20
11.133
30
0.0
0
VERTEX
8
LOGO
10
126.700
20
11.227
30
0.0
0
VERTEX
8
LOGO
10
126.858
20
11.316
30
0.0
0
VERTEX
8
LOGO
10
127.019
20
11.398
30
0.0
0
VERTEX
8
LOGO
10
127.182
20
11.473
30
0.0
0
VERTEX
8
LOGO
10
127.348
20
11.541
30
0.0
0
VERTEX
8
LOGO
10
127.516
20
11.604
30
0.0
0
VERTEX
8
LOGO
10
127.687
20
11.659
30
0.0
0
VERTEX
8
LOGO
10
127.861
20
11.708
30
0.0
0
VERTEX
8
LOGO
10
128.038
20
11.751
30
0.0
0
VERTEX
8
LOGO
10
128.217
20
11.787
30
0.0
0
VERTEX
8
LOGO
10
128.400
20
11.816
30
0.0
0
VERTEX
8
LOGO
10
128.585
20
11.839
30
0.0
0
VERTEX
8
LOGO
10
128.772
20
11.855
30
0.0
0
VERTEX
8
LOGO
10
128.963
20
11.865
30
0.0
0
VERTEX
8
LOGO
10
129.157
20
11.869
30
0.0
0
VERTEX
8
LOGO
10
129.284
20
11.867
30
0.0
0
VERTEX
8
LOGO
10
129.409
20
11.861
30
0.0
0
VERTEX
8
LOGO
10
129.533
20
11.852
30
0.0
0
VERTEX
8
LOGO
10
129.656
20
11.839
30
0.0
0
VERTEX
8
LOGO
10
129.778
20
11.822
30
0.0
0
VERTEX
8
LOGO
10
129.898
20
11.802
30
0.0
0
VERTEX
8
LOGO
10
130.016
20
11.778
30
0.0
0
VERTEX
8
LOGO
10
130.133
20
11.751
30
0.0
0
VERTEX
8
LOGO
10
130.249
20
11.721
30
0.0
0
VERTEX
8
LOGO
10
130.363
20
11.686
30
0.0
0
VERTEX
8
LOGO
10
130.476
20
11.649
30
0.0
0
VERTEX
8
LOGO
10
130.587
20
11.608
30
0.0
0
VERTEX
8
LOGO
10
130.696
20
11.563
30
0.0
0
VERTEX
8
LOGO
10
130.804
20
11.516
30
0.0
0
VERTEX
8
LOGO
10
130.910
20
11.465
30
0.0
0
VERTEX
8
LOGO
10
131.015
20
11.409
30
0.0
0
VERTEX
8
LOGO
10
131.118
20
11.352
30
0.0
0
VERTEX
8
LOGO
10
131.219
20
11.293
30
0.0
0
VERTEX
8
LOGO
10
131.318
20
11.233
30
0.0
0
VERTEX
8
LOGO
10
131.415
20
11.171
30
0.0
0
VERTEX
8
LOGO
10
131.510
20
11.108
30
0.0
0
VERTEX
8
LOGO
10
131.603
20
11.042
30
0.0
0
VERTEX
8
LOGO
10
131.693
20
10.976
30
0.0
0
VERTEX
8
LOGO
10
131.781
20
10.908
30
0.0
0
VERTEX
8
LOGO
10
131.867
20
10.838
30
0.0
0
VERTEX
8
LOGO
10
131.950
20
10.766
30
0.0
0
VERTEX
8
LOGO
10
132.031
20
10.694
30
0.0
0
VERTEX
8
LOGO
10
132.109
20
10.619
30
0.0
0
VERTEX
8
LOGO
10
132.186
20
10.543
30
0.0
0
VERTEX
8
LOGO
10
132.259
20
10.465
30
0.0
0
VERTEX
8
LOGO
10
131.541
20
9.625
30
0.0
0
VERTEX
8
LOGO
10
131.406
20
9.767
30
0.0
0
VERTEX
8
LOGO
10
131.268
20
9.899
30
0.0
0
VERTEX
8
LOGO
10
131.126
20
10.022
30
0.0
0
VERTEX
8
LOGO
10
130.982
20
10.135
30
0.0
0
VERTEX
8
LOGO
10
130.834
20
10.238
30
0.0
0
VERTEX
8
LOGO
10
130.682
20
10.331
30
0.0
0
VERTEX
8
LOGO
10
130.528
20
10.415
30
0.0
0
VERTEX
8
LOGO
10
130.370
20
10.488
30
0.0
0
VERTEX
8
LOGO
10
130.209
20
10.552
30
0.0
0
VERTEX
8
LOGO
10
130.045
20
10.606
30
0.0
0
VERTEX
8
LOGO
10
129.877
20
10.650
30
0.0
0
VERTEX
8
LOGO
10
129.707
20
10.684
30
0.0
0
VERTEX
8
LOGO
10
129.533
20
10.709
30
0.0
0
VERTEX
8
LOGO
10
129.355
20
10.724
30
0.0
0
VERTEX
8
LOGO
10
129.175
20
10.729
30
0.0
0
VERTEX
8
LOGO
10
129.026
20
10.726
30
0.0
0
VERTEX
8
LOGO
10
128.880
20
10.718
30
0.0
0
VERTEX
8
LOGO
10
128.737
20
10.705
30
0.0
0
VERTEX
8
LOGO
10
128.596
20
10.687
30
0.0
0
VERTEX
8
LOGO
10
128.458
20
10.664
30
0.0
0
VERTEX
8
LOGO
10
128.322
20
10.636
30
0.0
0
VERTEX
8
LOGO
10
128.188
20
10.603
30
0.0
0
VERTEX
8
LOGO
10
128.057
20
10.564
30
0.0
0
VERTEX
8
LOGO
10
127.929
20
10.520
30
0.0
0
VERTEX
8
LOGO
10
127.803
20
10.471
30
0.0
0
VERTEX
8
LOGO
10
127.679
20
10.417
30
0.0
0
VERTEX
8
LOGO
10
127.558
20
10.358
30
0.0
0
VERTEX
8
LOGO
10
127.440
20
10.294
30
0.0
0
VERTEX
8
LOGO
10
127.324
20
10.224
30
0.0
0
VERTEX
8
LOGO
10
127.211
20
10.150
30
0.0
0
VERTEX
8
LOGO
10
127.101
20
10.071
30
0.0
0
VERTEX
8
LOGO
10
126.995
20
9.987
30
0.0
0
VERTEX
8
LOGO
10
126.893
20
9.899
30
0.0
0
VERTEX
8
LOGO
10
126.794
20
9.806
30
0.0
0
VERTEX
8
LOGO
10
126.698
20
9.709
30
0.0
0
VERTEX
8
LOGO
10
126.605
20
9.607
30
0.0
0
VERTEX
8
LOGO
10
126.516
20
9.501
30
0.0
0
VERTEX
8
LOGO
10
126.430
20
9.391
30
0.0
0
VERTEX
8
LOGO
10
126.347
20
9.277
30
0.0
0
VERTEX
8
LOGO
10
126.267
20
9.158
30
0.0
0
VERTEX
8
LOGO
10
126.190
20
9.035
30
0.0
0
VERTEX
8
LOGO
10
126.116
20
8.908
30
0.0
0
VERTEX
8
LOGO
10
126.046
20
8.777
30
0.0
0
VERTEX
8
LOGO
10
125.978
20
8.642
30
0.0
0
VERTEX
8
LOGO
10
125.914
20
8.503
30
0.0
0
VERTEX
8
LOGO
10
125.854
20
8.357
30
0.0
0
VERTEX
8
LOGO
10
125.798
20
8.208
30
0.0
0
VERTEX
8
LOGO
10
125.747
20
8.056
30
0.0
0
VERTEX
8
LOGO
10
125.700
20
7.901
30
0.0
0
VERTEX
8
LOGO
10
125.658
20
7.742
30
0.0
0
VERTEX
8
LOGO
10
125.619
20
7.580
30
0.0
0
VERTEX
8
LOGO
10
125.585
20
7.414
30
0.0
0
VERTEX
8
LOGO
10
125.555
20
7.245
30
0.0
0
VERTEX
8
LOGO
10
125.529
20
7.073
30
0.0
0
VERTEX
8
LOGO
10
125.507
20
6.896
30
0.0
0
VERTEX
8
LOGO
10
125.489
20
6.717
30
0.0
0
VERTEX
8
LOGO
10
125.475
20
6.533
30
0.0
0
VERTEX
8
LOGO
10
125.465
20
6.346
30
0.0
0
VERTEX
8
LOGO
10
125.459
20
6.156
30
0.0
0
VERTEX
8
LOGO
10
125.457
20
5.961
30
0.0
0
VERTEX
8
LOGO
10
125.459
20
5.768
30
0.0
0
VERTEX
8
LOGO
10
125.465
20
5.577
30
0.0
0
VERTEX
8
LOGO
10
125.475
20
5.391
30
0.0
0
VERTEX
8
LOGO
10
125.489
20
5.207
30
0.0
0
VERTEX
8
LOGO
10
125.506
20
5.027
30
0.0
0
VERTEX
8
LOGO
10
125.528
20
4.850
30
0.0
0
VERTEX
8
LOGO
10
125.553
20
4.677
30
0.0
0
VERTEX
8
LOGO
10
125.582
20
4.506
30
0.0
0
VERTEX
8
LOGO
10
125.615
20
4.339
30
0.0
0
VERTEX
8
LOGO
10
125.652
20
4.175
30
0.0
0
VERTEX
8
LOGO
10
125.693
20
4.014
30
0.0
0
VERTEX
8
LOGO
10
125.738
20
3.857
30
0.0
0
VERTEX
8
LOGO
10
125.787
20
3.702
30
0.0
0
VERTEX
8
LOGO
10
125.839
20
3.550
30
0.0
0
VERTEX
8
LOGO
10
125.896
20
3.402
30
0.0
0
VERTEX
8
LOGO
10
125.958
20
3.258
30
0.0
0
VERTEX
8
LOGO
10
126.023
20
3.118
30
0.0
0
VERTEX
8
LOGO
10
126.092
20
2.983
30
0.0
0
VERTEX
8
LOGO
10
126.164
20
2.853
30
0.0
0
VERTEX
8
LOGO
10
126.239
20
2.727
30
0.0
0
VERTEX
8
LOGO
10
126.318
20
2.606
30
0.0
0
VERTEX
8
LOGO
10
126.400
20
2.489
30
0.0
0
VERTEX
8
LOGO
10
126.485
20
2.377
30
0.0
0
VERTEX
8
LOGO
10
126.573
20
2.269
30
0.0
0
VERTEX
8
LOGO
10
126.665
20
2.166
30
0.0
0
VERTEX
8
LOGO
10
126.760
20
2.068
30
0.0
0
VERTEX
8
LOGO
10
126.859
20
1.974
30
0.0
0
VERTEX
8
LOGO
10
126.961
20
1.884
30
0.0
0
VERTEX
8
LOGO
10
127.067
20
1.799
30
0.0
0
VERTEX
8
LOGO
10
127.176
20
1.719
30
0.0
0
VERTEX
8
LOGO
10
127.287
20
1.644
30
0.0
0
VERTEX
8
LOGO
10
127.401
20
1.575
30
0.0
0
VERTEX
8
LOGO
10
127.518
20
1.510
30
0.0
0
VERTEX
8
LOGO
10
127.637
20
1.451
30
0.0
0
VERTEX
8
LOGO
10
127.759
20
1.397
30
0.0
0
VERTEX
8
LOGO
10
127.883
20
1.348
30
0.0
0
VERTEX
8
LOGO
10
128.010
20
1.305
30
0.0
0
VERTEX
8
LOGO
10
128.140
20
1.266
30
0.0
0
VERTEX
8
LOGO
10
128.272
20
1.232
30
0.0
0
VERTEX
8
LOGO
10
128.407
20
1.204
30
0.0
0
VERTEX
8
LOGO
10
128.545
20
1.181
30
0.0
0
VERTEX
8
LOGO
10
128.685
20
1.163
30
0.0
0
VERTEX
8
LOGO
10
128.828
20
1.150
30
0.0
0
VERTEX
8
LOGO
10
128.974
20
1.142
30
0.0
0
VERTEX
8
LOGO
10
129.122
20
1.140
30
0.0
0
VERTEX
8
LOGO
10
129.228
20
1.141
30
0.0
0
VERTEX
8
LOGO
10
129.333
20
1.145
30
0.0
0
VERTEX
8
LOGO
10
129.436
20
1.152
30
0.0
0
VERTEX
8
LOGO
10
129.538
20
1.162
30
0.0
0
VERTEX
8
LOGO
10
129.639
20
1.175
30
0.0
0
VERTEX
8
LOGO
10
129.739
20
1.190
30
0.0
0
VERTEX
8
LOGO
10
129.838
20
1.208
30
0.0
0
VERTEX
8
LOGO
10
129.935
20
1.229
30
0.0
0
VERTEX
8
LOGO
10
130.031
20
1.253
30
0.0
0
VERTEX
8
LOGO
10
130.125
20
1.280
30
0.0
0
VERTEX
8
LOGO
10
130.218
20
1.309
30
0.0
0
VERTEX
8
LOGO
10
130.310
20
1.342
30
0.0
0
VERTEX
8
LOGO
10
130.400
20
1.377
30
0.0
0
VERTEX
8
LOGO
10
130.489
20
1.415
30
0.0
0
VERTEX
8
LOGO
10
130.576
20
1.456
30
0.0
0
VERTEX
8
LOGO
10
130.662
20
1.500
30
0.0
0
VERTEX
8
LOGO
10
130.747
20
1.548
30
0.0
0
VERTEX
8
LOGO
10
130.832
20
1.599
30
0.0
0
VERTEX
8
LOGO
10
130.916
20
1.653
30
0.0
0
VERTEX
8
LOGO
10
131.001
20
1.710
30
0.0
0
VERTEX
8
LOGO
10
131.086
20
1.771
30
0.0
0
VERTEX
8
LOGO
10
131.170
20
1.834
30
0.0
0
VERTEX
8
LOGO
10
131.254
20
1.901
30
0.0
0
VERTEX
8
LOGO
10
131.338
20
1.971
30
0.0
0
VERTEX
8
LOGO
10
131.422
20
2.043
30
0.0
0
VERTEX
8
LOGO
10
131.506
20
2.119
30
0.0
0
VERTEX
8
LOGO
10
131.589
20
2.199
30
0.0
0
VERTEX
8
LOGO
10
131.673
20
2.281
30
0.0
0
VERTEX
8
LOGO
10
131.756
20
2.366
30
0.0
0
VERTEX
8
LOGO
10
131.839
20
2.455
30
0.0
0
VERTEX
8
LOGO
10
132.557
20
1.665
30
0.0
0
VERTEX
8
LOGO
10
132.463
20
1.556
30
0.0
0
VERTEX
8
LOGO
10
132.367
20
1.451
30
0.0
0
VERTEX
8
LOGO
10
132.270
20
1.349
30
0.0
0
VERTEX
8
LOGO
10
132.171
20
1.252
30
0.0
0
VERTEX
8
LOGO
10
132.071
20
1.158
30
0.0
0
VERTEX
8
LOGO
10
131.969
20
1.068
30
0.0
0
VERTEX
8
LOGO
10
131.866
20
0.982
30
0.0
0
VERTEX
8
LOGO
10
131.762
20
0.899
30
0.0
0
VERTEX
8
LOGO
10
131.656
20
0.820
30
0.0
0
VERTEX
8
LOGO
10
131.549
20
0.745
30
0.0
0
VERTEX
8
LOGO
10
131.441
20
0.673
30
0.0
0
VERTEX
8
LOGO
10
131.332
20
0.604
30
0.0
0
VERTEX
8
LOGO
10
131.221
20
0.540
30
0.0
0
VERTEX
8
LOGO
10
131.110
20
0.478
30
0.0
0
VERTEX
8
LOGO
10
130.997
20
0.420
30
0.0
0
VERTEX
8
LOGO
10
130.883
20
0.366
30
0.0
0
VERTEX
8
LOGO
10
130.768
20
0.316
30
0.0
0
VERTEX
8
LOGO
10
130.650
20
0.269
30
0.0
0
VERTEX
8
LOGO
10
130.531
20
0.226
30
0.0
0
VERTEX
8
LOGO
10
130.409
20
0.187
30
0.0
0
VERTEX
8
LOGO
10
130.285
20
0.152
30
0.0
0
VERTEX
8
LOGO
10
130.158
20
0.120
30
0.0
0
VERTEX
8
LOGO
10
130.030
20
0.092
30
0.0
0
VERTEX
8
LOGO
10
129.899
20
0.067
30
0.0
0
VERTEX
8
LOGO
10
129.766
20
0.047
30
0.0
0
VERTEX
8
LOGO
10
129.631
20
0.030
30
0.0
0
VERTEX
8
LOGO
10
129.494
20
0.017
30
0.0
0
VERTEX
8
LOGO
10
129.354
20
0.007
30
0.0
0
VERTEX
8
LOGO
10
129.212
20
0.002
30
0.0
0
VERTEX
8
LOGO
10
129.069
20
0.000
30
0.0
0
SEQEND
0
POLYLINE
8
LOGO
66
1
70
1
0
VERTEX
8
LOGO
10
143.344
20
11.658
30
0.0
0
VERTEX
8
LOGO
10
149.848
20
11.658
30
0.0
0
VERTEX
8
LOGO
10
149.848
20
10.554
30
0.0
0
VERTEX
8
LOGO
10
144.641
20
10.554
30
0.0
0
VERTEX
8
LOGO
10
144.641
20
6.784
30
0.0
0
VERTEX
8
LOGO
10
149.024
20
6.784
30
0.0
0
VERTEX
8
LOGO
10
149.024
20
5.698
30
0.0
0
VERTEX
8
LOGO
10
144.641
20
5.698
30
0.0
0
VERTEX
8
LOGO
10
144.641
20
1.315
30
0.0
0
VERTEX
8
LOGO
10
150.023
20
1.315
30
0.0
0
VERTEX
8
LOGO
10
150.023
20
0.211
30
0.0
0
VERTEX
8
LOGO
10
143.344
20
0.211
30
0.0
0
VERTEX
8
LOGO
10
143.344
20
11.658
30
0.0
0
SEQEND
0
POLYLINE
8
LOGO
66
1
70
1
0
VERTEX
8
LOGO
10
161.096
20
11.658
30
0.0
0
VERTEX
8
LOGO
10
162.429
20
11.658
30
0.0
0
VERTEX
8
LOGO
10
166.759
20
4.242
30
0.0
0
VERTEX
8
LOGO
10
168.004
20
1.876
30
0.0
0
VERTEX
8
LOGO
10
168.074
20
1.876
30
0.0
0
VERTEX
8
LOGO
10
168.020
20
2.648
30
0.0
0
VERTEX
8
LOGO
10
168.018
20
2.687
30
0.0
0
VERTEX
8
LOGO
10
168.016
20
2.732
30
0.0
0
VERTEX
8
LOGO
10
168.013
20
2.782
30
0.0
0
VERTEX
8
LOGO
10
168.009
20
2.838
30
0.0
0
VERTEX
8
LOGO
10
168.006
20
2.900
30
0.0
0
VERTEX
8
LOGO
10
168.002
20
2.967
30
0.0
0
VERTEX
8
LOGO
10
167.997
20
3.040
30
0.0
0
VERTEX
8
LOGO
10
167.993
20
3.119
30
0.0
0
VERTEX
8
LOGO
10
167.988
20
3.203
30
0.0
0
VERTEX
8
LOGO
10
167.982
20
3.293
30
0.0
0
VERTEX
8
LOGO
10
167.977
20
3.388
30
0.0
0
VERTEX
8
LOGO
10
167.971
20
3.488
30
0.0
0
VERTEX
8
LOGO
10
167.965
20
3.594
30
0.0
0
VERTEX
8
LOGO
10
167.958
20
3.705
30
0.0
0
VERTEX
8
LOGO
10
167.952
20
3.822
30
0.0
0
VERTEX
8
LOGO
10
167.945
20
3.940
30
0.0
0
VERTEX
8
LOGO
10
167.938
20
4.057
30
0.0
0
VERTEX
8
LOGO
10
167.932
20
4.173
30
0.0
0
VERTEX
8
LOGO
10
167.927
20
4.287
30
0.0
0
VERTEX
8
LOGO
10
167.922
20
4.400
30
0.0
0
VERTEX
8
LOGO
10
167.917
20
4.512
30
0.0
0
VERTEX
8
LOGO
10
167.913
20
4.622
30
0.0
0
VERTEX
8
LOGO
10
167.910
20
4.731
30
0.0
0
VERTEX
8
LOGO
10
167.906
20
4.838
30
0.0
0
VERTEX
8
LOGO
10
167.904
20
4.944
30
0.0
0
VERTEX
8
LOGO
10
167.902
20
5.049
30
0.0
0
VERTEX
8
LOGO
10
167.900
20
5.152
30
0.0
0
VERTEX
8
LOGO
10
167.899
20
5.253
30
0.0
0
VERTEX
8
LOGO
10
167.898
20
5.354
30
0.0
0
VERTEX
8
LOGO
10
167.898
20
5.453
30
0.0
0
VERTEX
8
LOGO
10
167.898
20
11.658
30
0.0
0
VERTEX
8
LOGO
10
169.126
20
11.658
30
0.0
0
VERTEX
8
LOGO
10
169.126
20
0.211
30
0.0
0
VERTEX
8
LOGO
10
167.793
20
0.211
30
0.0
0
VERTEX
8
LOGO
10
163.480
20
7.626
30
0.0
0
VERTEX
8
LOGO
10
162.218
20
9.993
30
0.0
0
VERTEX
8
LOGO
10
162.149
20
9.993
30
0.0
0
VERTEX
8
LOGO
10
162.201
20
9.150
30
0.0
0
VERTEX
8
LOGO
10
162.217
20
8.949
30
0.0
0
VERTEX
8
LOGO
10
162.232
20
8.751
30
0.0
0
VERTEX
8
LOGO
10
162.245
20
8.556
30
0.0
0
VERTEX
8
LOGO
10
162.258
20
8.364
30
0.0
0
VERTEX
8
LOGO
10
162.269
20
8.176
30
0.0
0
VERTEX
8
LOGO
10
162.279
20
7.991
30
0.0
0
VERTEX
8
LOGO
10
162.289
20
7.810
30
0.0
0
VERTEX
8
LOGO
10
162.297
20
7.632
30
0.0
0
VERTEX
8
LOGO
10
162.304
20
7.457
30
0.0
0
VERTEX
8
LOGO
10
162.310
20
7.286
30
0.0
0
VERTEX
8
LOGO
10
162.315
20
7.119
30
0.0
0
VERTEX
8
LOGO
10
162.319
20
6.955
30
0.0
0
VERTEX
8
LOGO
10
162.322
20
6.795
30
0.0
0
VERTEX
8
LOGO
10
162.323
20
6.639
30
0.0
0
VERTEX
8
LOGO
10
162.324
20
6.486
30
0.0
0
VERTEX
8
LOGO
10
162.324
20
0.211
30
0.0
0
VERTEX
8
LOGO
10
161.096
20
0.211
30
0.0
0
VERTEX
8
LOGO
10
161.096
20
11.658
30
0.0
0
SEQEND
0
POLYLINE
8
LOGO
66
1
70
1
0
VERTEX
8
LOGO
10
186.164
20
3.822
30
0.0
0
VERTEX
8
LOGO
10
181.888
20
3.822
30
0.0
0
VERTEX
8
LOGO
10
180.731
20
0.211
30
0.0
0
VERTEX
8
LOGO
10
179.416
20
0.211
30
0.0
0
VERTEX
8
LOGO
10
183.343
20
11.658
30
0.0
0
VERTEX
8
LOGO
10
184.763
20
11.658
30
0.0
0
VERTEX
8
LOGO
10
188.671
20
0.211
30
0.0
0
VERTEX
8
LOGO
10
187.304
20
0.211
30
0.0
0
VERTEX
8
LOGO
10
186.164
20
3.822
30
0.0
0
VERTEX
8
LOGO
10
185.235
20
6.697
30
0.0
0
VERTEX
8
LOGO
10
185.143
20
6.984
30
0.0
0
VERTEX
8
LOGO
10
185.052
20
7.266
30
0.0
0
VERTEX
8
LOGO
10
184.964
20
7.545
30
0.0
0
VERTEX
8
LOGO
10
184.877
20
7.819
30
0.0
0
VERTEX
8
LOGO
10
184.792
20
8.090
30
0.0
0
VERTEX
8
LOGO
10
184.708
20
8.356
30
0.0
0
VERTEX
8
LOGO
10
184.627
20
8.619
30
0.0
0
VERTEX
8
LOGO
10
184.548
20
8.877
30
0.0
0
VERTEX
8
LOGO
10
184.470
20
9.131
30
0.0
0
VERTEX
8
LOGO
10
184.394
20
9.381
30
0.0
0
VERTEX
8
LOGO
10
184.320
20
9.627
30
0.0
0
VERTEX
8
LOGO
10
184.248
20
9.870
30
0.0
0
VERTEX
8
LOGO
10
184.178
20
10.108
30
0.0
0
VERTEX
8
LOGO
10
184.110
20
10.342
30
0.0
0
VERTEX
8
LOGO
10
184.043
20
10.572
30
0.0
0
VERTEX
8
LOGO
10
183.973
20
10.572
30
0.0
0
VERTEX
8
LOGO
10
183.898
20
10.292
30
0.0
0
VERTEX
8
LOGO
10
183.823
20
10.016
30
0.0
0
VERTEX
8
LOGO
10
183.747
20
9.743
30
0.0
0
VERTEX
8
LOGO
10
183.671
20
9.472
30
0.0
0
VERTEX
8
LOGO
10
183.595
20
9.204
30
0.0
0
VERTEX
8
LOGO
10
183.519
20
8.940
30
0.0
0
VERTEX
8
LOGO
10
183.442
20
8.678
30
0.0
0
VERTEX
8
LOGO
10
183.365
20
8.420
30
0.0
0
VERTEX
8
LOGO
10
183.288
20
8.164
30
0.0
0
VERTEX
8
LOGO
10
183.210
20
7.912
30
0.0
0
VERTEX
8
LOGO
10
183.132
20
7.662
30
0.0
0
VERTEX
8
LOGO
10
183.054
20
7.416
30
0.0
0
VERTEX
8
LOGO
10
182.975
20
7.173
30
0.0
0
VERTEX
8
LOGO
10
182.896
20
6.934
30
0.0
0
VERTEX
8
LOGO
10
182.816
20
6.697
30
0.0
0
VERTEX
8
LOGO
10
182.221
20
4.839
30
0.0
0
VERTEX
8
LOGO
10
185.832
20
4.839
30
0.0
0
SEQEND
0
POLYLINE
8
LOGO
66
1
70
1
0
VERTEX
8
LOGO
10
205.249
20
0.211
30
0.0
0
VERTEX
8
LOGO
10
202.410
20
5.153
30
0.0
0
VERTEX
8
LOGO
10
200.253
20
5.153
30
0.0
0
VERTEX
8
LOGO
10
200.253
20
0.211
30
0.0
0
VERTEX
8
LOGO
10
198.956
20
0.211
30
0.0
0
VERTEX
8
LOGO
10
198.956
20
11.658
30
0.0
0
VERTEX
8
LOGO
10
202.462
20
11.658
30
0.0
0
VERTEX
8
LOGO
10
202.971
20
11.643
30
0.0
0
VERTEX
8
LOGO
10
203.444
20
11.601
30
0.0
0
VERTEX
8
LOGO
10
203.882
20
11.530
30
0.0
0
VERTEX
8
LOGO
10
204.286
20
11.431
30
0.0
0
VERTEX
8
LOGO
10
204.654
20
11.304
30
0.0
0
VERTEX
8
LOGO
10
204.987
20
11.148
30
0.0
0
VERTEX
8
LOGO
10
205.285
20
10.965
30
0.0
0
VERTEX
8
LOGO
10
205.548
20
10.753
30
0.0
0
VERTEX
8
LOGO
10
205.776
20
10.513
30
0.0
0
VERTEX
8
LOGO
10
205.969
20
10.245
30
0.0
0
VERTEX
8
LOGO
10
206.126
20
9.949
30
0.0
0
VERTEX
8
LOGO
10
206.249
20
9.625
30
0.0
0
VERTEX
8
LOGO
10
206.337
20
9.273
30
0.0
0
VERTEX
8
LOGO
10
206.389
20
8.893
30
0.0
0
VERTEX
8
LOGO
10
206.407
20
8.485
30
0.0
0
VERTEX
8
LOGO
10
206.404
20
8.313
30
0.0
0
VERTEX
8
LOGO
10
206.394
20
8.145
30
0.0
0
VERTEX
8
LOGO
10
206.378
20
7.982
30
0.0
0
VERTEX
8
LOGO
10
206.356
20
7.823
30
0.0
0
VERTEX
8
LOGO
10
206.327
20
7.669
30
0.0
0
VERTEX
8
LOGO
10
206.292
20
7.518
30
0.0
0
VERTEX
8
LOGO
10
206.250
20
7.373
30
0.0
0
VERTEX
8
LOGO
10
206.202
20
7.231
30
0.0
0
VERTEX
8
LOGO
10
206.148
20
7.094
30
0.0
0
VERTEX
8
LOGO
10
206.087
20
6.961
30
0.0
0
VERTEX
8
LOGO
10
206.020
20
6.833
30
0.0
0
VERTEX
8
LOGO
10
205.946
20
6.709
30
0.0
0
VERTEX
8
LOGO
10
205.866
20
6.590
30
0.0
0
VERTEX
8
LOGO
10
205.780
20
6.474
30
0.0
0
VERTEX
8
LOGO
10
205.687
20
6.364
30
0.0
0
VERTEX
8
LOGO
10
205.592
20
6.255
30
0.0
0
VERTEX
8
LOGO
10
205.491
20
6.152
30
0.0
0
VERTEX
8
LOGO
10
205.386
20
6.054
30
0.0
0
VERTEX
8
LOGO
10
205.275
20
5.962
30
0.0
0
VERTEX
8
LOGO
10
205.160
20
5.874
30
0.0
0
VERTEX
8
LOGO
10
205.040
20
5.792
30
0.0
0
VERTEX
8
LOGO
10
204.915
20
5.715
30
0.0
0
VERTEX
8
LOGO
10
204.785
20
5.643
30
0.0
0
VERTEX
8
LOGO
10
204.651
20
5.576
30
0.0
0
VERTEX
8
LOGO
10
204.511
20
5.514
30
0.0
0
VERTEX
8
LOGO
10
204.367
20
5.457
30
0.0
0
VERTEX
8
LOGO
10
204.218
20
5.404
30
0.0
0
VERTEX
8
LOGO
10
204.064
20
5.357
30
0.0
0
VERTEX
8
LOGO
10
203.905
20
5.315
30
0.0
0
VERTEX
8
LOGO
10
203.741
20
5.278
30
0.0
0
VERTEX
8
LOGO
10
206.721
20
0.211
30
0.0
0
VERTEX
8
LOGO
10
205.249
20
0.211
30
0.0
0
VERTEX
8
LOGO
10
202.251
20
6.207
30
0.0
0
VERTEX
8
LOGO
10
202.435
20
6.209
30
0.0
0
VERTEX
8
LOGO
10
202.613
20
6.217
30
0.0
0
VERTEX
8
LOGO
10
202.785
20
6.230
30
0.0
0
VERTEX
8
LOGO
10
202.951
20
6.248
30
0.0
0
VERTEX
8
LOGO
10
203.110
20
6.271
30
0.0
0
VERTEX
8
LOGO
10
203.264
20
6.299
30
0.0
0
VERTEX
8
LOGO
10
203.412
20
6.332
30
0.0
0
VERTEX
8
LOGO
10
203.553
20
6.371
30
0.0
0
VERTEX
8
LOGO
10
203.688
20
6.415
30
0.0
0
VERTEX
8
LOGO
10
203.818
20
6.463
30
0.0
0
VERTEX
8
LOGO
10
203.941
20
6.517
30
0.0
0
VERTEX
8
LOGO
10
204.058
20
6.576
30
0.0
0
VERTEX
8
LOGO
10
204.169
20
6.640
30
0.0
0
VERTEX
8
LOGO
10
204.274
20
6.710
30
0.0
0
VERTEX
8
LOGO
10
204.373
20
6.784
30
0.0
0
VERTEX
8
LOGO
10
204.467
20
6.863
30
0.0
0
VERTEX
8
LOGO
10
204.556
20
6.948
30
0.0
0
VERTEX
8
LOGO
10
204.638
20
7.037
30
0.0
0
VERTEX
8
LOGO
10
204.713
20
7.130
30
0.0
0
VERTEX
8
LOGO
10
204.781
20
7.229
30
0.0
0
VERTEX
8
LOGO
10
204.844
20
7.332
30
0.0
0
VERTEX
8
LOGO
10
204.899
20
7.440
30
0.0
0
VERTEX
8
LOGO
10
204.948
20
7.554
30
0.0
0
VERTEX
8
LOGO
10
204.991
20
7.672
30
0.0
0
VERTEX
8
LOGO
10
205.027
20
7.795
30
0.0
0
VERTEX
8
LOGO
10
205.056
20
7.922
30
0.0
0
VERTEX
8
LOGO
10
205.079
20
8.055
30
0.0
0
VERTEX
8
LOGO
10
205.095
20
8.193
30
0.0
0
VERTEX
8
LOGO
10
205.105
20
8.337
30
0.0
0
VERTEX
8
LOGO
10
205.109
20
8.485
30
0.0
0
VERTEX
8
LOGO
10
205.105
20
8.633
30
0.0
0
VERTEX
8
LOGO
10
205.096
20
8.775
30
0.0
0
VERTEX
8
LOGO
10
205.080
20
8.912
30
0.0
0
VERTEX
8
LOGO
10
205.057
20
9.043
30
0.0
0
VERTEX
8
LOGO
10
205.029
20
9.168
30
0.0
0
VERTEX
8
LOGO
10
204.994
20
9.288
30
0.0
0
VERTEX
8
LOGO
10
204.952
20
9.403
30
0.0
0
VERTEX
8
LOGO
10
204.904
20
9.511
30
0.0
0
VERTEX
8
LOGO
10
204.850
20
9.614
30
0.0
0
VERTEX
8
LOGO
10
204.789
20
9.712
30
0.0
0
VERTEX
8
LOGO
10
204.722
20
9.804
30
0.0
0
VERTEX
8
LOGO
10
204.649
20
9.890
30
0.0
0
VERTEX
8
LOGO
10
204.569
20
9.971
30
0.0
0
VERTEX
8
LOGO
10
204.483
20
10.046
30
0.0
0
VERTEX
8
LOGO
10
204.390
20
10.115
30
0.0
0
VERTEX
8
LOGO
10
204.294
20
10.178
30
0.0
0
VERTEX
8
LOGO
10
204.190
20
10.236
30
0.0
0
VERTEX
8
LOGO
10
204.080
20
10.290
30
0.0
0
VERTEX
8
LOGO
10
203.964
20
10.340
30
0.0
0
VERTEX
8
LOGO
10
203.841
20
10.385
30
0.0
0
VERTEX
8
LOGO
10
203.711
20
10.427
30
0.0
0
VERTEX
8
LOGO
10
203.575
20
10.464
30
0.0
0
VERTEX
8
LOGO
10
203.433
20
10.497
30
0.0
0
VERTEX
8
LOGO
10
203.284
20
10.526
30
0.0
0
VERTEX
8
LOGO
10
203.128
20
10.550
30
0.0
0
VERTEX
8
LOGO
10
202.966
20
10.570
30
0.0
0
VERTEX
8
LOGO
10
202.797
20
10.586
30
0.0
0
VERTEX
8
LOGO
10
202.622
20
10.597
30
0.0
0
VERTEX
8
LOGO
10
202.440
20
10.604
30
0.0
0
VERTEX
8
LOGO
10
202.251
20
10.606
30
0.0
0
VERTEX
8
LOGO
10
200.253
20
10.606
30
0.0
0
VERTEX
8
LOGO
10
200.253
20
6.207
30
0.0
0
SEQEND
0
POLYLINE
8
LOGO
66
1
70
1
0
VERTEX
8
LOGO
10
217.391
20
11.658
30
0.0
0
VERTEX
8
LOGO
10
218.688
20
11.658
30
0.0
0
VERTEX
8
LOGO
10
218.688
20
0.211
30
0.0
0
VERTEX
8
LOGO
10
217.391
20
0.211
30
0.0
0
SEQEND
0
POLYLINE
8
LOGO
66
1
70
1
0
VERTEX
8
LOGO
10
235.716
20
3.822
30
0.0
0
VERTEX
8
LOGO
10
231.440
20
3.822
30
0.0
0
VERTEX
8
LOGO
10
230.282
20
0.211
30
0.0
0
VERTEX
8
LOGO
10
228.968
20
0.211
30
0.0
0
VERTEX
8
LOGO
10
232.895
20
11.658
30
0.0
0
VERTEX
8
LOGO
10
234.315
20
11.658
30
0.0
0
VERTEX
8
LOGO
10
238.223
20
0.211
30
0.0
0
VERTEX
8
LOGO
10
236.856
20
0.211
30
0.0
0
VERTEX
8
LOGO
10
235.716
20
3.822
30
0.0
0
VERTEX
8
LOGO
10
234.787
20
6.697
30
0.0
0
VERTEX
8
LOGO
10
234.695
20
6.984
30
0.0
0
VERTEX
8
LOGO
10
234.604
20
7.266
30
0.0
0
VERTEX
8
LOGO
10
234.515
20
7.545
30
0.0
0
VERTEX
8
LOGO
10
234.428
20
7.819
30
0.0
0
VERTEX
8
LOGO
10
234.342
20
8.090
30
0.0
0
VERTEX
8
LOGO
10
234.259
20
8.356
30
0.0
0
VERTEX
8
LOGO
10
234.177
20
8.619
30
0.0
0
VERTEX
8
LOGO
10
234.097
20
8.877
30
0.0
0
VERTEX
8
LOGO
10
234.019
20
9.131
30
0.0
0
VERTEX
8
LOGO
10
233.943
20
9.381
30
0.0
0
VERTEX
8
LOGO
10
233.870
20
9.627
30
0.0
0
VERTEX
8
LOGO
10
233.798
20
9.870
30
0.0
0
VERTEX
8
LOGO
10
233.728
20
10.108
30
0.0
0
VERTEX
8
LOGO
10
233.661
20
10.342
30
0.0
0
VERTEX
8
LOGO
10
233.595
20
10.572
30
0.0
0
VERTEX
8
LOGO
10
233.525
20
10.572
30
0.0
0
VERTEX
8
LOGO
10
233.449
20
10.292
30
0.0
0
VERTEX
8
LOGO
10
233.373
20
10.016
30
0.0
0
VERTEX
8
LOGO
10
233.297
20
9.743
30
0.0
0
VERTEX
8
LOGO
10
233.220
20
9.472
30
0.0
0
VERTEX
8
LOGO
10
233.144
20
9.204
30
0.0
0
VERTEX
8
LOGO
10
233.067
20
8.940
30
0.0
0
VERTEX
8
LOGO
10
232.990
20
8.678
30
0.0
0
VERTEX
8
LOGO
10
232.913
20
8.420
30
0.0
0
VERTEX
8
LOGO
10
232.836
20
8.164
30
0.0
0
VERTEX
8
LOGO
10
232.758
20
7.912
30
0.0
0
VERTEX
8
LOGO
10
232.681
20
7.662
30
0.0
0
VERTEX
8
LOGO
10
232.603
20
7.416
30
0.0
0
VERTEX
8
LOGO
10
232.525
20
7.173
30
0.0
0
VERTEX
8
LOGO
10
232.447
20
6.934
30
0.0
0
VERTEX
8
LOGO
10
232.368
20
6.697
30
0.0
0
VERTEX
8
LOGO
10
231.773
20
4.839
30
0.0
0
VERTEX
8
LOGO
10
235.384
20
4.839
30
0.0
0
SEQEND
0
ENDSEC
0
EOF
