0
SECTION
2
HEADER
9
$INSUNITS
70
4
0
ENDSEC
0
SECTION
2
TABLES
0
TABLE
2
LAYER
70
1
0
LAYER
2
LOGO
70
0
62
7
6
CONTINUOUS
0
ENDTAB
0
ENDSEC
0
SECTION
2
ENTITIES
0
POLYLINE
8
LOGO
66
1
70
1
0
VERTEX
8
LOGO
10
210.452
20
196.530
30
0.0
0
VERTEX
8
LOGO
10
210.452
20
180.913
30
0.0
0
VERTEX
8
LOGO
10
194.340
20
180.913
30
0.0
0
VERTEX
8
LOGO
10
121.628
20
3.760
30
0.0
0
VERTEX
8
LOGO
10
90.932
20
3.760
30
0.0
0
VERTEX
8
LOGO
10
18.219
20
180.913
30
0.0
0
VERTEX
8
LOGO
10
0.000
20
180.913
30
0.0
0
VERTEX
8
LOGO
10
0.000
20
196.530
30
0.0
0
VERTEX
8
LOGO
10
90.395
20
196.530
30
0.0
0
VERTEX
8
LOGO
10
90.395
20
180.913
30
0.0
0
VERTEX
8
LOGO
10
71.679
20
180.913
30
0.0
0
VERTEX
8
LOGO
10
123.693
20
53.212
30
0.0
0
VERTEX
8
LOGO
10
176.121
20
180.913
30
0.0
0
VERTEX
8
LOGO
10
153.150
20
180.913
30
0.0
0
VERTEX
8
LOGO
10
153.150
20
196.530
30
0.0
0
VERTEX
8
LOGO
10
210.452
20
196.530
30
0.0
0
SEQEND
0
POLYLINE
8
LOGO
66
1
70
1
0
VERTEX
8
LOGO
10
184.136
20
3.760
30
0.0
0
VERTEX
8
LOGO
10
184.136
20
19.376
30
0.0
0
VERTEX
8
LOGO
10
199.876
20
19.376
30
0.0
0
VERTEX
8
LOGO
10
272.464
20
196.530
30
0.0
0
VERTEX
8
LOGO
10
303.284
20
196.530
30
0.0
0
VERTEX
8
LOGO
10
375.997
20
19.376
30
0.0
0
VERTEX
8
LOGO
10
394.340
20
19.376
30
0.0
0
VERTEX
8
LOGO
10
394.340
20
3.760
30
0.0
0
VERTEX
8
LOGO
10
304.069
20
3.760
30
0.0
0
VERTEX
8
LOGO
10
304.069
20
19.376
30
0.0
0
VERTEX
8
LOGO
10
322.908
20
19.376
30
0.0
0
VERTEX
8
LOGO
10
307.044
20
58.748
30
0.0
0
VERTEX
8
LOGO
10
234.621
20
58.748
30
0.0
0
VERTEX
8
LOGO
10
218.467
20
19.376
30
0.0
0
VERTEX
8
LOGO
10
241.479
20
19.376
30
0.0
0
VERTEX
8
LOGO
10
241.479
20
3.760
30
0.0
0
VERTEX
8
LOGO
10
184.136
20
3.760
30
0.0
0
SEQEND
0
POLYLINE
8
LOGO
66
1
70
1
0
VERTEX
8
LOGO
10
240.942
20
74.365
30
0.0
0
VERTEX
8
LOGO
10
300.723
20
74.365
30
0.0
0
VERTEX
8
LOGO
10
271.018
20
148.110
30
0.0
0
VERTEX
8
LOGO
10
240.942
20
74.365
30
0.0
0
SEQEND
0
POLYLINE
8
LOGO
66
1
70
1
0
VERTEX
8
LOGO
10
403.760
20
3.760
30
0.0
0
VERTEX
8
LOGO
10
403.760
20
19.376
30
0.0
0
VERTEX
8
LOGO
10
428.424
20
19.376
30
0.0
0
VERTEX
8
LOGO
10
428.424
20
180.913
30
0.0
0
VERTEX
8
LOGO
10
403.760
20
180.913
30
0.0
0
VERTEX
8
LOGO
10
403.760
20
196.530
30
0.0
0
VERTEX
8
LOGO
10
502.913
20
196.530
30
0.0
0
VERTEX
8
LOGO
10
502.913
20
180.913
30
0.0
0
VERTEX
8
LOGO
10
478.124
20
180.913
30
0.0
0
VERTEX
8
LOGO
10
478.124
20
21.442
30
0.0
0
VERTEX
8
LOGO
10
554.059
20
21.442
30
0.0
0
VERTEX
8
LOGO
10
554.059
20
51.931
30
0.0
0
VERTEX
8
LOGO
10
571.452
20
51.931
30
0.0
0
VERTEX
8
LOGO
10
571.452
20
3.760
30
0.0
0
VERTEX
8
LOGO
10
403.760
20
3.760
30
0.0
0
SEQEND
0
POLYLINE
8
LOGO
66
1
70
1
0
VERTEX
8
LOGO
10
754.803
20
196.530
30
0.0
0
VERTEX
8
LOGO
10
754.803
20
180.913
30
0.0
0
VERTEX
8
LOGO
10
738.690
20
180.913
30
0.0
0
VERTEX
8
LOGO
10
665.978
20
3.760
30
0.0
0
VERTEX
8
LOGO
10
635.282
20
3.760
30
0.0
0
VERTEX
8
LOGO
10
562.570
20
180.913
30
0.0
0
VERTEX
8
LOGO
10
544.350
20
180.913
30
0.0
0
VERTEX
8
LOGO
10
544.350
20
196.530
30
0.0
0
VERTEX
8
LOGO
10
634.745
20
196.530
30
0.0
0
VERTEX
8
LOGO
10
634.745
20
180.913
30
0.0
0
VERTEX
8
LOGO
10
616.030
20
180.913
30
0.0
0
VERTEX
8
LOGO
10
668.044
20
53.212
30
0.0
0
VERTEX
8
LOGO
10
720.471
20
180.913
30
0.0
0
VERTEX
8
LOGO
10
697.501
20
180.913
30
0.0
0
VERTEX
8
LOGO
10
697.501
20
196.530
30
0.0
0
VERTEX
8
LOGO
10
754.803
20
196.530
30
0.0
0
SEQEND
0
POLYLINE
8
LOGO
66
1
70
1
0
VERTEX
8
LOGO
10
763.479
20
3.760
30
0.0
0
VERTEX
8
LOGO
10
763.479
20
19.376
30
0.0
0
VERTEX
8
LOGO
10
788.143
20
19.376
30
0.0
0
VERTEX
8
LOGO
10
788.143
20
180.913
30
0.0
0
VERTEX
8
LOGO
10
763.479
20
180.913
30
0.0
0
VERTEX
8
LOGO
10
763.479
20
196.530
30
0.0
0
VERTEX
8
LOGO
10
862.632
20
196.530
30
0.0
0
VERTEX
8
LOGO
10
862.632
20
180.913
30
0.0
0
VERTEX
8
LOGO
10
837.843
20
180.913
30
0.0
0
VERTEX
8
LOGO
10
837.843
20
19.376
30
0.0
0
VERTEX
8
LOGO
10
862.632
20
19.376
30
0.0
0
VERTEX
8
LOGO
10
862.632
20
3.760
30
0.0
0
VERTEX
8
LOGO
10
763.479
20
3.760
30
0.0
0
SEQEND
0
POLYLINE
8
LOGO
66
1
70
1
0
VERTEX
8
LOGO
10
1071.803
20
58.748
30
0.0
0
VERTEX
8
LOGO
10
1070.801
20
55.080
30
0.0
0
VERTEX
8
LOGO
10
1068.512
20
48.103
30
0.0
0
VERTEX
8
LOGO
10
1066.547
20
43.185
30
0.0
0
VERTEX
8
LOGO
10
1065.118
20
40.057
30
0.0
0
VERTEX
8
LOGO
10
1063.596
20
37.049
30
0.0
0
VERTEX
8
LOGO
10
1061.978
20
34.161
30
0.0
0
VERTEX
8
LOGO
10
1060.266
20
31.393
30
0.0
0
VERTEX
8
LOGO
10
1058.460
20
28.745
30
0.0
0
VERTEX
8
LOGO
10
1056.559
20
26.217
30
0.0
0
VERTEX
8
LOGO
10
1054.563
20
23.809
30
0.0
0
VERTEX
8
LOGO
10
1052.473
20
21.521
30
0.0
0
VERTEX
8
LOGO
10
1050.288
20
19.354
30
0.0
0
VERTEX
8
LOGO
10
1048.009
20
17.306
30
0.0
0
VERTEX
8
LOGO
10
1045.635
20
15.379
30
0.0
0
VERTEX
8
LOGO
10
1044.412
20
14.460
30
0.0
0
VERTEX
8
LOGO
10
1043.165
20
13.570
30
0.0
0
VERTEX
8
LOGO
10
1040.590
20
11.876
30
0.0
0
VERTEX
8
LOGO
10
1037.910
20
10.294
30
0.0
0
VERTEX
8
LOGO
10
1035.124
20
8.826
30
0.0
0
VERTEX
8
LOGO
10
1032.232
20
7.470
30
0.0
0
VERTEX
8
LOGO
10
1029.234
20
6.227
30
0.0
0
VERTEX
8
LOGO
10
1026.131
20
5.098
30
0.0
0
VERTEX
8
LOGO
10
1022.921
20
4.081
30
0.0
0
VERTEX
8
LOGO
10
1019.606
20
3.177
30
0.0
0
VERTEX
8
LOGO
10
1016.184
20
2.386
30
0.0
0
VERTEX
8
LOGO
10
1010.854
20
1.412
30
0.0
0
VERTEX
8
LOGO
10
1003.376
20
0.508
30
0.0
0
VERTEX
8
LOGO
10
995.475
20
0.056
30
0.0
0
VERTEX
8
LOGO
10
991.365
20
0.000
30
0.0
0
VERTEX
8
LOGO
10
988.336
20
0.026
30
0.0
0
VERTEX
8
LOGO
10
982.397
20
0.237
30
0.0
0
VERTEX
8
LOGO
10
976.617
20
0.658
30
0.0
0
VERTEX
8
LOGO
10
970.998
20
1.289
30
0.0
0
VERTEX
8
LOGO
10
965.538
20
2.131
30
0.0
0
VERTEX
8
LOGO
10
960.238
20
3.183
30
0.0
0
VERTEX
8
LOGO
10
955.097
20
4.446
30
0.0
0
VERTEX
8
LOGO
10
950.117
20
5.919
30
0.0
0
VERTEX
8
LOGO
10
945.296
20
7.602
30
0.0
0
VERTEX
8
LOGO
10
940.635
20
9.496
30
0.0
0
VERTEX
8
LOGO
10
936.134
20
11.601
30
0.0
0
VERTEX
8
LOGO
10
931.792
20
13.915
30
0.0
0
VERTEX
8
LOGO
10
927.610
20
16.441
30
0.0
0
VERTEX
8
LOGO
10
923.589
20
19.177
30
0.0
0
VERTEX
8
LOGO
10
919.726
20
22.123
30
0.0
0
VERTEX
8
LOGO
10
916.024
20
25.279
30
0.0
0
VERTEX
8
LOGO
10
914.233
20
26.937
30
0.0
0
VERTEX
8
LOGO
10
912.489
20
28.639
30
0.0
0
VERTEX
8
LOGO
10
909.168
20
32.155
30
0.0
0
VERTEX
8
LOGO
10
906.068
20
35.821
30
0.0
0
VERTEX
8
LOGO
10
903.189
20
39.637
30
0.0
0
VERTEX
8
LOGO
10
900.532
20
43.601
30
0.0
0
VERTEX
8
LOGO
10
898.097
20
47.716
30
0.0
0
VERTEX
8
LOGO
10
895.883
20
51.979
30
0.0
0
VERTEX
8
LOGO
10
893.890
20
56.393
30
0.0
0
VERTEX
8
LOGO
10
892.119
20
60.955
30
0.0
0
VERTEX
8
LOGO
10
890.569
20
65.667
30
0.0
0
VERTEX
8
LOGO
10
889.240
20
70.529
30
0.0
0
VERTEX
8
LOGO
10
888.133
20
75.540
30
0.0
0
VERTEX
8
LOGO
10
887.248
20
80.700
30
0.0
0
VERTEX
8
LOGO
10
886.583
20
86.010
30
0.0
0
VERTEX
8
LOGO
10
886.140
20
91.469
30
0.0
0
VERTEX
8
LOGO
10
885.919
20
97.078
30
0.0
0
VERTEX
8
LOGO
10
885.891
20
99.938
30
0.0
0
VERTEX
8
LOGO
10
885.919
20
102.809
30
0.0
0
VERTEX
8
LOGO
10
886.140
20
108.436
30
0.0
0
VERTEX
8
LOGO
10
886.583
20
113.913
30
0.0
0
VERTEX
8
LOGO
10
887.248
20
119.239
30
0.0
0
VERTEX
8
LOGO
10
888.133
20
124.413
30
0.0
0
VERTEX
8
LOGO
10
889.240
20
129.437
30
0.0
0
VERTEX
8
LOGO
10
890.569
20
134.309
30
0.0
0
VERTEX
8
LOGO
10
892.119
20
139.030
30
0.0
0
VERTEX
8
LOGO
10
893.890
20
143.601
30
0.0
0
VERTEX
8
LOGO
10
895.883
20
148.020
30
0.0
0
VERTEX
8
LOGO
10
898.097
20
152.288
30
0.0
0
VERTEX
8
LOGO
10
900.532
20
156.405
30
0.0
0
VERTEX
8
LOGO
10
903.189
20
160.372
30
0.0
0
VERTEX
8
LOGO
10
906.068
20
164.187
30
0.0
0
VERTEX
8
LOGO
10
909.168
20
167.851
30
0.0
0
VERTEX
8
LOGO
10
912.489
20
171.364
30
0.0
0
VERTEX
8
LOGO
10
914.233
20
173.063
30
0.0
0
VERTEX
8
LOGO
10
916.024
20
174.721
30
0.0
0
VERTEX
8
LOGO
10
919.726
20
177.877
30
0.0
0
VERTEX
8
LOGO
10
923.589
20
180.823
30
0.0
0
VERTEX
8
LOGO
10
927.610
20
183.559
30
0.0
0
VERTEX
8
LOGO
10
931.792
20
186.085
30
0.0
0
VERTEX
8
LOGO
10
936.134
20
188.399
30
0.0
0
VERTEX
8
LOGO
10
940.635
20
190.504
30
0.0
0
VERTEX
8
LOGO
10
945.296
20
192.398
30
0.0
0
VERTEX
8
LOGO
10
950.117
20
194.081
30
0.0
0
VERTEX
8
LOGO
10
955.097
20
195.554
30
0.0
0
VERTEX
8
LOGO
10
960.238
20
196.817
30
0.0
0
VERTEX
8
LOGO
10
965.538
20
197.869
30
0.0
0
VERTEX
8
LOGO
10
970.998
20
198.711
30
0.0
0
VERTEX
8
LOGO
10
976.617
20
199.342
30
0.0
0
VERTEX
8
LOGO
10
982.397
20
199.763
30
0.0
0
VERTEX
8
LOGO
10
988.336
20
199.974
30
0.0
0
VERTEX
8
LOGO
10
991.365
20
200.000
30
0.0
0
VERTEX
8
LOGO
10
995.684
20
199.935
30
0.0
0
VERTEX
8
LOGO
10
1004.453
20
199.419
30
0.0
0
VERTEX
8
LOGO
10
1013.397
20
198.386
30
0.0
0
VERTEX
8
LOGO
10
1022.517
20
196.837
30
0.0
0
VERTEX
8
LOGO
10
1027.143
20
195.869
30
0.0
0
VERTEX
8
LOGO
10
1031.825
20
194.769
30
0.0
0
VERTEX
8
LOGO
10
1041.394
20
192.172
30
0.0
0
VERTEX
8
LOGO
10
1051.237
20
189.042
30
0.0
0
VERTEX
8
LOGO
10
1061.354
20
185.381
30
0.0
0
VERTEX
8
LOGO
10
1066.515
20
183.351
30
0.0
0
VERTEX
8
LOGO
10
1066.515
20
135.964
30
0.0
0
VERTEX
8
LOGO
10
1050.114
20
135.964
30
0.0
0
VERTEX
8
LOGO
10
1049.451
20
138.952
30
0.0
0
VERTEX
8
LOGO
10
1047.933
20
144.643
30
0.0
0
VERTEX
8
LOGO
10
1046.157
20
149.952
30
0.0
0
VERTEX
8
LOGO
10
1044.122
20
154.879
30
0.0
0
VERTEX
8
LOGO
10
1041.829
20
159.423
30
0.0
0
VERTEX
8
LOGO
10
1039.278
20
163.586
30
0.0
0
VERTEX
8
LOGO
10
1036.468
20
167.366
30
0.0
0
VERTEX
8
LOGO
10
1033.401
20
170.764
30
0.0
0
VERTEX
8
LOGO
10
1031.770
20
172.320
30
0.0
0
VERTEX
8
LOGO
10
1030.074
20
173.781
30
0.0
0
VERTEX
8
LOGO
10
1026.482
20
176.420
30
0.0
0
VERTEX
8
LOGO
10
1022.625
20
178.681
30
0.0
0
VERTEX
8
LOGO
10
1018.501
20
180.566
30
0.0
0
VERTEX
8
LOGO
10
1014.112
20
182.074
30
0.0
0
VERTEX
8
LOGO
10
1009.456
20
183.205
30
0.0
0
VERTEX
8
LOGO
10
1004.535
20
183.959
30
0.0
0
VERTEX
8
LOGO
10
999.347
20
184.336
30
0.0
0
VERTEX
8
LOGO
10
996.654
20
184.383
30
0.0
0
VERTEX
8
LOGO
10
994.909
20
184.363
30
0.0
0
VERTEX
8
LOGO
10
991.505
20
184.201
30
0.0
0
VERTEX
8
LOGO
10
988.214
20
183.877
30
0.0
0
VERTEX
8
LOGO
10
985.035
20
183.391
30
0.0
0
VERTEX
8
LOGO
10
981.968
20
182.743
30
0.0
0
VERTEX
8
LOGO
10
979.015
20
181.933
30
0.0
0
VERTEX
8
LOGO
10
976.174
20
180.961
30
0.0
0
VERTEX
8
LOGO
10
973.445
20
179.826
30
0.0
0
VERTEX
8
LOGO
10
970.830
20
178.530
30
0.0
0
VERTEX
8
LOGO
10
968.327
20
177.072
30
0.0
0
VERTEX
8
LOGO
10
965.936
20
175.452
30
0.0
0
VERTEX
8
LOGO
10
963.659
20
173.669
30
0.0
0
VERTEX
8
LOGO
10
961.494
20
171.725
30
0.0
0
VERTEX
8
LOGO
10
959.441
20
169.619
30
0.0
0
VERTEX
8
LOGO
10
957.501
20
167.350
30
0.0
0
VERTEX
8
LOGO
10
955.674
20
164.920
30
0.0
0
VERTEX
8
LOGO
10
954.803
20
163.644
30
0.0
0
VERTEX
8
LOGO
10
953.961
20
162.328
30
0.0
0
VERTEX
8
LOGO
10
952.359
20
159.567
30
0.0
0
VERTEX
8
LOGO
10
950.863
20
156.631
30
0.0
0
VERTEX
8
LOGO
10
949.474
20
153.521
30
0.0
0
VERTEX
8
LOGO
10
948.192
20
150.236
30
0.0
0
VERTEX
8
LOGO
10
947.017
20
146.778
30
0.0
0
VERTEX
8
LOGO
10
945.949
20
143.145
30
0.0
0
VERTEX
8
LOGO
10
944.987
20
139.337
30
0.0
0
VERTEX
8
LOGO
10
944.133
20
135.356
30
0.0
0
VERTEX
8
LOGO
10
943.385
20
131.200
30
0.0
0
VERTEX
8
LOGO
10
942.463
20
124.639
30
0.0
0
VERTEX
8
LOGO
10
941.609
20
115.282
30
0.0
0
VERTEX
8
LOGO
10
941.181
20
105.227
30
0.0
0
VERTEX
8
LOGO
10
941.128
20
99.938
30
0.0
0
VERTEX
8
LOGO
10
941.181
20
94.654
30
0.0
0
VERTEX
8
LOGO
10
941.609
20
84.610
30
0.0
0
VERTEX
8
LOGO
10
942.463
20
75.263
30
0.0
0
VERTEX
8
LOGO
10
943.385
20
68.710
30
0.0
0
VERTEX
8
LOGO
10
944.133
20
64.559
30
0.0
0
VERTEX
8
LOGO
10
944.987
20
60.583
30
0.0
0
VERTEX
8
LOGO
10
945.949
20
56.780
30
0.0
0
VERTEX
8
LOGO
10
947.017
20
53.153
30
0.0
0
VERTEX
8
LOGO
10
948.192
20
49.699
30
0.0
0
VERTEX
8
LOGO
10
949.474
20
46.420
30
0.0
0
VERTEX
8
LOGO
10
950.863
20
43.315
30
0.0
0
VERTEX
8
LOGO
10
952.359
20
40.384
30
0.0
0
VERTEX
8
LOGO
10
953.961
20
37.628
30
0.0
0
VERTEX
8
LOGO
10
954.803
20
36.315
30
0.0
0
VERTEX
8
LOGO
10
955.674
20
35.044
30
0.0
0
VERTEX
8
LOGO
10
957.503
20
32.623
30
0.0
0
VERTEX
8
LOGO
10
959.447
20
30.364
30
0.0
0
VERTEX
8
LOGO
10
961.505
20
28.266
30
0.0
0
VERTEX
8
LOGO
10
963.678
20
26.329
30
0.0
0
VERTEX
8
LOGO
10
965.966
20
24.554
30
0.0
0
VERTEX
8
LOGO
10
968.368
20
22.940
30
0.0
0
VERTEX
8
LOGO
10
970.884
20
21.488
30
0.0
0
VERTEX
8
LOGO
10
973.515
20
20.197
30
0.0
0
VERTEX
8
LOGO
10
976.261
20
19.067
30
0.0
0
VERTEX
8
LOGO
10
979.121
20
18.099
30
0.0
0
VERTEX
8
LOGO
10
982.096
20
17.292
30
0.0
0
VERTEX
8
LOGO
10
985.186
20
16.646
30
0.0
0
VERTEX
8
LOGO
10
988.390
20
16.162
30
0.0
0
VERTEX
8
LOGO
10
991.709
20
15.839
30
0.0
0
VERTEX
8
LOGO
10
995.142
20
15.678
30
0.0
0
VERTEX
8
LOGO
10
996.901
20
15.658
30
0.0
0
VERTEX
8
LOGO
10
999.280
20
15.700
30
0.0
0
VERTEX
8
LOGO
10
1003.873
20
16.034
30
0.0
0
VERTEX
8
LOGO
10
1008.244
20
16.703
30
0.0
0
VERTEX
8
LOGO
10
1012.395
20
17.706
30
0.0
0
VERTEX
8
LOGO
10
1016.325
20
19.044
30
0.0
0
VERTEX
8
LOGO
10
1020.034
20
20.715
30
0.0
0
VERTEX
8
LOGO
10
1023.523
20
22.722
30
0.0
0
VERTEX
8
LOGO
10
1026.790
20
25.062
30
0.0
0
VERTEX
8
LOGO
10
1028.341
20
26.358
30
0.0
0
VERTEX
8
LOGO
10
1029.844
20
27.739
30
0.0
0
VERTEX
8
LOGO
10
1032.692
20
30.757
30
0.0
0
VERTEX
8
LOGO
10
1035.331
20
34.119
30
0.0
0
VERTEX
8
LOGO
10
1037.760
20
37.824
30
0.0
0
VERTEX
8
LOGO
10
1039.981
20
41.873
30
0.0
0
VERTEX
8
LOGO
10
1041.993
20
46.265
30
0.0
0
VERTEX
8
LOGO
10
1043.795
20
51.001
30
0.0
0
VERTEX
8
LOGO
10
1045.388
20
56.080
30
0.0
0
VERTEX
8
LOGO
10
1046.106
20
58.748
30
0.0
0
VERTEX
8
LOGO
10
1071.803
20
58.748
30
0.0
0
SEQEND
0
ENDSEC
0
EOF
