0
SECTION
2
HEADER
9
$INSUNITS
70
4
0
ENDSEC
0
SECTION
2
TABLES
0
TABLE
2
LAYER
70
4
0
LAYER
2
CHAPA
70
0
62
5
6
CONTINUOUS
0
LAYER
2
PECAS
70
0
62
7
6
CONTINUOUS
0
LAYER
2
OFFSET
70
0
62
6
6
CONTINUOUS
0
LAYER
2
TEXTO
70
0
62
3
6
CONTINUOUS
0
ENDTAB
0
ENDSEC
0
SECTION
2
ENTITIES
0
POLYLINE
8
CHAPA
66
1
70
1
0
VERTEX
8
CHAPA
10
0.000
20
0.000
30
0.0
0
VERTEX
8
CHAPA
10
1850.000
20
0.000
30
0.0
0
VERTEX
8
CHAPA
10
1850.000
20
2750.000
30
0.0
0
VERTEX
8
CHAPA
10
0.000
20
2750.000
30
0.0
0
SEQEND
0
POLYLINE
8
PECAS
66
1
70
1
0
VERTEX
8
PECAS
10
7.000
20
7.000
30
0.0
0
VERTEX
8
PECAS
10
469.000
20
7.000
30
0.0
0
VERTEX
8
PECAS
10
469.000
20
901.000
30
0.0
0
VERTEX
8
PECAS
10
7.000
20
901.000
30
0.0
0
SEQEND
0
POLYLINE
8
OFFSET
66
1
70
1
0
VERTEX
8
OFFSET
10
57.000
20
57.000
30
0.0
0
VERTEX
8
OFFSET
10
419.000
20
57.000
30
0.0
0
VERTEX
8
OFFSET
10
419.000
20
851.000
30
0.0
0
VERTEX
8
OFFSET
10
57.000
20
851.000
30
0.0
0
SEQEND
0
TEXT
8
TEXTO
10
15.000
20
454.000
30
0.0
40
28.000
1
P11 462x894
0
POLYLINE
8
PECAS
66
1
70
1
0
VERTEX
8
PECAS
10
476.000
20
7.000
30
0.0
0
VERTEX
8
PECAS
10
953.000
20
7.000
30
0.0
0
VERTEX
8
PECAS
10
953.000
20
857.000
30
0.0
0
VERTEX
8
PECAS
10
476.000
20
857.000
30
0.0
0
SEQEND
0
POLYLINE
8
OFFSET
66
1
70
1
0
VERTEX
8
OFFSET
10
526.000
20
57.000
30
0.0
0
VERTEX
8
OFFSET
10
903.000
20
57.000
30
0.0
0
VERTEX
8
OFFSET
10
903.000
20
807.000
30
0.0
0
VERTEX
8
OFFSET
10
526.000
20
807.000
30
0.0
0
SEQEND
0
TEXT
8
TEXTO
10
484.000
20
432.000
30
0.0
40
28.000
1
P5 477x850
0
POLYLINE
8
PECAS
66
1
70
1
0
VERTEX
8
PECAS
10
960.000
20
7.000
30
0.0
0
VERTEX
8
PECAS
10
1440.000
20
7.000
30
0.0
0
VERTEX
8
PECAS
10
1440.000
20
857.000
30
0.0
0
VERTEX
8
PECAS
10
960.000
20
857.000
30
0.0
0
SEQEND
0
POLYLINE
8
OFFSET
66
1
70
1
0
VERTEX
8
OFFSET
10
1010.000
20
57.000
30
0.0
0
VERTEX
8
OFFSET
10
1390.000
20
57.000
30
0.0
0
VERTEX
8
OFFSET
10
1390.000
20
807.000
30
0.0
0
VERTEX
8
OFFSET
10
1010.000
20
807.000
30
0.0
0
SEQEND
0
TEXT
8
TEXTO
10
968.000
20
432.000
30
0.0
40
28.000
1
P6 480x850
0
POLYLINE
8
PECAS
66
1
70
1
0
VERTEX
8
PECAS
10
7.000
20
908.000
30
0.0
0
VERTEX
8
PECAS
10
496.000
20
908.000
30
0.0
0
VERTEX
8
PECAS
10
496.000
20
1753.000
30
0.0
0
VERTEX
8
PECAS
10
7.000
20
1753.000
30
0.0
0
SEQEND
0
POLYLINE
8
OFFSET
66
1
70
1
0
VERTEX
8
OFFSET
10
57.000
20
958.000
30
0.0
0
VERTEX
8
OFFSET
10
446.000
20
958.000
30
0.0
0
VERTEX
8
OFFSET
10
446.000
20
1703.000
30
0.0
0
VERTEX
8
OFFSET
10
57.000
20
1703.000
30
0.0
0
SEQEND
0
TEXT
8
TEXTO
10
15.000
20
1330.500
30
0.0
40
28.000
1
P7 489x845
0
POLYLINE
8
PECAS
66
1
70
1
0
VERTEX
8
PECAS
10
503.000
20
908.000
30
0.0
0
VERTEX
8
PECAS
10
992.000
20
908.000
30
0.0
0
VERTEX
8
PECAS
10
992.000
20
1753.000
30
0.0
0
VERTEX
8
PECAS
10
503.000
20
1753.000
30
0.0
0
SEQEND
0
POLYLINE
8
OFFSET
66
1
70
1
0
VERTEX
8
OFFSET
10
553.000
20
958.000
30
0.0
0
VERTEX
8
OFFSET
10
942.000
20
958.000
30
0.0
0
VERTEX
8
OFFSET
10
942.000
20
1703.000
30
0.0
0
VERTEX
8
OFFSET
10
553.000
20
1703.000
30
0.0
0
SEQEND
0
TEXT
8
TEXTO
10
511.000
20
1330.500
30
0.0
40
28.000
1
P8 489x845
0
POLYLINE
8
PECAS
66
1
70
1
0
VERTEX
8
PECAS
10
999.000
20
908.000
30
0.0
0
VERTEX
8
PECAS
10
1485.000
20
908.000
30
0.0
0
VERTEX
8
PECAS
10
1485.000
20
1753.000
30
0.0
0
VERTEX
8
PECAS
10
999.000
20
1753.000
30
0.0
0
SEQEND
0
POLYLINE
8
OFFSET
66
1
70
1
0
VERTEX
8
OFFSET
10
1049.000
20
958.000
30
0.0
0
VERTEX
8
OFFSET
10
1435.000
20
958.000
30
0.0
0
VERTEX
8
OFFSET
10
1435.000
20
1703.000
30
0.0
0
VERTEX
8
OFFSET
10
1049.000
20
1703.000
30
0.0
0
SEQEND
0
TEXT
8
TEXTO
10
1007.000
20
1330.500
30
0.0
40
28.000
1
P9 486x845
0
POLYLINE
8
PECAS
66
1
70
1
0
VERTEX
8
PECAS
10
7.000
20
1760.000
30
0.0
0
VERTEX
8
PECAS
10
493.000
20
1760.000
30
0.0
0
VERTEX
8
PECAS
10
493.000
20
2605.000
30
0.0
0
VERTEX
8
PECAS
10
7.000
20
2605.000
30
0.0
0
SEQEND
0
POLYLINE
8
OFFSET
66
1
70
1
0
VERTEX
8
OFFSET
10
57.000
20
1810.000
30
0.0
0
VERTEX
8
OFFSET
10
443.000
20
1810.000
30
0.0
0
VERTEX
8
OFFSET
10
443.000
20
2555.000
30
0.0
0
VERTEX
8
OFFSET
10
57.000
20
2555.000
30
0.0
0
SEQEND
0
TEXT
8
TEXTO
10
15.000
20
2182.500
30
0.0
40
28.000
1
P10 486x845
0
POLYLINE
8
PECAS
66
1
70
1
0
VERTEX
8
PECAS
10
500.000
20
1760.000
30
0.0
0
VERTEX
8
PECAS
10
1103.000
20
1760.000
30
0.0
0
VERTEX
8
PECAS
10
1103.000
20
2453.000
30
0.0
0
VERTEX
8
PECAS
10
500.000
20
2453.000
30
0.0
0
SEQEND
0
POLYLINE
8
OFFSET
66
1
70
1
0
VERTEX
8
OFFSET
10
550.000
20
1810.000
30
0.0
0
VERTEX
8
OFFSET
10
1053.000
20
1810.000
30
0.0
0
VERTEX
8
OFFSET
10
1053.000
20
2403.000
30
0.0
0
VERTEX
8
OFFSET
10
550.000
20
2403.000
30
0.0
0
SEQEND
0
TEXT
8
TEXTO
10
508.000
20
2106.500
30
0.0
40
28.000
1
P1 603x693
0
POLYLINE
8
PECAS
66
1
70
1
0
VERTEX
8
PECAS
10
1110.000
20
1760.000
30
0.0
0
VERTEX
8
PECAS
10
1468.000
20
1760.000
30
0.0
0
VERTEX
8
PECAS
10
1468.000
20
2453.000
30
0.0
0
VERTEX
8
PECAS
10
1110.000
20
2453.000
30
0.0
0
SEQEND
0
POLYLINE
8
OFFSET
66
1
70
1
0
VERTEX
8
OFFSET
10
1160.000
20
1810.000
30
0.0
0
VERTEX
8
OFFSET
10
1418.000
20
1810.000
30
0.0
0
VERTEX
8
OFFSET
10
1418.000
20
2403.000
30
0.0
0
VERTEX
8
OFFSET
10
1160.000
20
2403.000
30
0.0
0
SEQEND
0
TEXT
8
TEXTO
10
1118.000
20
2106.500
30
0.0
40
28.000
1
P2 358x693
0
POLYLINE
8
PECAS
66
1
70
1
0
VERTEX
8
PECAS
10
1475.000
20
1760.000
30
0.0
0
VERTEX
8
PECAS
10
1641.000
20
1760.000
30
0.0
0
VERTEX
8
PECAS
10
1641.000
20
2453.000
30
0.0
0
VERTEX
8
PECAS
10
1475.000
20
2453.000
30
0.0
0
SEQEND
0
POLYLINE
8
OFFSET
66
1
70
1
0
VERTEX
8
OFFSET
10
1525.000
20
1810.000
30
0.0
0
VERTEX
8
OFFSET
10
1591.000
20
1810.000
30
0.0
0
VERTEX
8
OFFSET
10
1591.000
20
2403.000
30
0.0
0
VERTEX
8
OFFSET
10
1525.000
20
2403.000
30
0.0
0
SEQEND
0
TEXT
8
TEXTO
10
1483.000
20
2106.500
30
0.0
40
28.000
1
P4 166x693
0
ENDSEC
0
EOF
