0
SECTION
2
HEADER
9
$INSUNITS
70
4
0
ENDSEC
0
SECTION
2
TABLES
0
TABLE
2
LAYER
70
3
0
LAYER
2
PERIMETRO
70
0
62
7
6
CONTINUOUS
0
LAYER
2
RANHURAS
70
0
62
1
6
CONTINUOUS
0
LAYER
2
TEXTO
70
0
62
3
6
CONTINUOUS
0
ENDTAB
0
ENDSEC
0
SECTION
2
ENTITIES
0
ARC
8
PERIMETRO
10
900.0000
20
950.0000
30
0.0
40
1236.9317
50
46.3436
51
133.6564
0
ARC
8
PERIMETRO
10
900.0000
20
950.0000
30
0.0
40
515.3882
50
46.3436
51
133.6564
0
LINE
8
PERIMETRO
10
1255.7891
20
1322.8795
30
0.0
11
1753.8938
21
1844.9108
31
0.0
0
LINE
8
PERIMETRO
10
544.2109
20
1322.8795
30
0.0
11
46.1062
21
1844.9108
31
0.0
0
POLYLINE
8
RANHURAS
66
1
70
0
0
VERTEX
8
RANHURAS
10
1756.4087
20
1856.3127
30
0.0
0
VERTEX
8
RANHURAS
10
1247.1071
20
1317.3335
30
0.0
0
VERTEX
8
RANHURAS
10
1243.5254
20
1320.6853
30
0.0
0
VERTEX
8
RANHURAS
10
1747.5715
20
1864.5825
30
0.0
0
VERTEX
8
RANHURAS
10
1738.6545
20
1872.7661
30
0.0
0
VERTEX
8
RANHURAS
10
1239.9112
20
1324.0021
30
0.0
0
VERTEX
8
RANHURAS
10
1236.2651
20
1327.2837
30
0.0
0
VERTEX
8
RANHURAS
10
1729.6584
20
1880.8628
30
0.0
0
VERTEX
8
RANHURAS
10
1720.5842
20
1888.8717
30
0.0
0
VERTEX
8
RANHURAS
10
1232.5873
20
1330.5298
30
0.0
0
VERTEX
8
RANHURAS
10
1228.8781
20
1333.7401
30
0.0
0
VERTEX
8
RANHURAS
10
1711.4327
20
1896.7923
30
0.0
0
VERTEX
8
RANHURAS
10
1702.2047
20
1904.6236
30
0.0
0
VERTEX
8
RANHURAS
10
1225.1379
20
1336.9141
30
0.0
0
VERTEX
8
RANHURAS
10
1221.3672
20
1340.0518
30
0.0
0
VERTEX
8
RANHURAS
10
1692.9012
20
1912.3650
30
0.0
0
VERTEX
8
RANHURAS
10
1683.5229
20
1920.0157
30
0.0
0
VERTEX
8
RANHURAS
10
1217.5661
20
1343.1526
30
0.0
0
VERTEX
8
RANHURAS
10
1213.7351
20
1346.2165
30
0.0
0
VERTEX
8
RANHURAS
10
1674.0709
20
1927.5750
30
0.0
0
VERTEX
8
RANHURAS
10
1664.5459
20
1935.0423
30
0.0
0
VERTEX
8
RANHURAS
10
1209.8746
20
1349.2430
30
0.0
0
VERTEX
8
RANHURAS
10
1205.9849
20
1352.2319
30
0.0
0
VERTEX
8
RANHURAS
10
1654.9488
20
1942.4167
30
0.0
0
VERTEX
8
RANHURAS
10
1645.2807
20
1949.6976
30
0.0
0
VERTEX
8
RANHURAS
10
1202.0663
20
1355.1829
30
0.0
0
VERTEX
8
RANHURAS
10
1198.1193
20
1358.0957
30
0.0
0
VERTEX
8
RANHURAS
10
1635.5423
20
1956.8844
30
0.0
0
VERTEX
8
RANHURAS
10
1625.7347
20
1963.9762
30
0.0
0
VERTEX
8
RANHURAS
10
1194.1442
20
1360.9701
30
0.0
0
VERTEX
8
RANHURAS
10
1190.1414
20
1363.8058
30
0.0
0
VERTEX
8
RANHURAS
10
1615.8586
20
1970.9726
30
0.0
0
VERTEX
8
RANHURAS
10
1605.9151
20
1977.8728
30
0.0
0
VERTEX
8
RANHURAS
10
1186.1113
20
1366.6024
30
0.0
0
VERTEX
8
RANHURAS
10
1182.0542
20
1369.3599
30
0.0
0
VERTEX
8
RANHURAS
10
1595.9052
20
1984.6761
30
0.0
0
VERTEX
8
RANHURAS
10
1585.8296
20
1991.3820
30
0.0
0
VERTEX
8
RANHURAS
10
1177.9705
20
1372.0778
30
0.0
0
VERTEX
8
RANHURAS
10
1173.8606
20
1374.7559
30
0.0
0
VERTEX
8
RANHURAS
10
1575.6895
20
1997.9897
30
0.0
0
VERTEX
8
RANHURAS
10
1565.4856
20
2004.4987
30
0.0
0
VERTEX
8
RANHURAS
10
1169.7250
20
1377.3941
30
0.0
0
VERTEX
8
RANHURAS
10
1165.5639
20
1379.9919
30
0.0
0
VERTEX
8
RANHURAS
10
1555.2191
20
2010.9084
30
0.0
0
VERTEX
8
RANHURAS
10
1544.8909
20
2017.2181
30
0.0
0
VERTEX
8
RANHURAS
10
1161.3778
20
1382.5493
30
0.0
0
VERTEX
8
RANHURAS
10
1157.1671
20
1385.0659
30
0.0
0
VERTEX
8
RANHURAS
10
1534.5019
20
2023.4272
30
0.0
0
VERTEX
8
RANHURAS
10
1524.0531
20
2029.5353
30
0.0
0
VERTEX
8
RANHURAS
10
1152.9321
20
1387.5415
30
0.0
0
VERTEX
8
RANHURAS
10
1148.6733
20
1389.9759
30
0.0
0
VERTEX
8
RANHURAS
10
1513.5455
20
2035.5416
30
0.0
0
VERTEX
8
RANHURAS
10
1502.9801
20
2041.4456
30
0.0
0
VERTEX
8
RANHURAS
10
1144.3911
20
1392.3689
30
0.0
0
VERTEX
8
RANHURAS
10
1140.0859
20
1394.7201
30
0.0
0
VERTEX
8
RANHURAS
10
1492.3579
20
2047.2469
30
0.0
0
VERTEX
8
RANHURAS
10
1481.6800
20
2052.9447
30
0.0
0
VERTEX
8
RANHURAS
10
1135.7581
20
1397.0295
30
0.0
0
VERTEX
8
RANHURAS
10
1131.4080
20
1399.2968
30
0.0
0
VERTEX
8
RANHURAS
10
1470.9472
20
2058.5387
30
0.0
0
VERTEX
8
RANHURAS
10
1460.1606
20
2064.0282
30
0.0
0
VERTEX
8
RANHURAS
10
1127.0361
20
1401.5217
30
0.0
0
VERTEX
8
RANHURAS
10
1122.6429
20
1403.7041
30
0.0
0
VERTEX
8
RANHURAS
10
1449.3212
20
2069.4127
30
0.0
0
VERTEX
8
RANHURAS
10
1438.4301
20
2074.6918
30
0.0
0
VERTEX
8
RANHURAS
10
1118.2287
20
1405.8437
30
0.0
0
VERTEX
8
RANHURAS
10
1113.7939
20
1407.9404
30
0.0
0
VERTEX
8
RANHURAS
10
1427.4883
20
2079.8649
30
0.0
0
VERTEX
8
RANHURAS
10
1416.4967
20
2084.9316
30
0.0
0
VERTEX
8
RANHURAS
10
1109.3389
20
1409.9940
30
0.0
0
VERTEX
8
RANHURAS
10
1104.8643
20
1412.0042
30
0.0
0
VERTEX
8
RANHURAS
10
1405.4565
20
2089.8914
30
0.0
0
VERTEX
8
RANHURAS
10
1394.3687
20
2094.7437
30
0.0
0
VERTEX
8
RANHURAS
10
1100.3703
20
1413.9709
30
0.0
0
VERTEX
8
RANHURAS
10
1095.8575
20
1415.8938
30
0.0
0
VERTEX
8
RANHURAS
10
1383.2343
20
2099.4882
30
0.0
0
VERTEX
8
RANHURAS
10
1372.0544
20
2104.1245
30
0.0
0
VERTEX
8
RANHURAS
10
1091.3262
20
1417.7729
30
0.0
0
VERTEX
8
RANHURAS
10
1086.7769
20
1419.6079
30
0.0
0
VERTEX
8
RANHURAS
10
1360.8300
20
2108.6519
30
0.0
0
VERTEX
8
RANHURAS
10
1349.5622
20
2113.0703
30
0.0
0
VERTEX
8
RANHURAS
10
1082.2100
20
1421.3987
30
0.0
0
VERTEX
8
RANHURAS
10
1077.6259
20
1423.1451
30
0.0
0
VERTEX
8
RANHURAS
10
1338.2520
20
2117.3790
30
0.0
0
VERTEX
8
RANHURAS
10
1326.9006
20
2121.5778
30
0.0
0
VERTEX
8
RANHURAS
10
1073.0251
20
1424.8469
30
0.0
0
VERTEX
8
RANHURAS
10
1068.4080
20
1426.5039
30
0.0
0
VERTEX
8
RANHURAS
10
1315.5089
20
2125.6662
30
0.0
0
VERTEX
8
RANHURAS
10
1304.0781
20
2129.6438
30
0.0
0
VERTEX
8
RANHURAS
10
1063.7751
20
1428.1161
30
0.0
0
VERTEX
8
RANHURAS
10
1059.1267
20
1429.6832
30
0.0
0
VERTEX
8
RANHURAS
10
1292.6092
20
2133.5103
30
0.0
0
VERTEX
8
RANHURAS
10
1281.1033
20
2137.2653
30
0.0
0
VERTEX
8
RANHURAS
10
1054.4633
20
1431.2051
30
0.0
0
VERTEX
8
RANHURAS
10
1049.7853
20
1432.6817
30
0.0
0
VERTEX
8
RANHURAS
10
1269.5616
20
2140.9084
30
0.0
0
VERTEX
8
RANHURAS
10
1257.9850
20
2144.4394
30
0.0
0
VERTEX
8
RANHURAS
10
1045.0933
20
1434.1128
30
0.0
0
VERTEX
8
RANHURAS
10
1040.3875
20
1435.4983
30
0.0
0
VERTEX
8
RANHURAS
10
1246.3746
20
2147.8578
30
0.0
0
VERTEX
8
RANHURAS
10
1234.7317
20
2151.1633
30
0.0
0
VERTEX
8
RANHURAS
10
1035.6686
20
1436.8380
30
0.0
0
VERTEX
8
RANHURAS
10
1030.9368
20
1438.1319
30
0.0
0
VERTEX
8
RANHURAS
10
1223.0572
20
2154.3557
30
0.0
0
VERTEX
8
RANHURAS
10
1211.3523
20
2157.4346
30
0.0
0
VERTEX
8
RANHURAS
10
1026.1928
20
1439.3798
30
0.0
0
VERTEX
8
RANHURAS
10
1021.4368
20
1440.5816
30
0.0
0
VERTEX
8
RANHURAS
10
1199.6180
20
2160.3998
30
0.0
0
VERTEX
8
RANHURAS
10
1187.8555
20
2163.2509
30
0.0
0
VERTEX
8
RANHURAS
10
1016.6694
20
1441.7372
30
0.0
0
VERTEX
8
RANHURAS
10
1011.8910
20
1442.8465
30
0.0
0
VERTEX
8
RANHURAS
10
1176.0659
20
2165.9878
30
0.0
0
VERTEX
8
RANHURAS
10
1164.2503
20
2168.6100
30
0.0
0
VERTEX
8
RANHURAS
10
1007.1021
20
1443.9093
30
0.0
0
VERTEX
8
RANHURAS
10
1002.3031
20
1444.9256
30
0.0
0
VERTEX
8
RANHURAS
10
1152.4098
20
2171.1175
30
0.0
0
VERTEX
8
RANHURAS
10
1140.5455
20
2173.5099
30
0.0
0
VERTEX
8
RANHURAS
10
997.4944
20
1445.8952
30
0.0
0
VERTEX
8
RANHURAS
10
992.6766
20
1446.8182
30
0.0
0
VERTEX
8
RANHURAS
10
1128.6585
20
2175.7871
30
0.0
0
VERTEX
8
RANHURAS
10
1116.7500
20
2177.9487
30
0.0
0
VERTEX
8
RANHURAS
10
987.8500
20
1447.6943
30
0.0
0
VERTEX
8
RANHURAS
10
983.0151
20
1448.5235
30
0.0
0
VERTEX
8
RANHURAS
10
1104.8211
20
2179.9947
30
0.0
0
VERTEX
8
RANHURAS
10
1092.8729
20
2181.9248
30
0.0
0
VERTEX
8
RANHURAS
10
978.1724
20
1449.3058
30
0.0
0
VERTEX
8
RANHURAS
10
973.3224
20
1450.0411
30
0.0
0
VERTEX
8
RANHURAS
10
1080.9065
20
2183.7388
30
0.0
0
VERTEX
8
RANHURAS
10
1068.9231
20
2185.4366
30
0.0
0
VERTEX
8
RANHURAS
10
968.4655
20
1450.7292
30
0.0
0
VERTEX
8
RANHURAS
10
963.6021
20
1451.3701
30
0.0
0
VERTEX
8
RANHURAS
10
1056.9238
20
2187.0180
30
0.0
0
VERTEX
8
RANHURAS
10
1044.9096
20
2188.4829
30
0.0
0
VERTEX
8
RANHURAS
10
958.7327
20
1451.9639
30
0.0
0
VERTEX
8
RANHURAS
10
953.8577
20
1452.5103
30
0.0
0
VERTEX
8
RANHURAS
10
1032.8818
20
2189.8311
30
0.0
0
VERTEX
8
RANHURAS
10
1020.8415
20
2191.0624
30
0.0
0
VERTEX
8
RANHURAS
10
948.9777
20
1453.0094
30
0.0
0
VERTEX
8
RANHURAS
10
944.0931
20
1453.4611
30
0.0
0
VERTEX
8
RANHURAS
10
1008.7899
20
2192.1769
30
0.0
0
VERTEX
8
RANHURAS
10
996.7279
20
2193.1743
30
0.0
0
VERTEX
8
RANHURAS
10
939.2044
20
1453.8653
30
0.0
0
VERTEX
8
RANHURAS
10
934.3119
20
1454.2221
30
0.0
0
VERTEX
8
RANHURAS
10
984.6569
20
2194.0546
30
0.0
0
VERTEX
8
RANHURAS
10
972.5779
20
2194.8177
30
0.0
0
VERTEX
8
RANHURAS
10
929.4162
20
1454.5314
30
0.0
0
VERTEX
8
RANHURAS
10
924.5177
20
1454.7931
30
0.0
0
VERTEX
8
RANHURAS
10
960.4920
20
2195.4635
30
0.0
0
VERTEX
8
RANHURAS
10
948.4004
20
2195.9920
30
0.0
0
VERTEX
8
RANHURAS
10
919.6170
20
1455.0073
30
0.0
0
VERTEX
8
RANHURAS
10
914.7143
20
1455.1740
30
0.0
0
VERTEX
8
RANHURAS
10
936.3043
20
2196.4031
30
0.0
0
VERTEX
8
RANHURAS
10
924.2048
20
2196.6967
30
0.0
0
VERTEX
8
RANHURAS
10
909.8103
20
1455.2930
30
0.0
0
VERTEX
8
RANHURAS
10
904.9054
20
1455.3644
30
0.0
0
VERTEX
8
RANHURAS
10
912.1030
20
2196.8729
30
0.0
0
VERTEX
8
RANHURAS
10
900.0000
20
2196.9317
30
0.0
0
VERTEX
8
RANHURAS
10
900.0000
20
1455.3882
30
0.0
0
VERTEX
8
RANHURAS
10
895.0946
20
1455.3644
30
0.0
0
VERTEX
8
RANHURAS
10
887.8970
20
2196.8729
30
0.0
0
VERTEX
8
RANHURAS
10
875.7952
20
2196.6967
30
0.0
0
VERTEX
8
RANHURAS
10
890.1897
20
1455.2930
30
0.0
0
VERTEX
8
RANHURAS
10
885.2857
20
1455.1740
30
0.0
0
VERTEX
8
RANHURAS
10
863.6957
20
2196.4031
30
0.0
0
VERTEX
8
RANHURAS
10
851.5996
20
2195.9920
30
0.0
0
VERTEX
8
RANHURAS
10
880.3830
20
1455.0073
30
0.0
0
VERTEX
8
RANHURAS
10
875.4823
20
1454.7931
30
0.0
0
VERTEX
8
RANHURAS
10
839.5080
20
2195.4635
30
0.0
0
VERTEX
8
RANHURAS
10
827.4221
20
2194.8177
30
0.0
0
VERTEX
8
RANHURAS
10
870.5838
20
1454.5314
30
0.0
0
VERTEX
8
RANHURAS
10
865.6881
20
1454.2221
30
0.0
0
VERTEX
8
RANHURAS
10
815.3431
20
2194.0546
30
0.0
0
VERTEX
8
RANHURAS
10
803.2721
20
2193.1743
30
0.0
0
VERTEX
8
RANHURAS
10
860.7956
20
1453.8653
30
0.0
0
VERTEX
8
RANHURAS
10
855.9069
20
1453.4611
30
0.0
0
VERTEX
8
RANHURAS
10
791.2101
20
2192.1769
30
0.0
0
VERTEX
8
RANHURAS
10
779.1585
20
2191.0624
30
0.0
0
VERTEX
8
RANHURAS
10
851.0223
20
1453.0094
30
0.0
0
VERTEX
8
RANHURAS
10
846.1423
20
1452.5103
30
0.0
0
VERTEX
8
RANHURAS
10
767.1182
20
2189.8311
30
0.0
0
VERTEX
8
RANHURAS
10
755.0904
20
2188.4829
30
0.0
0
VERTEX
8
RANHURAS
10
841.2673
20
1451.9639
30
0.0
0
VERTEX
8
RANHURAS
10
836.3979
20
1451.3701
30
0.0
0
VERTEX
8
RANHURAS
10
743.0762
20
2187.0180
30
0.0
0
VERTEX
8
RANHURAS
10
731.0769
20
2185.4366
30
0.0
0
VERTEX
8
RANHURAS
10
831.5345
20
1450.7292
30
0.0
0
VERTEX
8
RANHURAS
10
826.6776
20
1450.0411
30
0.0
0
VERTEX
8
RANHURAS
10
719.0935
20
2183.7388
30
0.0
0
VERTEX
8
RANHURAS
10
707.1271
20
2181.9248
30
0.0
0
VERTEX
8
RANHURAS
10
821.8276
20
1449.3058
30
0.0
0
VERTEX
8
RANHURAS
10
816.9849
20
1448.5235
30
0.0
0
VERTEX
8
RANHURAS
10
695.1789
20
2179.9947
30
0.0
0
VERTEX
8
RANHURAS
10
683.2500
20
2177.9487
30
0.0
0
VERTEX
8
RANHURAS
10
812.1500
20
1447.6943
30
0.0
0
VERTEX
8
RANHURAS
10
807.3234
20
1446.8182
30
0.0
0
VERTEX
8
RANHURAS
10
671.3415
20
2175.7871
30
0.0
0
VERTEX
8
RANHURAS
10
659.4545
20
2173.5099
30
0.0
0
VERTEX
8
RANHURAS
10
802.5056
20
1445.8952
30
0.0
0
VERTEX
8
RANHURAS
10
797.6969
20
1444.9256
30
0.0
0
VERTEX
8
RANHURAS
10
647.5902
20
2171.1175
30
0.0
0
VERTEX
8
RANHURAS
10
635.7497
20
2168.6100
30
0.0
0
VERTEX
8
RANHURAS
10
792.8979
20
1443.9093
30
0.0
0
VERTEX
8
RANHURAS
10
788.1090
20
1442.8465
30
0.0
0
VERTEX
8
RANHURAS
10
623.9341
20
2165.9878
30
0.0
0
VERTEX
8
RANHURAS
10
612.1445
20
2163.2509
30
0.0
0
VERTEX
8
RANHURAS
10
783.3306
20
1441.7372
30
0.0
0
VERTEX
8
RANHURAS
10
778.5632
20
1440.5816
30
0.0
0
VERTEX
8
RANHURAS
10
600.3820
20
2160.3998
30
0.0
0
VERTEX
8
RANHURAS
10
588.6477
20
2157.4346
30
0.0
0
VERTEX
8
RANHURAS
10
773.8072
20
1439.3798
30
0.0
0
VERTEX
8
RANHURAS
10
769.0632
20
1438.1319
30
0.0
0
VERTEX
8
RANHURAS
10
576.9428
20
2154.3557
30
0.0
0
VERTEX
8
RANHURAS
10
565.2683
20
2151.1633
30
0.0
0
VERTEX
8
RANHURAS
10
764.3314
20
1436.8380
30
0.0
0
VERTEX
8
RANHURAS
10
759.6125
20
1435.4983
30
0.0
0
VERTEX
8
RANHURAS
10
553.6254
20
2147.8578
30
0.0
0
VERTEX
8
RANHURAS
10
542.0150
20
2144.4394
30
0.0
0
VERTEX
8
RANHURAS
10
754.9067
20
1434.1128
30
0.0
0
VERTEX
8
RANHURAS
10
750.2147
20
1432.6817
30
0.0
0
VERTEX
8
RANHURAS
10
530.4384
20
2140.9084
30
0.0
0
VERTEX
8
RANHURAS
10
518.8967
20
2137.2653
30
0.0
0
VERTEX
8
RANHURAS
10
745.5367
20
1431.2051
30
0.0
0
VERTEX
8
RANHURAS
10
740.8733
20
1429.6832
30
0.0
0
VERTEX
8
RANHURAS
10
507.3908
20
2133.5103
30
0.0
0
VERTEX
8
RANHURAS
10
495.9219
20
2129.6438
30
0.0
0
VERTEX
8
RANHURAS
10
736.2249
20
1428.1161
30
0.0
0
VERTEX
8
RANHURAS
10
731.5920
20
1426.5039
30
0.0
0
VERTEX
8
RANHURAS
10
484.4911
20
2125.6662
30
0.0
0
VERTEX
8
RANHURAS
10
473.0994
20
2121.5778
30
0.0
0
VERTEX
8
RANHURAS
10
726.9749
20
1424.8469
30
0.0
0
VERTEX
8
RANHURAS
10
722.3741
20
1423.1451
30
0.0
0
VERTEX
8
RANHURAS
10
461.7480
20
2117.3790
30
0.0
0
VERTEX
8
RANHURAS
10
450.4378
20
2113.0703
30
0.0
0
VERTEX
8
RANHURAS
10
717.7900
20
1421.3987
30
0.0
0
VERTEX
8
RANHURAS
10
713.2231
20
1419.6079
30
0.0
0
VERTEX
8
RANHURAS
10
439.1700
20
2108.6519
30
0.0
0
VERTEX
8
RANHURAS
10
427.9456
20
2104.1245
30
0.0
0
VERTEX
8
RANHURAS
10
708.6738
20
1417.7729
30
0.0
0
VERTEX
8
RANHURAS
10
704.1425
20
1415.8938
30
0.0
0
VERTEX
8
RANHURAS
10
416.7657
20
2099.4882
30
0.0
0
VERTEX
8
RANHURAS
10
405.6313
20
2094.7437
30
0.0
0
VERTEX
8
RANHURAS
10
699.6297
20
1413.9709
30
0.0
0
VERTEX
8
RANHURAS
10
695.1357
20
1412.0042
30
0.0
0
VERTEX
8
RANHURAS
10
394.5435
20
2089.8914
30
0.0
0
VERTEX
8
RANHURAS
10
383.5033
20
2084.9316
30
0.0
0
VERTEX
8
RANHURAS
10
690.6611
20
1409.9940
30
0.0
0
VERTEX
8
RANHURAS
10
686.2061
20
1407.9404
30
0.0
0
VERTEX
8
RANHURAS
10
372.5117
20
2079.8649
30
0.0
0
VERTEX
8
RANHURAS
10
361.5699
20
2074.6918
30
0.0
0
VERTEX
8
RANHURAS
10
681.7713
20
1405.8437
30
0.0
0
VERTEX
8
RANHURAS
10
677.3571
20
1403.7041
30
0.0
0
VERTEX
8
RANHURAS
10
350.6788
20
2069.4127
30
0.0
0
VERTEX
8
RANHURAS
10
339.8394
20
2064.0282
30
0.0
0
VERTEX
8
RANHURAS
10
672.9639
20
1401.5217
30
0.0
0
VERTEX
8
RANHURAS
10
668.5920
20
1399.2968
30
0.0
0
VERTEX
8
RANHURAS
10
329.0528
20
2058.5387
30
0.0
0
VERTEX
8
RANHURAS
10
318.3200
20
2052.9447
30
0.0
0
VERTEX
8
RANHURAS
10
664.2419
20
1397.0295
30
0.0
0
VERTEX
8
RANHURAS
10
659.9141
20
1394.7201
30
0.0
0
VERTEX
8
RANHURAS
10
307.6421
20
2047.2469
30
0.0
0
VERTEX
8
RANHURAS
10
297.0199
20
2041.4456
30
0.0
0
VERTEX
8
RANHURAS
10
655.6089
20
1392.3689
30
0.0
0
VERTEX
8
RANHURAS
10
651.3267
20
1389.9759
30
0.0
0
VERTEX
8
RANHURAS
10
286.4545
20
2035.5416
30
0.0
0
VERTEX
8
RANHURAS
10
275.9469
20
2029.5353
30
0.0
0
VERTEX
8
RANHURAS
10
647.0679
20
1387.5415
30
0.0
0
VERTEX
8
RANHURAS
10
642.8329
20
1385.0659
30
0.0
0
VERTEX
8
RANHURAS
10
265.4981
20
2023.4272
30
0.0
0
VERTEX
8
RANHURAS
10
255.1091
20
2017.2181
30
0.0
0
VERTEX
8
RANHURAS
10
638.6222
20
1382.5493
30
0.0
0
VERTEX
8
RANHURAS
10
634.4361
20
1379.9919
30
0.0
0
VERTEX
8
RANHURAS
10
244.7809
20
2010.9084
30
0.0
0
VERTEX
8
RANHURAS
10
234.5144
20
2004.4987
30
0.0
0
VERTEX
8
RANHURAS
10
630.2750
20
1377.3941
30
0.0
0
VERTEX
8
RANHURAS
10
626.1394
20
1374.7559
30
0.0
0
VERTEX
8
RANHURAS
10
224.3105
20
1997.9897
30
0.0
0
VERTEX
8
RANHURAS
10
214.1704
20
1991.3820
30
0.0
0
VERTEX
8
RANHURAS
10
622.0295
20
1372.0778
30
0.0
0
VERTEX
8
RANHURAS
10
617.9458
20
1369.3599
30
0.0
0
VERTEX
8
RANHURAS
10
204.0948
20
1984.6761
30
0.0
0
VERTEX
8
RANHURAS
10
194.0849
20
1977.8728
30
0.0
0
VERTEX
8
RANHURAS
10
613.8887
20
1366.6024
30
0.0
0
VERTEX
8
RANHURAS
10
609.8586
20
1363.8058
30
0.0
0
VERTEX
8
RANHURAS
10
184.1414
20
1970.9726
30
0.0
0
VERTEX
8
RANHURAS
10
174.2653
20
1963.9762
30
0.0
0
VERTEX
8
RANHURAS
10
605.8558
20
1360.9701
30
0.0
0
VERTEX
8
RANHURAS
10
601.8807
20
1358.0957
30
0.0
0
VERTEX
8
RANHURAS
10
164.4577
20
1956.8844
30
0.0
0
VERTEX
8
RANHURAS
10
154.7193
20
1949.6976
30
0.0
0
VERTEX
8
RANHURAS
10
597.9337
20
1355.1829
30
0.0
0
VERTEX
8
RANHURAS
10
594.0151
20
1352.2319
30
0.0
0
VERTEX
8
RANHURAS
10
145.0512
20
1942.4167
30
0.0
0
VERTEX
8
RANHURAS
10
135.4541
20
1935.0423
30
0.0
0
VERTEX
8
RANHURAS
10
590.1254
20
1349.2430
30
0.0
0
VERTEX
8
RANHURAS
10
586.2649
20
1346.2165
30
0.0
0
VERTEX
8
RANHURAS
10
125.9291
20
1927.5750
30
0.0
0
VERTEX
8
RANHURAS
10
116.4771
20
1920.0157
30
0.0
0
VERTEX
8
RANHURAS
10
582.4339
20
1343.1526
30
0.0
0
VERTEX
8
RANHURAS
10
578.6328
20
1340.0518
30
0.0
0
VERTEX
8
RANHURAS
10
107.0988
20
1912.3650
30
0.0
0
VERTEX
8
RANHURAS
10
97.7953
20
1904.6236
30
0.0
0
VERTEX
8
RANHURAS
10
574.8621
20
1336.9141
30
0.0
0
VERTEX
8
RANHURAS
10
571.1219
20
1333.7401
30
0.0
0
VERTEX
8
RANHURAS
10
88.5673
20
1896.7923
30
0.0
0
VERTEX
8
RANHURAS
10
79.4158
20
1888.8717
30
0.0
0
VERTEX
8
RANHURAS
10
567.4127
20
1330.5298
30
0.0
0
VERTEX
8
RANHURAS
10
563.7349
20
1327.2837
30
0.0
0
VERTEX
8
RANHURAS
10
70.3416
20
1880.8628
30
0.0
0
VERTEX
8
RANHURAS
10
61.3455
20
1872.7661
30
0.0
0
VERTEX
8
RANHURAS
10
560.0888
20
1324.0021
30
0.0
0
VERTEX
8
RANHURAS
10
556.4746
20
1320.6853
30
0.0
0
VERTEX
8
RANHURAS
10
52.4285
20
1864.5825
30
0.0
0
VERTEX
8
RANHURAS
10
43.5913
20
1856.3127
30
0.0
0
VERTEX
8
RANHURAS
10
552.8929
20
1317.3335
30
0.0
0
SEQEND
0
TEXT
8
TEXTO
10
780.0000
20
2211.9317
30
0.0
40
26.0000
1
PLANIFICACAO LATERAL (revestir cone) - geratriz 722mm - 157 vincos
0
TEXT
8
TEXTO
10
780.0000
20
1435.3882
30
0.0
40
20.0000
1
topo O250  ->  base O600   (vincos passo ~12mm, pele 1mm)
0
CIRCLE
8
PERIMETRO
10
350.0000
20
400.0000
30
0.0
40
125.0000
0
TEXT
8
TEXTO
10
295.0000
20
400.0000
30
0.0
40
20.0000
1
TOPO O250
0
CIRCLE
8
PERIMETRO
10
1100.0000
20
400.0000
30
0.0
40
300.0000
0
TEXT
8
TEXTO
10
1040.0000
20
400.0000
30
0.0
40
22.0000
1
BASE O600
0
ENDSEC
0
EOF
