0
SECTION
2
HEADER
9
$INSUNITS
70
4
0
ENDSEC
0
SECTION
2
TABLES
0
TABLE
2
LAYER
70
3
0
LAYER
2
PERIMETRO
70
0
62
7
6
CONTINUOUS
0
LAYER
2
RANHURAS
70
0
62
1
6
CONTINUOUS
0
LAYER
2
TEXTO
70
0
62
3
6
CONTINUOUS
0
ENDTAB
0
ENDSEC
0
SECTION
2
ENTITIES
0
ARC
8
PERIMETRO
10
900.0000
20
950.0000
30
0.0
40
1236.9317
50
46.3436
51
133.6564
0
ARC
8
PERIMETRO
10
900.0000
20
950.0000
30
0.0
40
515.3882
50
46.3436
51
133.6564
0
LINE
8
PERIMETRO
10
1255.7891
20
1322.8795
30
0.0
11
1753.8938
21
1844.9108
31
0.0
0
LINE
8
PERIMETRO
10
544.2109
20
1322.8795
30
0.0
11
46.1062
21
1844.9108
31
0.0
0
LINE
8
RANHURAS
10
1252.1531
20
1326.3153
30
0.0
11
1745.1674
21
1853.1567
31
0.0
0
LINE
8
RANHURAS
10
1248.4839
20
1329.7156
30
0.0
11
1736.3614
21
1861.3175
31
0.0
0
LINE
8
RANHURAS
10
1244.7819
20
1333.0802
30
0.0
11
1727.4765
21
1869.3925
31
0.0
0
LINE
8
RANHURAS
10
1241.0474
20
1336.4087
30
0.0
11
1718.5138
21
1877.3808
31
0.0
0
LINE
8
RANHURAS
10
1237.2808
20
1339.7008
30
0.0
11
1709.4739
21
1885.2818
31
0.0
0
LINE
8
RANHURAS
10
1233.4824
20
1342.9561
30
0.0
11
1700.3577
21
1893.0947
31
0.0
0
LINE
8
RANHURAS
10
1229.6526
20
1346.1744
30
0.0
11
1691.1662
21
1900.8187
31
0.0
0
LINE
8
RANHURAS
10
1225.7917
20
1349.3555
30
0.0
11
1681.9001
21
1908.4531
31
0.0
0
LINE
8
RANHURAS
10
1221.9001
20
1352.4988
30
0.0
11
1672.5603
21
1915.9972
31
0.0
0
LINE
8
RANHURAS
10
1217.9782
20
1355.6043
30
0.0
11
1663.1477
21
1923.4503
31
0.0
0
LINE
8
RANHURAS
10
1214.0264
20
1358.6716
30
0.0
11
1653.6633
21
1930.8117
31
0.0
0
LINE
8
RANHURAS
10
1210.0449
20
1361.7003
30
0.0
11
1644.1078
21
1938.0807
31
0.0
0
LINE
8
RANHURAS
10
1206.0343
20
1364.6903
30
0.0
11
1634.4823
21
1945.2566
31
0.0
0
LINE
8
RANHURAS
10
1201.9948
20
1367.6412
30
0.0
11
1624.7875
21
1952.3388
31
0.0
0
LINE
8
RANHURAS
10
1197.9269
20
1370.5527
30
0.0
11
1615.0245
21
1959.3265
31
0.0
0
LINE
8
RANHURAS
10
1193.8309
20
1373.4246
30
0.0
11
1605.1941
21
1966.2191
31
0.0
0
LINE
8
RANHURAS
10
1189.7072
20
1376.2567
30
0.0
11
1595.2973
21
1973.0160
31
0.0
0
LINE
8
RANHURAS
10
1185.5562
20
1379.0485
30
0.0
11
1585.3349
21
1979.7165
31
0.0
0
LINE
8
RANHURAS
10
1181.3783
20
1381.8000
30
0.0
11
1575.3080
21
1986.3200
31
0.0
0
LINE
8
RANHURAS
10
1177.1739
20
1384.5108
30
0.0
11
1565.2175
21
1992.8258
31
0.0
0
LINE
8
RANHURAS
10
1172.9434
20
1387.1806
30
0.0
11
1555.0643
21
1999.2334
31
0.0
0
LINE
8
RANHURAS
10
1168.6872
20
1389.8092
30
0.0
11
1544.8494
21
2005.5422
31
0.0
0
LINE
8
RANHURAS
10
1164.4057
20
1392.3965
30
0.0
11
1534.5737
21
2011.7515
31
0.0
0
LINE
8
RANHURAS
10
1160.0993
20
1394.9420
30
0.0
11
1524.2382
21
2017.8608
31
0.0
0
LINE
8
RANHURAS
10
1155.7683
20
1397.4456
30
0.0
11
1513.8440
21
2023.8695
31
0.0
0
LINE
8
RANHURAS
10
1151.4133
20
1399.9071
30
0.0
11
1503.3919
21
2029.7770
31
0.0
0
LINE
8
RANHURAS
10
1147.0345
20
1402.3261
30
0.0
11
1492.8829
21
2035.5827
31
0.0
0
LINE
8
RANHURAS
10
1142.6325
20
1404.7026
30
0.0
11
1482.3181
21
2041.2862
31
0.0
0
LINE
8
RANHURAS
10
1138.2077
20
1407.0362
30
0.0
11
1471.6984
21
2046.8869
31
0.0
0
LINE
8
RANHURAS
10
1133.7604
20
1409.3268
30
0.0
11
1461.0249
21
2052.3843
31
0.0
0
LINE
8
RANHURAS
10
1129.2911
20
1411.5741
30
0.0
11
1450.2985
21
2057.7777
31
0.0
0
LINE
8
RANHURAS
10
1124.8001
20
1413.7779
30
0.0
11
1439.5203
21
2063.0669
31
0.0
0
LINE
8
RANHURAS
10
1120.2880
20
1415.9380
30
0.0
11
1428.6912
21
2068.2511
31
0.0
0
LINE
8
RANHURAS
10
1115.7552
20
1418.0542
30
0.0
11
1417.8124
21
2073.3300
31
0.0
0
LINE
8
RANHURAS
10
1111.2020
20
1420.1263
30
0.0
11
1406.8847
21
2078.3031
31
0.0
0
LINE
8
RANHURAS
10
1106.6289
20
1422.1541
30
0.0
11
1395.9093
21
2083.1699
31
0.0
0
LINE
8
RANHURAS
10
1102.0363
20
1424.1374
30
0.0
11
1384.8872
21
2087.9299
31
0.0
0
LINE
8
RANHURAS
10
1097.4247
20
1426.0761
30
0.0
11
1373.8194
21
2092.5827
31
0.0
0
LINE
8
RANHURAS
10
1092.7946
20
1427.9699
30
0.0
11
1362.7069
21
2097.1278
31
0.0
0
LINE
8
RANHURAS
10
1088.1462
20
1429.8187
30
0.0
11
1351.5509
21
2101.5649
31
0.0
0
LINE
8
RANHURAS
10
1083.4801
20
1431.6223
30
0.0
11
1340.3523
21
2105.8935
31
0.0
0
LINE
8
RANHURAS
10
1078.7968
20
1433.3805
30
0.0
11
1329.1122
21
2110.1132
31
0.0
0
LINE
8
RANHURAS
10
1074.0966
20
1435.0932
30
0.0
11
1317.8317
21
2114.2236
31
0.0
0
LINE
8
RANHURAS
10
1069.3800
20
1436.7601
30
0.0
11
1306.5119
21
2118.2243
31
0.0
0
LINE
8
RANHURAS
10
1064.6474
20
1438.3812
30
0.0
11
1295.1537
21
2122.1150
31
0.0
0
LINE
8
RANHURAS
10
1059.8993
20
1439.9563
30
0.0
11
1283.7583
21
2125.8952
31
0.0
0
LINE
8
RANHURAS
10
1055.1362
20
1441.4853
30
0.0
11
1272.3268
21
2129.5646
31
0.0
0
LINE
8
RANHURAS
10
1050.3584
20
1442.9679
30
0.0
11
1260.8602
21
2133.1230
31
0.0
0
LINE
8
RANHURAS
10
1045.5665
20
1444.4041
30
0.0
11
1249.3596
21
2136.5698
31
0.0
0
LINE
8
RANHURAS
10
1040.7608
20
1445.7937
30
0.0
11
1237.8260
21
2139.9049
31
0.0
0
LINE
8
RANHURAS
10
1035.9419
20
1447.1366
30
0.0
11
1226.2607
21
2143.1278
31
0.0
0
LINE
8
RANHURAS
10
1031.1102
20
1448.4327
30
0.0
11
1214.6646
21
2146.2384
31
0.0
0
LINE
8
RANHURAS
10
1026.2662
20
1449.6818
30
0.0
11
1203.0388
21
2149.2362
31
0.0
0
LINE
8
RANHURAS
10
1021.4102
20
1450.8838
30
0.0
11
1191.3845
21
2152.1211
31
0.0
0
LINE
8
RANHURAS
10
1016.5428
20
1452.0386
30
0.0
11
1179.7028
21
2154.8927
31
0.0
0
LINE
8
RANHURAS
10
1011.6645
20
1453.1462
30
0.0
11
1167.9947
21
2157.5508
31
0.0
0
LINE
8
RANHURAS
10
1006.7756
20
1454.2063
30
0.0
11
1156.2613
21
2160.0951
31
0.0
0
LINE
8
RANHURAS
10
1001.8766
20
1455.2189
30
0.0
11
1144.5038
21
2162.5254
31
0.0
0
LINE
8
RANHURAS
10
996.9681
20
1456.1840
30
0.0
11
1132.7233
21
2164.8415
31
0.0
0
LINE
8
RANHURAS
10
992.0504
20
1457.1013
30
0.0
11
1120.9209
21
2167.0431
31
0.0
0
LINE
8
RANHURAS
10
987.1240
20
1457.9709
30
0.0
11
1109.0976
21
2169.1301
31
0.0
0
LINE
8
RANHURAS
10
982.1894
20
1458.7926
30
0.0
11
1097.2547
21
2171.1022
31
0.0
0
LINE
8
RANHURAS
10
977.2471
20
1459.5664
30
0.0
11
1085.3931
21
2172.9593
31
0.0
0
LINE
8
RANHURAS
10
972.2975
20
1460.2921
30
0.0
11
1073.5141
21
2174.7011
31
0.0
0
LINE
8
RANHURAS
10
967.3411
20
1460.9698
30
0.0
11
1061.6187
21
2176.3276
31
0.0
0
LINE
8
RANHURAS
10
962.3784
20
1461.5994
30
0.0
11
1049.7081
21
2177.8385
31
0.0
0
LINE
8
RANHURAS
10
957.4098
20
1462.1807
30
0.0
11
1037.7835
21
2179.2338
31
0.0
0
LINE
8
RANHURAS
10
952.4357
20
1462.7139
30
0.0
11
1025.8458
21
2180.5132
31
0.0
0
LINE
8
RANHURAS
10
947.4568
20
1463.1987
30
0.0
11
1013.8963
21
2181.6768
31
0.0
0
LINE
8
RANHURAS
10
942.4733
20
1463.6351
30
0.0
11
1001.9360
21
2182.7242
31
0.0
0
LINE
8
RANHURAS
10
937.4859
20
1464.0232
30
0.0
11
989.9661
21
2183.6556
31
0.0
0
LINE
8
RANHURAS
10
932.4949
20
1464.3628
30
0.0
11
977.9878
21
2184.4707
31
0.0
0
LINE
8
RANHURAS
10
927.5009
20
1464.6540
30
0.0
11
966.0021
21
2185.1695
31
0.0
0
LINE
8
RANHURAS
10
922.5043
20
1464.8966
30
0.0
11
954.0102
21
2185.7520
31
0.0
0
LINE
8
RANHURAS
10
917.5055
20
1465.0908
30
0.0
11
942.0132
21
2186.2180
31
0.0
0
LINE
8
RANHURAS
10
912.5051
20
1465.2365
30
0.0
11
930.0123
21
2186.5675
31
0.0
0
LINE
8
RANHURAS
10
907.5035
20
1465.3336
30
0.0
11
918.0085
21
2186.8006
31
0.0
0
LINE
8
RANHURAS
10
902.5013
20
1465.3821
30
0.0
11
906.0030
21
2186.9171
31
0.0
0
LINE
8
RANHURAS
10
897.4987
20
1465.3821
30
0.0
11
893.9970
21
2186.9171
31
0.0
0
LINE
8
RANHURAS
10
892.4965
20
1465.3336
30
0.0
11
881.9915
21
2186.8006
31
0.0
0
LINE
8
RANHURAS
10
887.4949
20
1465.2365
30
0.0
11
869.9877
21
2186.5675
31
0.0
0
LINE
8
RANHURAS
10
882.4945
20
1465.0908
30
0.0
11
857.9868
21
2186.2180
31
0.0
0
LINE
8
RANHURAS
10
877.4957
20
1464.8966
30
0.0
11
845.9898
21
2185.7520
31
0.0
0
LINE
8
RANHURAS
10
872.4991
20
1464.6540
30
0.0
11
833.9979
21
2185.1695
31
0.0
0
LINE
8
RANHURAS
10
867.5051
20
1464.3628
30
0.0
11
822.0122
21
2184.4707
31
0.0
0
LINE
8
RANHURAS
10
862.5141
20
1464.0232
30
0.0
11
810.0339
21
2183.6556
31
0.0
0
LINE
8
RANHURAS
10
857.5267
20
1463.6351
30
0.0
11
798.0640
21
2182.7242
31
0.0
0
LINE
8
RANHURAS
10
852.5432
20
1463.1987
30
0.0
11
786.1037
21
2181.6768
31
0.0
0
LINE
8
RANHURAS
10
847.5643
20
1462.7139
30
0.0
11
774.1542
21
2180.5132
31
0.0
0
LINE
8
RANHURAS
10
842.5902
20
1462.1807
30
0.0
11
762.2165
21
2179.2338
31
0.0
0
LINE
8
RANHURAS
10
837.6216
20
1461.5994
30
0.0
11
750.2919
21
2177.8385
31
0.0
0
LINE
8
RANHURAS
10
832.6589
20
1460.9698
30
0.0
11
738.3813
21
2176.3276
31
0.0
0
LINE
8
RANHURAS
10
827.7025
20
1460.2921
30
0.0
11
726.4859
21
2174.7011
31
0.0
0
LINE
8
RANHURAS
10
822.7529
20
1459.5664
30
0.0
11
714.6069
21
2172.9593
31
0.0
0
LINE
8
RANHURAS
10
817.8106
20
1458.7926
30
0.0
11
702.7453
21
2171.1022
31
0.0
0
LINE
8
RANHURAS
10
812.8760
20
1457.9709
30
0.0
11
690.9024
21
2169.1301
31
0.0
0
LINE
8
RANHURAS
10
807.9496
20
1457.1013
30
0.0
11
679.0791
21
2167.0431
31
0.0
0
LINE
8
RANHURAS
10
803.0319
20
1456.1840
30
0.0
11
667.2767
21
2164.8415
31
0.0
0
LINE
8
RANHURAS
10
798.1234
20
1455.2189
30
0.0
11
655.4962
21
2162.5254
31
0.0
0
LINE
8
RANHURAS
10
793.2244
20
1454.2063
30
0.0
11
643.7387
21
2160.0951
31
0.0
0
LINE
8
RANHURAS
10
788.3355
20
1453.1462
30
0.0
11
632.0053
21
2157.5508
31
0.0
0
LINE
8
RANHURAS
10
783.4572
20
1452.0386
30
0.0
11
620.2972
21
2154.8927
31
0.0
0
LINE
8
RANHURAS
10
778.5898
20
1450.8838
30
0.0
11
608.6155
21
2152.1211
31
0.0
0
LINE
8
RANHURAS
10
773.7338
20
1449.6818
30
0.0
11
596.9612
21
2149.2362
31
0.0
0
LINE
8
RANHURAS
10
768.8898
20
1448.4327
30
0.0
11
585.3354
21
2146.2384
31
0.0
0
LINE
8
RANHURAS
10
764.0581
20
1447.1366
30
0.0
11
573.7393
21
2143.1278
31
0.0
0
LINE
8
RANHURAS
10
759.2392
20
1445.7937
30
0.0
11
562.1740
21
2139.9049
31
0.0
0
LINE
8
RANHURAS
10
754.4335
20
1444.4041
30
0.0
11
550.6404
21
2136.5698
31
0.0
0
LINE
8
RANHURAS
10
749.6416
20
1442.9679
30
0.0
11
539.1398
21
2133.1230
31
0.0
0
LINE
8
RANHURAS
10
744.8638
20
1441.4853
30
0.0
11
527.6732
21
2129.5646
31
0.0
0
LINE
8
RANHURAS
10
740.1007
20
1439.9563
30
0.0
11
516.2417
21
2125.8952
31
0.0
0
LINE
8
RANHURAS
10
735.3526
20
1438.3812
30
0.0
11
504.8463
21
2122.1150
31
0.0
0
LINE
8
RANHURAS
10
730.6200
20
1436.7601
30
0.0
11
493.4881
21
2118.2243
31
0.0
0
LINE
8
RANHURAS
10
725.9034
20
1435.0932
30
0.0
11
482.1683
21
2114.2236
31
0.0
0
LINE
8
RANHURAS
10
721.2032
20
1433.3805
30
0.0
11
470.8878
21
2110.1132
31
0.0
0
LINE
8
RANHURAS
10
716.5199
20
1431.6223
30
0.0
11
459.6477
21
2105.8935
31
0.0
0
LINE
8
RANHURAS
10
711.8538
20
1429.8187
30
0.0
11
448.4491
21
2101.5649
31
0.0
0
LINE
8
RANHURAS
10
707.2054
20
1427.9699
30
0.0
11
437.2931
21
2097.1278
31
0.0
0
LINE
8
RANHURAS
10
702.5753
20
1426.0761
30
0.0
11
426.1806
21
2092.5827
31
0.0
0
LINE
8
RANHURAS
10
697.9637
20
1424.1374
30
0.0
11
415.1128
21
2087.9299
31
0.0
0
LINE
8
RANHURAS
10
693.3711
20
1422.1541
30
0.0
11
404.0907
21
2083.1699
31
0.0
0
LINE
8
RANHURAS
10
688.7980
20
1420.1263
30
0.0
11
393.1153
21
2078.3031
31
0.0
0
LINE
8
RANHURAS
10
684.2448
20
1418.0542
30
0.0
11
382.1876
21
2073.3300
31
0.0
0
LINE
8
RANHURAS
10
679.7120
20
1415.9380
30
0.0
11
371.3088
21
2068.2511
31
0.0
0
LINE
8
RANHURAS
10
675.1999
20
1413.7779
30
0.0
11
360.4797
21
2063.0669
31
0.0
0
LINE
8
RANHURAS
10
670.7089
20
1411.5741
30
0.0
11
349.7015
21
2057.7777
31
0.0
0
LINE
8
RANHURAS
10
666.2396
20
1409.3268
30
0.0
11
338.9751
21
2052.3843
31
0.0
0
LINE
8
RANHURAS
10
661.7923
20
1407.0362
30
0.0
11
328.3016
21
2046.8869
31
0.0
0
LINE
8
RANHURAS
10
657.3675
20
1404.7026
30
0.0
11
317.6819
21
2041.2862
31
0.0
0
LINE
8
RANHURAS
10
652.9655
20
1402.3261
30
0.0
11
307.1171
21
2035.5827
31
0.0
0
LINE
8
RANHURAS
10
648.5867
20
1399.9071
30
0.0
11
296.6081
21
2029.7770
31
0.0
0
LINE
8
RANHURAS
10
644.2317
20
1397.4456
30
0.0
11
286.1560
21
2023.8695
31
0.0
0
LINE
8
RANHURAS
10
639.9007
20
1394.9420
30
0.0
11
275.7618
21
2017.8608
31
0.0
0
LINE
8
RANHURAS
10
635.5943
20
1392.3965
30
0.0
11
265.4263
21
2011.7515
31
0.0
0
LINE
8
RANHURAS
10
631.3128
20
1389.8092
30
0.0
11
255.1506
21
2005.5422
31
0.0
0
LINE
8
RANHURAS
10
627.0566
20
1387.1806
30
0.0
11
244.9357
21
1999.2334
31
0.0
0
LINE
8
RANHURAS
10
622.8261
20
1384.5108
30
0.0
11
234.7825
21
1992.8258
31
0.0
0
LINE
8
RANHURAS
10
618.6217
20
1381.8000
30
0.0
11
224.6920
21
1986.3200
31
0.0
0
LINE
8
RANHURAS
10
614.4438
20
1379.0485
30
0.0
11
214.6651
21
1979.7165
31
0.0
0
LINE
8
RANHURAS
10
610.2928
20
1376.2567
30
0.0
11
204.7027
21
1973.0160
31
0.0
0
LINE
8
RANHURAS
10
606.1691
20
1373.4246
30
0.0
11
194.8059
21
1966.2191
31
0.0
0
LINE
8
RANHURAS
10
602.0731
20
1370.5527
30
0.0
11
184.9755
21
1959.3265
31
0.0
0
LINE
8
RANHURAS
10
598.0052
20
1367.6412
30
0.0
11
175.2125
21
1952.3388
31
0.0
0
LINE
8
RANHURAS
10
593.9657
20
1364.6903
30
0.0
11
165.5177
21
1945.2566
31
0.0
0
LINE
8
RANHURAS
10
589.9551
20
1361.7003
30
0.0
11
155.8922
21
1938.0807
31
0.0
0
LINE
8
RANHURAS
10
585.9736
20
1358.6716
30
0.0
11
146.3367
21
1930.8117
31
0.0
0
LINE
8
RANHURAS
10
582.0218
20
1355.6043
30
0.0
11
136.8523
21
1923.4503
31
0.0
0
LINE
8
RANHURAS
10
578.0999
20
1352.4988
30
0.0
11
127.4397
21
1915.9972
31
0.0
0
LINE
8
RANHURAS
10
574.2083
20
1349.3555
30
0.0
11
118.0999
21
1908.4531
31
0.0
0
LINE
8
RANHURAS
10
570.3474
20
1346.1744
30
0.0
11
108.8338
21
1900.8187
31
0.0
0
LINE
8
RANHURAS
10
566.5176
20
1342.9561
30
0.0
11
99.6423
21
1893.0947
31
0.0
0
LINE
8
RANHURAS
10
562.7192
20
1339.7008
30
0.0
11
90.5261
21
1885.2818
31
0.0
0
LINE
8
RANHURAS
10
558.9526
20
1336.4087
30
0.0
11
81.4862
21
1877.3808
31
0.0
0
LINE
8
RANHURAS
10
555.2181
20
1333.0802
30
0.0
11
72.5235
21
1869.3925
31
0.0
0
LINE
8
RANHURAS
10
551.5161
20
1329.7156
30
0.0
11
63.6386
21
1861.3175
31
0.0
0
LINE
8
RANHURAS
10
547.8469
20
1326.3153
30
0.0
11
54.8326
21
1853.1567
31
0.0
0
TEXT
8
TEXTO
10
780.0000
20
2211.9317
30
0.0
40
26.0000
1
PLANIFICACAO LATERAL (revestir cone) - geratriz 722mm - 157 vincos
0
TEXT
8
TEXTO
10
780.0000
20
1435.3882
30
0.0
40
20.0000
1
topo O250  ->  base O600   (vincos passo ~12mm, pele 1mm)
0
CIRCLE
8
PERIMETRO
10
350.0000
20
400.0000
30
0.0
40
125.0000
0
TEXT
8
TEXTO
10
295.0000
20
400.0000
30
0.0
40
20.0000
1
TOPO O250
0
CIRCLE
8
PERIMETRO
10
1100.0000
20
400.0000
30
0.0
40
300.0000
0
TEXT
8
TEXTO
10
1040.0000
20
400.0000
30
0.0
40
22.0000
1
BASE O600
0
ENDSEC
0
EOF
